<svg xmlns="http://www.w3.org/2000/svg" width="361.961" height="98.203" viewBox="0 0 361.961 98.203">
    <defs>
        <style>
            .prefix__cls-1{fill:#fff}
        </style>
    </defs>
    <g id="prefix__KavTYO_tif" transform="translate(1433.658 -262.636)">
        <g id="prefix__Group_260" data-name="Group 260" transform="translate(-1433.658 262.636)">
            <path id="prefix__Path_279" d="M-1390.569 360.839c-.9-.085-1.789-.176-2.685-.252a45.042 45.042 0 0 1-19.4-6.282 45.18 45.18 0 0 1-11.1-9.305c-.076-.088-.146-.181-.242-.3l.466-.542c-.625-.824-1.259-1.622-1.854-2.448a43.856 43.856 0 0 1-7.932-19.4 25.517 25.517 0 0 1-.333-3.094 4.966 4.966 0 0 1 3.255-4.912c3.434-1.384 6.883-2.734 10.327-4.1 1.713-.678 3.422-1.364 5.143-2.02a.789.789 0 0 0 .594-.857 43.993 43.993 0 0 1 10.275-27.979c.247-.3.4-.544 0-.807 16.687-20.325 49.885-22.057 68.667-.051l-.28.422c.706.919 1.432 1.819 2.11 2.755a44.348 44.348 0 0 1 7.865 18.757 34.432 34.432 0 0 1 .4 3.443 5.055 5.055 0 0 1-3.383 5.3c-3 1.2-6.014 2.376-9.021 3.564-2.023.8-4.037 1.622-6.074 2.383a1.08 1.08 0 0 0-.833 1.183 42.809 42.809 0 0 1-2.444 13.944 44.508 44.508 0 0 1-7.509 13.445c-.11.136-.211.279-.337.446l.5.593c-.585.642-1.16 1.306-1.77 1.936a45.4 45.4 0 0 1-24.983 13.4c-1.921.353-3.89.439-5.837.652-.29.032-.577.086-.865.13zm-10.257-79.289c-.443-.238-.448-.242-.8.189a41 41 0 0 0-9.333 25.29.927.927 0 0 1-.711 1c-1.907.718-3.8 1.484-5.69 2.234q-4.728 1.872-9.453 3.749a5.342 5.342 0 0 0-3.428 5.383 46.526 46.526 0 0 0 1.008 6.017 40.078 40.078 0 0 0 7.871 15.957c.105.131.315.356.361.331.434-.239.55.143.736.351a40.814 40.814 0 0 0 28.462 14.064 39.566 39.566 0 0 0 16.643-2.393 41.184 41.184 0 0 0 17.036-11.717c.125-.142.339-.4.408-.365.371.166.493-.1.656-.3a40.726 40.726 0 0 0 9.049-24.969.892.892 0 0 1 .656-.981c4.982-1.948 9.95-3.931 14.93-5.884a5.291 5.291 0 0 0 3.535-3.866 8.989 8.989 0 0 0 .061-2.966 40.54 40.54 0 0 0-4.554-14.309 40.566 40.566 0 0 0-4.8-7.063l-.455.242c-8.281-9.316-18.58-14.364-31.061-14.374-12.501-.012-22.821 5.03-31.127 14.38z" class="prefix__cls-1" data-name="Path 279" transform="translate(1433.658 -262.636)"/>
            <path id="prefix__Path_280" d="M1519.534 480.3c-2.3-.012-4.59-.031-6.885-.021-.133 0-.321.21-.382.363a1.656 1.656 0 0 0-.022.583v42.75a3.371 3.371 0 0 1 0 .353c-.051.48.147.652.637.647 2.218-.022 4.436-.012 6.654-.014v1.178c-.47-.01-.941-.029-1.411-.029h-14.414V525c.245-.012.474-.032.7-.033 1.924 0 3.848-.014 5.772.007.483.005.687-.094.686-.644q-.023-21.734-.013-43.469c0-.173-.019-.345-.032-.576h-7.115v-1.191c.235-.013.464-.036.693-.036h14.372c.253 0 .505-.033.758-.051z" class="prefix__cls-1" data-name="Path 280" transform="translate(-1157.573 -453.504)"/>
            <path id="prefix__Path_281" d="M-344.536 526.341h-5.388v-.722q0-22.77-.011-45.54c0-.571.107-.785.736-.771 1.983.044 3.967.034 5.95 0a.92.92 0 0 1 .95.583q6.4 12.088 12.832 24.163a.335.335 0 0 0 .027.052l.492.619a4.014 4.014 0 0 0 .493-.605q6.473-12.085 12.92-24.183a1 1 0 0 1 1.042-.63c1.944.034 3.888.013 5.832.014.773 0 .775 0 .775.766v46.231h-5.388v-.814q0-19-.009-38a3.373 3.373 0 0 0-.217-.828 3.38 3.38 0 0 0-.528.628c-4.554 9.285-9.763 18.217-14.674 27.31-.061.114-.142.218-.247.376-.141-.25-.259-.449-.367-.652q-7.279-13.587-14.567-27.17c-.092-.172-.316-.272-.479-.406a2.577 2.577 0 0 0-.166.634q-.012 19-.007 38z" class="prefix__cls-1" data-name="Path 281" transform="translate(477.641 -453.775)"/>
            <path id="prefix__Path_282" d="M102.968 592.825c-.058-2.226.22-4.372-.418-6.461a5.682 5.682 0 0 0-3.487-3.895 10.649 10.649 0 0 0-10.216.967 10.83 10.83 0 0 0-3.024 3.385l-3.161-2.951a11.425 11.425 0 0 1 3.367-3.995 13.6 13.6 0 0 1 7.059-2.658 17.483 17.483 0 0 1 8.542 1.1 10.163 10.163 0 0 1 6.528 9.022c.081.857.1 1.723.1 2.585q.013 8.63 0 17.26v.811c.26.013.468.032.676.033.942 0 1.885.006 2.828 0 .295 0 .493.054.49.414-.009 1.276.006 2.553-.018 3.829 0 .131-.2.372-.3.37a29.726 29.726 0 0 1-4.4-.186c-2.32-.4-3.5-2.066-4.03-4.251a6.292 6.292 0 0 0-.132-.631 4.193 4.193 0 0 0-.3-.564 4.285 4.285 0 0 0-.376.458 23.873 23.873 0 0 1-1.661 2.688 9.244 9.244 0 0 1-6.121 3.178 14.766 14.766 0 0 1-7.247-.689 9.2 9.2 0 0 1-6.343-8.086 10.954 10.954 0 0 1 .526-5.27 8.842 8.842 0 0 1 5.616-5.172 19.4 19.4 0 0 1 6.267-1.18c2.806-.081 5.614-.076 8.421-.108.239-.005.471-.003.814-.003zm-4.31 3.94c-.824 0-1.648-.013-2.472 0-.843.017-1.687.032-2.526.1a11.117 11.117 0 0 0-4.454 1.16 4.231 4.231 0 0 0-2.339 3.2 15.377 15.377 0 0 0-.054 2.291 4.9 4.9 0 0 0 3.366 4.87 10.5 10.5 0 0 0 4.747.544 10.162 10.162 0 0 0 5.915-2.172 5.235 5.235 0 0 0 2.105-4.094c.02-1.785.005-3.57.026-5.355.005-.454-.2-.559-.607-.553-1.235.022-2.471.01-3.707.009z" class="prefix__cls-1" data-name="Path 282" transform="translate(97.286 -540.055)"/>
            <path id="prefix__Path_283" d="M850.106 583.41a6.085 6.085 0 0 0 .37-.595 9.432 9.432 0 0 1 6.631-5.591 12.723 12.723 0 0 1 7.79.584c3.5 1.454 5.4 4.243 6.239 7.816a17.776 17.776 0 0 1 .481 3.894c.046 7.441.025 14.883.025 22.325 0 .173-.019.346-.032.56h-5.223v-.736-20.381a14.619 14.619 0 0 0-.705-4.863 6.8 6.8 0 0 0-6.548-4.746 12.049 12.049 0 0 0-5.123.817 6.243 6.243 0 0 0-4.167 6.267v23.646h-5.209v-34.59a.789.789 0 0 1 .243-.078c1.512-.007 3.024 0 4.535-.016.4 0 .435.206.434.519q-.011 2.238 0 4.477a5.043 5.043 0 0 0 .084.648z" class="prefix__cls-1" data-name="Path 283" transform="translate(-576.162 -539.845)"/>
            <path id="prefix__Path_284" d="M405.292 584.077c-.2.282-.335.487-.48.687q-5.663 7.786-11.338 15.564a.768.768 0 0 0 .009 1.071q5.8 8.264 11.577 16.549c.164.234.326.471.56.809h-3.4c-.668 0-1.337-.032-2 .011a.941.941 0 0 1-.945-.517q-4.253-6.469-8.534-12.919c-.477-.721-.5-.722-.989-.033q-4.621 6.468-9.233 12.943a1.072 1.072 0 0 1-1 .527c-1.641-.03-3.283-.012-5.044-.012.724-.991 1.378-1.889 2.035-2.784q5.21-7.1 10.43-14.186a.755.755 0 0 0 .009-1.063q-5.755-8.01-11.474-16.046c-.122-.172-.24-.346-.444-.64h.848c1.591 0 3.181.014 4.772-.009a.96.96 0 0 1 .912.48q4.045 5.971 8.119 11.923c.138.2.3.387.5.644.208-.257.374-.441.517-.643q4.221-5.958 8.43-11.924a.968.968 0 0 1 .909-.48c1.531.026 3.063.009 4.595.011.181-.001.367.02.659.037z" class="prefix__cls-1" data-name="Path 284" transform="translate(-161.398 -546.154)"/>
            <path id="prefix__Path_285" d="M706.268 584.012v34.637h-5.207c-.011-.243-.03-.472-.03-.7q0-16.606-.013-33.212c0-.567.107-.8.736-.769 1.274.053 2.551.014 3.827.017.211-.003.419.015.687.027z" class="prefix__cls-1" data-name="Path 285" transform="translate(-449.47 -546.098)"/>
            <path id="prefix__Path_286" d="M1175.672 526.328c-1.37.156-1.368.155-1.792-1.016q-2.551-7.043-5.093-14.09a.82.82 0 0 0-.917-.652q-10.1.031-20.2 0a.956.956 0 0 0-1.086.751c-1.667 4.666-3.368 9.32-5.059 13.977-.423 1.165-.423 1.165-1.769 1.042.071-.243.125-.479.207-.706q8.251-22.788 16.491-45.579a.934.934 0 0 1 1.1-.737c1.348.07 1.04-.21 1.5 1.067q8.2 22.589 16.371 45.185c.083.23.154.474.247.758zm-17.872-45.537l-.27-.012-10.214 28.569h20.763z" class="prefix__cls-1" data-name="Path 286" transform="translate(-836.503 -453.779)"/>
            <path id="prefix__Path_287" d="M695.678 458.892a10.142 10.142 0 0 1 .143-1.4c.38-1.59 1.818-2.123 3.477-1.994 1.694.132 2.553.775 2.779 2.117a7.982 7.982 0 0 1 .009 2.564c-.219 1.345-1.2 2.06-2.761 2.142a5.813 5.813 0 0 1-1.626-.15 2.449 2.449 0 0 1-1.962-2.4c-.017-.293 0-.587 0-.881z" class="prefix__cls-1" data-name="Path 287" transform="translate(-444.759 -432.759)"/>
            <path id="prefix__Path_288" d="M-1274.068 352.37l-.3.425c.378.492.756.967 1.116 1.455a35.336 35.336 0 0 1 6.665 16.254 5.845 5.845 0 0 1-.76 4.4 5.463 5.463 0 0 1-2.579 1.967q-7.6 2.993-15.2 6c-.38.149-.59.306-.6.783a35.325 35.325 0 0 1-7.5 21.422c-.119.155-.234.313-.368.491l.36.459c-13.2 16.886-41.1 18.425-56.2.034l.321-.4c-.967-1.448-1.973-2.829-2.846-4.289a36 36 0 0 1-4.667-13.452 5.5 5.5 0 0 1 3.623-6.17c5-1.9 9.953-3.921 14.934-5.868a.874.874 0 0 0 .658-.939 35.014 35.014 0 0 1 7.826-21.715c.25-.315.348-.554-.009-.813 13.581-16.831 40.545-18.002 55.526-.044zm-22.015 50.814a32.055 32.055 0 0 0 5.133-9.286 30.223 30.223 0 0 0 1.785-9.665 1.122 1.122 0 0 1 .838-1.25c1.882-.668 3.725-1.447 5.583-2.183 3.151-1.249 6.311-2.477 9.451-3.754a5.418 5.418 0 0 0 3.413-5.562 32.738 32.738 0 0 0-2.332-8.591 31.865 31.865 0 0 0-4.662-7.7l-.462.216a1.543 1.543 0 0 1-.159-.132c-.158-.175-.309-.356-.467-.531-7.81-8.584-17.493-12.166-28.957-10.47a30.4 30.4 0 0 0-19.005 10.726c-.276.322-.5.5-.864.2-.1.111-.171.179-.231.256a31.8 31.8 0 0 0-6.99 19.333.78.78 0 0 1-.592.843c-2.339.9-4.669 1.833-7 2.757-2.751 1.089-5.5 2.193-8.252 3.266a5.417 5.417 0 0 0-3.39 5.62 31.189 31.189 0 0 0 2.725 9.5 31.52 31.52 0 0 0 3.949 6.395l.469-.189a32.092 32.092 0 0 0 49.586 0z" class="prefix__cls-1" data-name="Path 288" transform="translate(1365.766 -330.303)"/>
            <path id="prefix__Path_289" d="M-1274.644 467.462l.309-.419c-.087-.134-.163-.267-.254-.39a26.347 26.347 0 0 1-4.506-9.817 7.425 7.425 0 0 1-.248-3.541 5.167 5.167 0 0 1 3.258-3.75c5.047-2 10.088-4 15.143-5.978a.893.893 0 0 0 .667-.977 26.383 26.383 0 0 1 5.22-15.214l.471-.637-.292-.474a27.056 27.056 0 0 1 42.33-.005l-.294.445c.077.115.154.247.246.367a26.259 26.259 0 0 1 4.724 9.969 8.072 8.072 0 0 1 .333 3.537 5.13 5.13 0 0 1-3.311 3.968q-7.432 2.943-14.865 5.884c-1.108.44-.9.206-.943 1.372a26.23 26.23 0 0 1-5.035 14.681c-.1.144-.206.287-.307.432a.827.827 0 0 0-.056.131l.3.4a27.4 27.4 0 0 1-42.89.016zm23-38.1c-.344-.374-.549-.188-.737.126-.717 1.192-1.524 2.339-2.145 3.579a21.249 21.249 0 0 0-2.3 9.335.861.861 0 0 1-.67.94c-.631.211-1.243.478-1.863.723q-6.559 2.594-13.117 5.192a5.334 5.334 0 0 0-3.436 6.069 22.065 22.065 0 0 0 3.822 8.959c.086.122.195.228.305.355l.456-.313c4.7 5.747 10.693 8.884 18.129 8.885 7.452 0 13.463-3.135 18.141-8.867l.464.271a22.461 22.461 0 0 0 3.41-6.516 24.163 24.163 0 0 0 1.151-6.637.6.6 0 0 1 .442-.647c.683-.241 1.349-.53 2.024-.8 4.373-1.729 8.741-3.469 13.121-5.181a5.266 5.266 0 0 0 3.5-5.369 23.494 23.494 0 0 0-1.165-4.589 19.836 19.836 0 0 0-3.234-5.791l-.468.24a22.681 22.681 0 0 0-35.828.039z" class="prefix__cls-1" data-name="Path 289" transform="translate(1297.644 -397.981)"/>
            <path id="prefix__Path_290" d="M-1150.1 500.123l-.307.409.162-.049c.747 1.61 1.544 3.2 2.228 4.836a5 5 0 0 1-.395 4.837 5.375 5.375 0 0 1-2.685 2.105c-4.958 1.953-9.908 3.926-14.871 5.865a.917.917 0 0 0-.686.983 16.777 16.777 0 0 1-2.951 9.157c-.226.336-.332.608.033.916a17.6 17.6 0 0 1-4.38 4.274 18.047 18.047 0 0 1-24.352-3.708c-.219-.278-.562-.534-.161-.948.05-.052-.106-.346-.209-.5a17.73 17.73 0 0 1-2.279-4.819 5.07 5.07 0 0 1 3.028-6.351c5.038-2.015 10.089-4 15.135-5.995.334-.132.622-.228.627-.709a17.052 17.052 0 0 1 3.078-9.594c.055-.081.1-.167.161-.269l-.3-.477a17.612 17.612 0 0 1 10.564-6.948 17.865 17.865 0 0 1 18.56 6.985zm-22.316 26.223a13.632 13.632 0 0 0 2.361-7.06.908.908 0 0 1 .694-.956q7.278-2.854 14.536-5.76a5.87 5.87 0 0 0 1.88-1.167c2.472-2.405 2.247-5.41-.032-8.428l-.41.219a13.4 13.4 0 0 0-11.258-5.974 13.391 13.391 0 0 0-11.283 5.971l-.468-.23c-.121.184-.232.343-.334.509a13.74 13.74 0 0 0-2.033 6.555.927.927 0 0 1-.722.947q-7.278 2.854-14.54 5.749a5.36 5.36 0 0 0-3.555 4.585c-.242 1.942.753 3.458 1.688 5.042l.47-.281a13.366 13.366 0 0 0 11.269 5.992 13.366 13.366 0 0 0 11.289-6z" class="prefix__cls-1" data-name="Path 290" transform="translate(1228.587 -465.583)"/>
        </g>
    </g>
</svg>
