<?xml version="1.0" encoding="utf-8"?>
<!-- Generator: Adobe Illustrator 21.0.0, SVG Export Plug-In . SVG Version: 6.00 Build 0)  -->
<svg version="1.1" id="Layer_1" xmlns="http://www.w3.org/2000/svg" xmlns:xlink="http://www.w3.org/1999/xlink" x="0px" y="0px"
	 viewBox="0 0 68.8 65.6" style="enable-background:new 0 0 68.8 65.6;" xml:space="preserve">
<style type="text/css">
	.st0{fill:none;stroke:#370355;stroke-width:2.2;stroke-miterlimit:10;}
</style>
<g id="Group_62" transform="translate(1 1)">
	<path id="Path_117" class="st0" d="M33.3,7.9c-1.1-4.8-5.8-7.8-10.6-6.8c-2.8,0.6-5.1,2.5-6.2,5.1c-0.3,0-0.5-0.1-0.8-0.1
		c-4.9,0-8.9,4-8.9,8.9c0,0,0,0,0,0c0,0.5,0.1,1.1,0.1,1.6C2.9,17.2,0,20.5,0,24.5v12.6c0,3.5,2.4,6.6,5.8,7.5c-0.3,1-0.5,2-0.5,3
		c0,4.9,4,8.9,8.9,8.9c0,0,0,0,0,0c0.6,0,1.2-0.1,1.8-0.2c1.4,4.7,6.4,7.4,11.1,5.9c3.8-1.1,6.3-4.6,6.3-8.5L33.3,7.9z"/>
	<path id="Path_118" class="st0" d="M33.5,55.7c1.1,4.8,5.8,7.8,10.6,6.8c2.8-0.6,5.1-2.5,6.2-5.1c0.3,0,0.5,0.1,0.8,0.1
		c4.9,0,8.9-4,8.9-8.9c0,0,0,0,0,0c0-0.5-0.1-1.1-0.1-1.6c3.9-0.5,6.9-3.8,6.9-7.8V26.6c0-3.5-2.4-6.6-5.8-7.5c0.3-1,0.5-2,0.5-3
		c0-4.9-4-8.9-8.9-8.9c0,0,0,0,0,0c-0.6,0-1.2,0.1-1.8,0.2c-1.4-4.7-6.4-7.4-11.1-5.9c-3.8,1.1-6.3,4.6-6.3,8.5L33.5,55.7z"/>
	<path id="Path_119" class="st0" d="M13.9,20.7h4.5v-5.9"/>
	<ellipse id="Ellipse_36" class="st0" cx="18.4" cy="12.4" rx="2.4" ry="2.4"/>
	<path id="Path_120" class="st0" d="M17.2,20.7h10.8v-5.9"/>
	<ellipse id="Ellipse_37" class="st0" cx="27.9" cy="12.4" rx="2.4" ry="2.4"/>
	<line id="Line_26" class="st0" x1="27.6" y1="47.4" x2="27.6" y2="31.2"/>
	<ellipse id="Ellipse_38" class="st0" cx="27.6" cy="49.8" rx="2.4" ry="2.4"/>
	<ellipse id="Ellipse_39" class="st0" cx="11.5" cy="20.7" rx="2.4" ry="2.4"/>
	<path id="Path_121" class="st0" d="M13.3,41.7h4.3v5.7"/>
	<ellipse id="Ellipse_40" class="st0" cx="10.9" cy="41.7" rx="2.4" ry="2.4"/>
	<line id="Line_27" class="st0" x1="13.3" y1="31.2" x2="33.3" y2="31.2"/>
	<ellipse id="Ellipse_41" class="st0" cx="10.9" cy="31.2" rx="2.4" ry="2.4"/>
	<ellipse id="Ellipse_42" class="st0" cx="17.7" cy="49.8" rx="2.4" ry="2.4"/>
	<path id="Path_122" class="st0" d="M17.7,41.7h6v-21"/>
	<path id="Path_123" class="st0" d="M49.7,11.1c-0.1,4.9-4.2,8.8-9.1,8.7c0,0,0,0-0.1,0"/>
	<path id="Path_124" class="st0" d="M43.3,44.2c4,0,7.2,3.2,7.2,7.2c0,0,0,0,0,0"/>
	<path id="Path_125" class="st0" d="M52,34.4c4,0,7.2,3.2,7.2,7.2c0,0,0,0,0,0"/>
	<path id="Path_126" class="st0" d="M47.8,37.6c-4,0-7.2-3.2-7.2-7.2c0,0,0,0,0,0"/>
	<path id="Path_127" class="st0" d="M57.9,29c-4,0-7.2-3.2-7.2-7.2c0,0,0,0,0,0"/>
</g>
</svg>
