<?xml version="1.0" encoding="utf-8"?>
<!-- Generator: Adobe Illustrator 21.0.0, SVG Export Plug-In . SVG Version: 6.00 Build 0)  -->
<svg version="1.1" id="Capa_1" xmlns="http://www.w3.org/2000/svg" xmlns:xlink="http://www.w3.org/1999/xlink" x="0px" y="0px"
	 viewBox="0 0 512 512" style="enable-background:new 0 0 512 512;" xml:space="preserve">
<style type="text/css">
	.st0{fill:#370355;}
</style>
<g>
	<g>
		<path class="st0" d="M458.9,173.1l-33.6,66c-7.4-4.9-16.4-5.5-25.7-0.8c-44.1,22.2-51,24.7-60.1,34.5c0,0-0.1,0.1-0.1,0.1
			c-28.9,33-27.7,29.5-41.5,74.6c-4.5-0.5-4.8-0.6-5.8-0.6c-7,0-12.9,5.2-13.7,12.2c-0.1,0.4-10.3,90.5-10.4,90.9
			c-0.5,12.1,6.9,21,20.6,21h27.8c4.1,0,7.5-3.4,7.5-7.5s-3.4-7.5-7.5-7.5h-27.8c-4.5,0-5.7-1.3-5.7-5.2l6.2-54l95,10.8l-4.8,42.3
			c-0.6,4.8-4.1,5.9-6.3,6h-21.5c-4.1,0-7.5,3.4-7.5,7.5s3.4,7.5,7.5,7.5h21.8c7,0,19.3-5,21-19.3l8.9-78.4
			c0.6-5.4-2.1-10.5-6.4-13.2c8.4-9.4,4.8-6.7,49.9-29.5c0.1-0.1,0.2-0.1,0.3-0.2c6.2-3.5,21-13.7,26.2-33.4
			c0.2-0.5,37.5-107.6,37.6-108.1C520.2,152,472.9,135.4,458.9,173.1z M385.9,392.7l-95-10.8l2.3-19.9c15,1.7,19.4,2.2,95,10.8
			L385.9,392.7z M496.3,184.9l-37.4,107.6c0,0.1,0,0.1-0.1,0.2c0,0.1-0.1,0.2-0.1,0.3c-3.6,14.1-14.4,21.6-19,24.3
			c-49.8,25.1-42.9,20.2-60.1,39.5l-66.6-7.6c11.6-37.8,9.2-34,37.6-66.3c0.5-0.5,5.8-6,12.7-9.5c46.3-23.4,45.3-23.3,48.9-23.3
			c7.6,0,12.1,9.8,10.6,15.2c-1.3,4.3-2.9,4.2-41.7,23.8c-7,3.6-4.4,14.2,3.4,14.2c2.4,0,0.3,0.7,39.6-19.1
			c13.1-6.6,17.1-19.2,11.6-32.4c20.6-40.4,36.9-72.3,37.3-73.3c2.9-7.9,7.8-13.3,15.9-11C498.8,170.7,497.2,181.3,496.3,184.9z"/>
	</g>
</g>
<g>
	<g>
		<path class="st0" d="M240.6,449.6c0-0.1-10.3-90.5-10.3-90.5c-0.9-7.5-7.6-13-15.2-12.1l-4.2,0.5c0,0-7.9-25.7-7.9-25.7
			c-4.8-15.5-17.8-30.8-17.9-31c-26.2-29.8-15.5-22.1-75.9-52.6c-8.4-4.2-17.3-4.5-25.4,0.6l-30.6-65.7
			c-14-37.9-61.3-21.2-51.9,15.7c0.1,0.3,34.1,107.7,34.2,108c5.1,19.7,20,30,26.2,33.5c0.1,0.1,0.2,0.1,0.3,0.2
			c43.9,22.1,41.3,19.9,49.9,29.5c-4.4,2.7-7,7.8-6.4,13.2c3.7,32,1.8,15.8,8.9,78.4c1.6,14,13.5,19.3,21,19.3H220
			C234.9,471,241.6,460.3,240.6,449.6z M68.9,317.3c-4.6-2.6-15.3-10.1-19-24.2c-0.1-0.4-34.1-107.7-34.3-108.1
			c-0.9-3.5-2.6-14.3,7.4-17.6c8.1-2.2,13,3.1,15.9,11c0.1,0.3,0.2,0.5,0.3,0.8l33.7,72.3c-5.4,13-1.8,25.8,11.6,32.6l36.3,18.3
			c3.7,1.9,8.2,0.4,10.1-3.3c1.9-3.7,0.4-8.2-3.3-10.1c-39.4-19.9-40.5-19.6-41.7-23.8c-1.6-5.6,3.1-15.2,10.6-15.2
			c1.8,0,3.7,0.5,5.8,1.6c59,29.8,46.9,21.2,71.3,49c14.1,16.9,15.5,27.6,22,48.6l-66.6,7.6C111.5,337.1,118.5,342.3,68.9,317.3z
			 M120.5,372.8c2.8-0.3,0.2,0,95-10.8l2.3,19.9c-10.1,1.1-84.9,9.7-95,10.8L120.5,372.8z M220,456h-84.3c-2.2-0.2-5.8-1.2-6.3-6
			l-4.8-42.3c9.4-1.1,83.7-9.6,95-10.8l6.2,54C225.7,454.7,224.5,456,220,456z"/>
	</g>
</g>
<g>
	<g>
		<path class="st0" d="M243.3,153c4.1,0,7.5-3.4,7.5-7.5v-4.8c0-11.9-6-22.5-15.1-28.8C265.2,88.4,248.4,41,211,41
			c-37.5,0-54.1,47.5-24.7,70.9c-9.1,6.4-15.1,16.9-15.1,28.8V201c0,10.7,8.7,19.5,19.5,19.5h40.6c10.7,0,19.5-8.7,19.5-19.5v-20.5
			c0-4.1-3.4-7.5-7.5-7.5s-7.5,3.4-7.5,7.5V201c0,2.5-2,4.5-4.5,4.5h-40.6c-2.5,0-4.5-2-4.5-4.5v-60.3c0-11.1,9.1-20.2,20.2-20.2
			h9.2c11.1,0,20.2,9.1,20.2,20.2v4.8C235.8,149.7,239.1,153,243.3,153z M211,105.5c-13.7,0-24.8-11.1-24.8-24.8S197.3,56,211,56
			c13.7,0,24.8,11.1,24.8,24.8S224.6,105.5,211,105.5z"/>
	</g>
</g>
<g>
	<g>
		<path class="st0" d="M327.2,111.9C356.7,88.4,339.9,41,302.5,41c-37.5,0-54.1,47.5-24.7,70.9c-9.1,6.4-15.1,16.9-15.1,28.8V201
			c0,10.7,8.7,19.5,19.5,19.5h40.6c10.7,0,19.5-8.7,19.5-19.5v-60.3C342.3,128.8,336.3,118.3,327.2,111.9z M277.7,80.8
			c0-13.7,11.1-24.8,24.8-24.8c13.7,0,24.8,11.1,24.8,24.8s-11.1,24.8-24.8,24.8C288.8,105.5,277.7,94.4,277.7,80.8z M327.3,201
			c0,2.5-2,4.5-4.5,4.5h-40.6c-2.5,0-4.5-2-4.5-4.5v-60.3h0c0-11.1,9.1-20.2,20.2-20.2h9.2c11.1,0,20.2,9.1,20.2,20.2L327.3,201
			L327.3,201z"/>
	</g>
</g>
<g>
	<g>
		<path class="st0" d="M381.4,108.8c-23.2,0-35.1,27.8-19.2,44.7c-4.5,4.3-7.3,10.4-7.3,17.1V201c0,10.7,8.7,19.5,19.5,19.5h14
			c10.7,0,19.5-8.7,19.5-19.5v-30.5c0-6.7-2.8-12.7-7.3-17.1C416.5,136.6,404.5,108.8,381.4,108.8z M381.4,123.8
			c6.3,0,11.5,5.2,11.5,11.5s-5.2,11.5-11.5,11.5c-6.3,0-11.5-5.2-11.5-11.5C369.9,128.9,375,123.8,381.4,123.8z M392.9,201
			c0,2.5-2,4.5-4.5,4.5h-14c-2.5,0-4.5-2-4.5-4.5v-30.5h0c0-4.8,3.9-8.8,8.8-8.8h5.4c4.8,0,8.8,3.9,8.8,8.8L392.9,201L392.9,201z"/>
	</g>
</g>
<g>
	<g>
		<path class="st0" d="M132.5,108.8c-23.2,0-35.1,27.8-19.2,44.7c-4.5,4.3-7.3,10.4-7.3,17.1V201c0,10.7,8.7,19.5,19.5,19.5h14
			c10.7,0,19.5-8.7,19.5-19.5v-30.5c0-6.7-2.8-12.7-7.3-17.1C167.6,136.6,155.6,108.8,132.5,108.8z M143.9,201c0,2.5-2,4.5-4.5,4.5
			h-14c-2.5,0-4.5-2-4.5-4.5v-30.5h0c0-4.8,3.9-8.8,8.8-8.8h5.4c4.8,0,8.8,3.9,8.8,8.8V201z M132.5,146.7c-6.3,0-11.5-5.2-11.5-11.5
			c0-6.3,5.2-11.5,11.5-11.5c6.3,0,11.5,5.2,11.5,11.5S138.8,146.7,132.5,146.7z"/>
	</g>
</g>
</svg>
