<?xml version="1.0" encoding="utf-8"?>
<!-- Generator: Adobe Illustrator 21.0.0, SVG Export Plug-In . SVG Version: 6.00 Build 0)  -->
<svg version="1.1" id="Layer_1" xmlns="http://www.w3.org/2000/svg" xmlns:xlink="http://www.w3.org/1999/xlink" x="0px" y="0px"
	 viewBox="0 0 50.5 65.2" style="enable-background:new 0 0 50.5 65.2;" xml:space="preserve">
<style type="text/css">
	.st0{fill:none;stroke:#370355;stroke-width:2.5;stroke-miterlimit:10;}
	.st1{fill:none;stroke:#370355;stroke-width:2;stroke-linecap:round;stroke-miterlimit:10;stroke-dasharray:0,4;}
	
		.st2{fill:none;stroke:#370355;stroke-width:2;stroke-linecap:round;stroke-linejoin:round;stroke-miterlimit:10;stroke-dasharray:0,4;}
	.st3{fill:#370355;}
</style>
<g id="Group_73" transform="translate(1)">
	<g id="Group_72" transform="translate(0 0)">
		<g id="Group_69" transform="translate(0 3.065)">
			<path id="Path_132" class="st0" d="M45.5,59.9H3c-1.7,0-3-1.3-3-3V4.2c0-1.7,1.3-3,3-3h42.6c1.7,0,3,1.3,3,3v52.7
				C48.5,58.5,47.2,59.9,45.5,59.9z"/>
		</g>
		<rect id="Rectangle_84" x="7.6" y="13.2" class="st0" width="33.3" height="40.7"/>
		<g id="Group_71" transform="translate(8.844 18.781)">
			<g id="Group_70" transform="translate(0)">
				<line id="Line_31" class="st1" x1="-0.4" y1="33.5" x2="5.1" y2="20.5"/>
				<path id="Path_133" class="st2" d="M5.5,19.9l0.7-1.3l1,1.1"/>
				<line id="Line_32" class="st1" x1="8" y1="20.6" x2="12.7" y2="25.5"/>
				<path id="Path_134" class="st2" d="M13.1,25.9l1,1.1l0.4-1.4"/>
				<line id="Line_33" class="st1" x1="14.9" y1="24" x2="18.4" y2="11.1"/>
				<path id="Path_135" class="st2" d="M18.6,10.4L19,9l1.1,0.9"/>
				<line id="Line_34" class="st1" x1="21.6" y1="11" x2="25.1" y2="13.7"/>
				<path id="Path_136" class="st2" d="M25.8,14.3l1.2,0.9l0.4-1.4"/>
				<line id="Line_35" class="st1" x1="27.8" y1="12.5" x2="31.7" y2="0.5"/>
			</g>
		</g>
		<rect id="Rectangle_85" x="9.7" y="1.3" class="st3" width="30.4" height="5.8"/>
	</g>
</g>
</svg>
