<?xml version="1.0" encoding="utf-8"?>
<!-- Generator: Adobe Illustrator 21.0.0, SVG Export Plug-In . SVG Version: 6.00 Build 0)  -->
<svg version="1.1" id="Capa_1" xmlns="http://www.w3.org/2000/svg" xmlns:xlink="http://www.w3.org/1999/xlink" x="0px" y="0px"
	 viewBox="0 0 512 512" style="enable-background:new 0 0 512 512;" xml:space="preserve">
<style type="text/css">
	.st0{fill:#370355;}
</style>
<g>
	<path class="st0" d="M290.4,236.6c0-11.8,0.1-22.8,0-33.8c-0.1-8.9,2-11,10.7-11c3.4,0,6.9,0,11,0c0-7.2,0-14.1,0-20.9
		c0.1-7.5,2.3-9.8,9.8-9.8c7.8-0.1,15.6,0,24.2,0c0-3.7-0.1-7.1,0-10.4c0.1-5.5,3.1-9,7.5-8.9c4.6,0.1,7.3,3.3,7.5,8.9
		c0.1,3.2,0,6.5,0,10.4c9.4,0,18.2,0,27.1,0c8.5,0,10.7,2.2,10.7,10.6c0,6.5,0,13,0,20.1c3,0,5.5,0,8,0c7.4,0.1,9.9,2.5,10,9.8
		c0,0.9,0,1.8,0,2.7c0,75.2,0,150.5,0,225.7c0,21.7-11.5,33.2-33.3,33.2c-92.1,0-184.3,0-276.4,0c-10.1,0-12.1-2-12.1-12.1
		c0-71.4,0.1-142.8-0.1-214.2c0-6.5,2.4-9.8,8.1-12.4c33.3-14.6,66.4-29.5,99.5-44.3c10.2-4.5,14.6-1.7,14.6,9.5
		c0,8.5,0.1,17.1,0,25.6c-0.1,6.4-2.8,9.7-7.8,9.6c-4.7-0.1-7.2-3.4-7.2-9.5c0-5.8,0-11.6,0-18.2c-1.8,0.6-3.3,1-4.6,1.6
		c-27.7,12.3-55.3,24.7-83,37c-2.9,1.3-4.6,2.6-4.6,6.3c0.1,67.2,0.1,134.5,0.1,201.7c0,1.2,0.2,2.5,0.4,4c20,0,39.7,0,60.3,0
		c0-2.1,0-4.2,0-6.2c0-64,0-127.9,0-191.9c0-11.2,1.7-12.9,13-12.9c33.4,0,66.9,0,100.3,0C286.2,236.6,288.3,236.6,290.4,236.6z
		 M305.1,447.9c27,0,53.3,0,79.6,0c12.5,0,17.1-4.6,17.1-17.1c0-72.7,0-145.4,0-218.1c0-1.9,0-3.8,0-5.5c-32.8,0-64.7,0-96.8,0
		C305.1,287.5,305.1,367.4,305.1,447.9z M202.2,447.8c0-15.7,0-31,0-46.2c0-7.2,2.3-9.8,9.3-9.8c18.2-0.1,36.3-0.1,54.5,0
		c7,0,9.2,2.6,9.3,9.8c0,13.6,0,27.2,0,40.9c0,1.7,0,3.5,0,5c5.4,0,10.1,0,14.8,0c0-65.4,0-130.3,0-195.4c-34.8,0-69.4,0-103.7,0
		c0,65.5,0,130.6,0,195.7C191.6,447.8,196.5,447.8,202.2,447.8z M259.7,447.8c0-14,0-27.5,0-40.9c-14.3,0-28.2,0-42,0
		c0,13.8,0,27.3,0,40.9C231.8,447.8,245.6,447.8,259.7,447.8z M383.8,176.3c-18.9,0-37.4,0-56.3,0c0,5.3,0,10.2,0,15.1
		c19,0,37.6,0,56.3,0C383.8,186.1,383.8,181.3,383.8,176.3z"/>
	<path class="st0" d="M139.1,278.8c-2.7,0-5.5,0.2-8.2,0c-4.5-0.4-7.6-2.8-7.6-7.6c0.1-4.6,3.1-7,7.3-7.3c5.8-0.3,11.6-0.3,17.4,0
		c4.5,0.2,7.7,2.8,7.6,7.6c-0.1,4.8-3.4,7-7.9,7.3C144.9,279,142,278.8,139.1,278.8C139.1,278.8,139.1,278.8,139.1,278.8z"/>
	<path class="st0" d="M139.8,356.4c2.9,0,5.8-0.2,8.7,0.1c4.4,0.4,7.2,2.9,7.2,7.4c0,4.2-2.5,7-6.7,7.2c-6.3,0.3-12.7,0.4-19,0
		c-4.3-0.3-6.9-3.3-6.6-7.8c0.3-4.3,3.1-6.5,7.2-6.8C133.6,356.2,136.7,356.4,139.8,356.4z"/>
	<path class="st0" d="M139.2,402.1c-2.7,0-5.4,0.2-8.1,0c-4.5-0.3-7.7-2.5-7.8-7.3c-0.1-4.5,2.7-7.2,7-7.5c6.1-0.4,12.3-0.4,18.4,0
		c4.2,0.3,7.1,3,7,7.5c-0.2,4.7-3.3,7-7.8,7.3C145,402.3,142.1,402.1,139.2,402.1z"/>
	<path class="st0" d="M139.3,309.5c-3.1,0-6.2,0.3-9.3-0.1c-4.2-0.4-6.7-3-6.7-7.2c0-3.9,2.1-6.9,6.1-7.1c6.7-0.4,13.4-0.4,20.1,0
		c4.2,0.3,6.4,3.4,6.2,7.6c-0.3,4.2-3,6.5-7.1,6.8C145.5,309.7,142.4,309.5,139.3,309.5C139.3,309.5,139.3,309.5,139.3,309.5z"/>
	<path class="st0" d="M139.7,325.7c3.1,0,6.2-0.2,9.3,0c4.3,0.3,6.7,3.2,6.7,7.2c0,4-2.3,7.1-6.6,7.2c-6.3,0.3-12.7,0.3-19.1,0
		c-4.3-0.2-6.7-3-6.7-7.1c0-4.4,2.6-7.1,7.1-7.3C133.5,325.5,136.6,325.6,139.7,325.7C139.7,325.7,139.7,325.7,139.7,325.7z"/>
	<path class="st0" d="M374.1,382.4c-6.4,0.1-10.1-2.5-10.3-7.3c-0.2-4.7,3.6-7.7,9.8-7.8c6.4-0.1,10.1,2.6,10.3,7.3
		C384,379.4,380.3,382.4,374.1,382.4z"/>
	<path class="st0" d="M373.9,275.6c-6.4,0-10.1-2.6-10.2-7.4c-0.1-4.8,3.6-7.6,9.9-7.7c6.4,0,10.1,2.6,10.2,7.4
		C383.9,272.7,380.2,275.5,373.9,275.6z"/>
	<path class="st0" d="M373.5,239.7c-6-0.1-9.8-2.7-9.7-7.2c0.1-4.4,2.8-6.9,7.1-7.6c6.5-1.1,11.4,1,12.6,5.6
		C385,236.1,381,239.8,373.5,239.7z"/>
	<path class="st0" d="M373.5,346.6c-5.9-0.1-9.3-2.2-9.6-6.7c-0.3-4.4,2.1-7.1,6.5-8.1c6.1-1.4,11.5,0.7,13,5
		C385.3,342.6,381.3,346.6,373.5,346.6z"/>
	<path class="st0" d="M333.4,260.5c6.3,0,9.9,2.8,9.8,7.7c-0.1,4.8-3.7,7.4-10.1,7.4c-6.3,0-10-2.9-9.9-7.7
		C323.4,263.1,327,260.5,333.4,260.5z"/>
	<path class="st0" d="M333.2,346.6c-6.4,0-10-2.8-10-7.5c0-4.8,3.7-7.5,10.1-7.5c6.4,0,9.9,2.7,9.9,7.6
		C343.2,344,339.7,346.6,333.2,346.6z"/>
	<path class="st0" d="M333.2,382.4c-6.3,0-10-2.8-9.9-7.6c0.1-4.8,3.7-7.5,10.1-7.5c6.3,0,9.9,2.8,9.9,7.6
		C343.1,379.8,339.6,382.5,333.2,382.4z"/>
	<path class="st0" d="M333.2,239.7c-6.3,0-10-2.8-9.9-7.6c0.1-4.8,3.8-7.5,10.1-7.5c6.3,0,9.9,2.8,9.8,7.7
		C343.2,237.2,339.7,239.7,333.2,239.7z"/>
	<path class="st0" d="M333.2,294.8c6.9,1.4,10.2,4,10.1,8.7c-0.1,4.7-3.3,7.6-9.5,7.2c-3-0.2-6.5-1.1-8.7-3.1
		c-1.4-1.3-1.8-5.8-0.7-7.2C326.5,298,330.2,296.7,333.2,294.8z"/>
	<path class="st0" d="M333.5,403c6.5,0,9.9,2.6,9.8,7.5c-0.1,4.9-3.5,7.3-10.1,7.2c-6.3,0-10-2.9-9.9-7.6
		C323.4,405.5,327,403,333.5,403z"/>
	<path class="st0" d="M373.8,296.1c7.6,0,11.6,4.3,9.4,10c-2,5-6.3,4.8-10.5,4.7c-3.9,0-7.1-1.1-8.5-5.3
		C362.5,300,366.4,296.1,373.8,296.1z"/>
	<path class="st0" d="M373.2,417.8c-4.4,0.2-8.4-1.1-9.3-6.5c-0.6-3.8,1.4-6.7,5.1-7.9c5.8-1.9,12.2-0.1,14,3.9
		C385.7,413.2,381.5,417.8,373.2,417.8z"/>
	<path class="st0" d="M210.8,322c0-3.3-0.2-6.5,0.1-9.8c0.3-4.4,3-7.1,7.4-7.1c4.1,0,7,2.5,7.1,6.7c0.3,7,0.3,14.1,0,21.1
		c-0.2,4.2-3.2,6.7-7.2,6.6c-4.2-0.1-7-2.7-7.2-7.2C210.7,328.9,210.8,325.5,210.8,322z"/>
	<path class="st0" d="M251.1,322.4c0-3.4-0.2-6.9,0.1-10.3c0.3-4.2,2.9-6.8,7-6.9c4.3-0.1,7.3,2.4,7.5,6.9c0.3,6.8,0.3,13.7,0,20.6
		c-0.2,4.5-3.2,7.1-7.5,6.9c-4.2-0.2-6.9-2.9-7-7.5C251,328.9,251.1,325.6,251.1,322.4C251.1,322.4,251.1,322.4,251.1,322.4z"/>
	<path class="st0" d="M210.8,281.4c0-2-0.1-4,0-6c0.3-4.3,3-6.8,6.9-7c4-0.2,7.1,2,7.5,6.3c0.4,4.7,0.4,9.4,0,14
		c-0.4,4.2-3.5,6.5-7.5,6.2c-4-0.2-6.6-2.8-6.9-7.1C210.7,285.8,210.8,283.6,210.8,281.4z"/>
	<path class="st0" d="M210.9,363c0-2.3-0.3-4.7,0.1-7c0.6-3.8,3.1-6.2,7-6.2c3.8-0.1,6.8,2,7.2,5.9c0.4,4.6,0.5,9.4,0.1,14
		c-0.3,4.2-3.1,6.5-7.3,6.5c-4.5-0.1-6.8-2.8-7.2-7.2C210.7,367,210.8,365,210.9,363C210.8,363,210.9,363,210.9,363z"/>
	<path class="st0" d="M251.1,281.9c0-2-0.1-4,0-6c0.3-4.6,3.5-7.9,7.5-7.6c4.4,0.4,6.9,3,7.1,7.4c0.2,4,0.2,7.9,0,11.9
		c-0.2,4.4-2.9,7-7.2,7.3c-4,0.3-7-3.1-7.4-7.7C251,285.5,251.1,283.7,251.1,281.9z"/>
	<path class="st0" d="M251.2,362.8c0-2.3-0.3-4.7,0.1-7c0.6-3.9,3.3-6.1,7.2-6c3.9,0,6.7,2.2,7,6.1c0.4,4.6,0.4,9.4,0,14
		c-0.3,4.2-3.3,6.4-7.4,6.3c-3.9-0.1-6.4-2.4-6.9-6.3C251,367.6,251.2,365.2,251.2,362.8C251.2,362.8,251.2,362.8,251.2,362.8z"/>
</g>
<g>
	<path class="st0" d="M264.8,39.1c28.5,0.6,59.5,14.5,84,42.3c1.9,2.2,3,5.6,3.1,8.5c0.1,3.4-2.5,5.9-5.9,6.8c-3.8,1-7-0.2-9.6-3.2
		c-9.4-11.1-20.7-19.9-33.8-26.3C260.2,46,208.2,56.4,177,92.2c-1.5,1.8-3.4,3.5-5.5,4.4c-3.4,1.5-7.5-0.1-9.6-3
		c-2.4-3.3-2.6-7.6,0.5-10.7c6.6-6.7,13.2-13.6,20.6-19.4C203.5,47.4,230.1,38.9,264.8,39.1z"/>
	<path class="st0" d="M256.8,74.1c26.3,0.6,48.5,10.7,66,30.8c3.7,4.2,3.3,9.5-0.6,12.8c-3.7,3.1-8.8,2.5-12.4-1.4
		c-0.5-0.6-1.1-1.2-1.6-1.8C287.7,91.8,254.6,85,227,97.8c-9.6,4.4-17.7,10.8-24.6,18.7c-2.9,3.3-7.3,4-10.9,2
		c-3.5-1.9-5.3-6.1-3.9-9.9c0.7-1.9,2-3.8,3.4-5.3C208.6,84.2,230.4,74.4,256.8,74.1z"/>
	<path class="st0" d="M256.3,109.2c15.5,0.3,28.6,6,39.1,17.6c4.1,4.5,4.1,9.6,0.3,13.1c-3.8,3.6-8.8,3.1-13-1.3
		c-15.3-16.1-37.6-16.2-52.8-0.1c-4.2,4.4-9.1,5-13,1.4c-3.9-3.6-3.9-8.5,0.2-13.1C227.5,115.3,240.6,109.5,256.3,109.2z"/>
</g>
</svg>
