<?xml version="1.0" encoding="utf-8"?>
<!-- Generator: Adobe Illustrator 21.0.0, SVG Export Plug-In . SVG Version: 6.00 Build 0)  -->
<svg version="1.1" id="Layer_1" xmlns="http://www.w3.org/2000/svg" xmlns:xlink="http://www.w3.org/1999/xlink" x="0px" y="0px"
	 viewBox="0 0 69.2 59.7" style="enable-background:new 0 0 69.2 59.7;" xml:space="preserve">
<style type="text/css">
	.st0{fill:none;stroke:#370355;stroke-width:2;stroke-miterlimit:10;}
	.st1{fill:none;stroke:#370355;stroke-width:2.2;stroke-miterlimit:10;}
	.st2{fill:#370355;}
</style>
<g id="Group_78" transform="translate(1 1)">
	<g id="Group_77">
		<path id="Path_143" class="st0" d="M64.9,48.1c1.3-0.1,2.3-1.1,2.3-2.4l0,0V5.4c0.1-2.4-1.8-4.4-4.2-4.6H4.1C1.7,0.9-0.1,3,0,5.4
			v40.2l0,0C0,46.9,1,48,2.3,48L64.9,48.1L64.9,48.1z"/>
		<path id="Path_144" class="st1" d="M64.9,48.1c1.3-0.1,2.3-1.1,2.3-2.4l0,0V5.4c0.1-2.4-1.8-4.4-4.2-4.6H4.1C1.7,0.9-0.1,3,0,5.4
			v40.2l0,0C0,46.9,1,48,2.3,48L64.9,48.1L64.9,48.1z"/>
		<g id="Group_76" transform="translate(7.173 9.586)">
			<rect id="Rectangle_87" x="-0.2" y="17.4" class="st2" width="29.8" height="1.8"/>
			<rect id="Rectangle_88" x="33" y="17.4" class="st2" width="20" height="1.8"/>
			<rect id="Rectangle_89" x="33" y="9" class="st2" width="20" height="1.8"/>
			<rect id="Rectangle_90" x="33" y="0.6" class="st2" width="20" height="1.8"/>
			<rect id="Rectangle_91" x="33" y="25.8" class="st2" width="20" height="1.8"/>
			<rect id="Rectangle_92" x="-0.2" y="9" class="st2" width="30" height="1.8"/>
			<rect id="Rectangle_93" x="-0.2" y="25.8" class="st2" width="29.8" height="1.8"/>
		</g>
		<path id="Path_145" class="st2" d="M41,55.5v-7.4H26.2v7.4h-4.1c-1.3,0-2.3,1-2.3,2.3c0,0,0,0,0,0h27.7c0-1.3-1-2.3-2.3-2.3
			c0,0,0,0,0,0H41z"/>
	</g>
</g>
</svg>
