<?xml version="1.0" encoding="utf-8"?>
<!-- Generator: Adobe Illustrator 21.0.0, SVG Export Plug-In . SVG Version: 6.00 Build 0)  -->
<svg version="1.1" id="Capa_1" xmlns="http://www.w3.org/2000/svg" xmlns:xlink="http://www.w3.org/1999/xlink" x="0px" y="0px"
	 viewBox="0 0 512 512" style="enable-background:new 0 0 512 512;" xml:space="preserve">
<style type="text/css">
	.st0{fill:#370355;}
	.st1{fill:none;stroke:#370355;stroke-width:15;stroke-linecap:round;stroke-linejoin:round;stroke-miterlimit:10;}
</style>
<g>
	<g>
		<path class="st0" d="M315.9,419.8H311v-1.2c-1.7,0-3.4,0.4-5,1.4c-23.3,13.7-49.3,22.2-76.2,25l23.5-54.3
			c10.2-23.5,35.6-36.2,60.5-30.4l10.5,2.5c5.4,1.3,10.8-2.1,12-7.5c1.3-5.4-2.1-10.8-7.5-12l-10.5-2.5c-34.3-8-69.4,9.6-83.4,42
			l-27.4,63.3c-14.1-0.2-27.8-1.9-41-5l-12.6-42c-9.6-32,5.2-65.8,35.2-80.4l10.1-4.9c8.9-4.3,15.6-12.2,18.4-21.7
			c2.9-9.5,1.6-19.8-3.4-28.3c-6.4-10.8-18.1-17.6-30.7-17.6h-23.9c-7.5,0-14-4-17.4-10.6c-3.4-6.7-2.8-14.3,1.5-20.3l21.6-30
			c10.5-14.6,9.8-34.5-1.7-48.4l-41-49.3C148.8,73.7,178.5,66,210,66c5.9,0,11.9,0.3,17.8,0.8c5.5,0.5,10.4-3.5,10.9-9
			c0.5-5.5-3.5-10.4-9-10.9c-6.5-0.6-13.1-0.9-19.7-0.9c-39,0-75.5,10.7-106.8,29.3c-0.7,0.3-1.4,0.7-2.1,1.2
			C40.5,113.4,0,180.1,0,256c0,96.8,65.9,178.6,155.2,202.7c0.5,0.2,1,0.3,1.5,0.4c17,4.5,34.9,6.9,53.3,6.9
			c37.4,0,74.1-9.9,106.2-28.8c4.8-2.8,6.4-8.9,3.6-13.7C318.8,421.9,317.4,420.7,315.9,419.8z M20,256c0-66,33.9-124.3,85.1-158.3
			l43.1,51.8c5.7,6.8,6.1,16.7,0.8,23.9l-21.6,30c-8.7,12.1-9.9,27.9-3.1,41.1c6.8,13.3,20.3,21.5,35.2,21.5h23.9
			c5.5,0,10.7,3,13.4,7.7c2.2,3.8,2.7,8.2,1.5,12.4c-1.3,4.2-4.1,7.6-8.1,9.5l-10.1,4.9c-38.8,19-58,62.8-45.6,104.1l8.8,29.3
			C71.4,407,20,337.4,20,256z"/>
	</g>
</g>
<g>
	<g>
		<path class="st0" d="M330.5,158.6c-27.6-27.6-81.5-30.8-119.7-30.8c-4,0-7.2,3.2-7.2,7.2c0,38.2,3.2,92.1,30.8,119.7
			c11.6,11.6,29.5,16.8,47.2,16.8c19.2,0,38.3-6.1,49-16.9C351,234.2,354.8,182.9,330.5,158.6z M320.4,244.6
			c-15.3,15.3-57.9,17.9-75.8,0c-22.3-22.3-26.1-67.5-26.5-102.4c34.9,0.4,80.1,4.3,102.4,26.5C338.3,186.7,335.7,229.3,320.4,244.6
			z"/>
	</g>
</g>
<g>
	<g>
		<path class="st0" d="M484.5,48.8c-38.2,0-92.1,3.2-119.7,30.8c-24.3,24.3-20.5,75.6,0,96.1c10.7,10.7,29.7,16.8,48.9,16.8
			c17.7,0,35.5-5.2,47.2-16.8c27.6-27.6,30.8-81.5,30.8-119.7C491.7,52.1,488.5,48.8,484.5,48.8z M450.8,165.6
			c-17.9,17.9-60.5,15.3-75.8,0c-15.3-15.3-17.9-57.9,0-75.8c22.3-22.3,67.5-26.1,102.4-26.5C476.9,98.1,473,143.3,450.8,165.6z"/>
	</g>
</g>
<g>
	<path class="st0" d="M362,447.5c-4.1,0-7.5-3.4-7.5-7.5V242c0-60.4,38.5-108.9,70.8-139c3-2.8,7.8-2.7,10.6,0.4
		c2.8,3,2.7,7.8-0.4,10.6C405.4,142,369.5,187,369.5,242v198C369.5,444.1,366.1,447.5,362,447.5z"/>
</g>
<g>
	<path class="st0" d="M361.7,439.8c-4.1,0-7.5-3.4-7.5-7.5V311c0-55.6-61.2-103.5-97.7-127.1c-3.5-2.2-4.5-6.9-2.2-10.4
		c2.2-3.5,6.9-4.5,10.4-2.2c39,25.2,104.5,77,104.5,139.7v121.3C369.2,436.5,365.8,439.8,361.7,439.8z"/>
</g>
<path class="st1" d="M901.1,108.4c-29.3,27.3-68.4,74.7-68.4,133.6c0,94,0,198,0,198"/>
<path class="st1" d="M731.2,177.6c38.1,24.6,101.1,74.3,101.1,133.4c0,84.7,0,121.3,0,121.3"/>
</svg>
