<svg xmlns="http://www.w3.org/2000/svg" width="48.495" height="63.652" viewBox="0 0 48.495 63.652">
    <defs>
        <style>
            .prefix__cls-1{fill:none;stroke:#9d9d9d;stroke-miterlimit:10;stroke-width:2px}
        </style>
    </defs>
    <g id="prefix__Group_75" data-name="Group 75" transform="translate(1 1.184)">
        <path id="prefix__Path_138" d="M1380.144 66.095l-12.064 8.738-12.064-8.738a27.036 27.036 0 0 1-11.216-21.911V13.6a139.108 139.108 0 0 0 46.5 0v30.584a27.152 27.152 0 0 1-11.156 21.911z" class="prefix__cls-1" data-name="Path 138" transform="translate(-1344.8 -13.6)"/>
        <path id="prefix__Path_139" d="M1369.6 41.185v-1.394a5.767 5.767 0 0 1 5.791-5.791 5.767 5.767 0 0 1 5.791 5.791v1.18" class="prefix__cls-1" data-name="Path 139" transform="translate(-1352.17 -18.373)"/>
        <path id="prefix__Path_140" d="M1380.2 47.4h-14.209a1.42 1.42 0 0 0-1.394 1.394v11.528a1.42 1.42 0 0 0 1.394 1.394h14.209a1.419 1.419 0 0 0 1.394-1.394V48.794a1.384 1.384 0 0 0-1.394-1.394z" class="prefix__cls-1" data-name="Path 140" transform="translate(-1349.851 -24.588)"/>
        <path id="prefix__Line_37" d="M8.086 0L0 0" class="prefix__cls-1" data-name="Line 37" transform="translate(0 10.564)"/>
        <circle id="prefix__Ellipse_46" cx="2.087" cy="2.087" r="2.087" class="prefix__cls-1" data-name="Ellipse 46" transform="translate(8.086 8.477)"/>
        <path id="prefix__Line_38" d="M5.217 0L0 0" class="prefix__cls-1" data-name="Line 38" transform="translate(0 19.107)"/>
        <circle id="prefix__Ellipse_47" cx="2.087" cy="2.087" r="2.087" class="prefix__cls-1" data-name="Ellipse 47" transform="translate(5.282 17.02)"/>
        <g id="prefix__Group_74" data-name="Group 74" transform="translate(33.258 34.105)">
            <path id="prefix__Line_39" d="M0 0L4.956 0" class="prefix__cls-1" data-name="Line 39" transform="translate(4.239 10.629)"/>
            <circle id="prefix__Ellipse_48" cx="2.087" cy="2.087" r="2.087" class="prefix__cls-1" data-name="Ellipse 48" transform="translate(0 8.543)"/>
            <path id="prefix__Line_40" d="M0 0L5.282 0" class="prefix__cls-1" data-name="Line 40" transform="translate(6.978 2.087)"/>
            <circle id="prefix__Ellipse_49" cx="2.087" cy="2.087" r="2.087" class="prefix__cls-1" data-name="Ellipse 49" transform="translate(2.869)"/>
        </g>
        <path id="prefix__Path_141" d="M1376.4 59.392l1.233-4.021a1.77 1.77 0 1 1 1.93 0l1.233 4.021z" data-name="Path 141" transform="translate(-1355.324 -26.768)" style="fill:#9d9d9d"/>
    </g>
</svg>
