<svg xmlns="http://www.w3.org/2000/svg" width="71.254" height="59.69" viewBox="0 0 71.254 59.69">
    <defs>
        <style>
            .prefix__cls-1{fill:none;stroke:#9d9d9d;stroke-miterlimit:10;stroke-width:2px}.prefix__cls-2{fill:#9d9d9d}
        </style>
    </defs>
    <g id="prefix__Group_78" data-name="Group 78" transform="translate(1 1)">
        <g id="prefix__Group_77" data-name="Group 77">
            <path id="prefix__Path_143" d="M68.407 58.947a2.453 2.453 0 0 0 2.348-2.478V15a4.522 4.522 0 0 0-4.3-4.7H5.8A4.522 4.522 0 0 0 1.5 15v41.4a2.453 2.453 0 0 0 2.348 2.478h64.559z" class="prefix__cls-1" data-name="Path 143" transform="translate(-1.5 -10.3)"/>
            <path id="prefix__Path_144" d="M68.407 58.947a2.453 2.453 0 0 0 2.348-2.478V15a4.522 4.522 0 0 0-4.3-4.7H5.8A4.522 4.522 0 0 0 1.5 15v41.4a2.453 2.453 0 0 0 2.348 2.478h64.559z" class="prefix__cls-1" data-name="Path 144" transform="translate(-1.5 -10.3)"/>
            <g id="prefix__Group_76" data-name="Group 76" transform="translate(7.173 9.586)">
                <path id="prefix__Rectangle_87" d="M0 0H30.649V1.854H0z" class="prefix__cls-2" data-name="Rectangle 87" transform="translate(0 17.346)"/>
                <path id="prefix__Rectangle_88" d="M0 0H20.607V1.854H0z" class="prefix__cls-2" data-name="Rectangle 88" transform="translate(34.236 17.346)"/>
                <path id="prefix__Rectangle_89" d="M0 0H20.607V1.854H0z" class="prefix__cls-2" data-name="Rectangle 89" transform="translate(34.236 8.673)"/>
                <path id="prefix__Rectangle_90" d="M0 0H20.607V1.854H0z" class="prefix__cls-2" data-name="Rectangle 90" transform="translate(34.236)"/>
                <path id="prefix__Rectangle_91" d="M0 0H20.607V1.854H0z" class="prefix__cls-2" data-name="Rectangle 91" transform="translate(34.236 25.954)"/>
                <path id="prefix__Rectangle_92" d="M0 0H30.883V1.854H0z" class="prefix__cls-2" data-name="Rectangle 92" transform="translate(0 8.673)"/>
                <path id="prefix__Rectangle_93" d="M0 0H30.649V1.854H0z" class="prefix__cls-2" data-name="Rectangle 93" transform="translate(0 25.954)"/>
            </g>
            <path id="prefix__Path_145" d="M54.646 92.53V84.9h-15.26v7.63h-4.173a2.407 2.407 0 0 0-2.413 2.413h28.562a2.407 2.407 0 0 0-2.412-2.413z" class="prefix__cls-2" data-name="Path 145" transform="translate(-12.389 -36.253)"/>
        </g>
    </g>
</svg>
