<svg xmlns="http://www.w3.org/2000/svg" width="70.863" height="65.581" viewBox="0 0 70.863 65.581">
    <defs>
        <style>
            .prefix__cls-1{fill:none;stroke:#9d9d9d;stroke-miterlimit:10;stroke-width:2px}
        </style>
    </defs>
    <g id="prefix__Group_62" data-name="Group 62" transform="translate(1 1)">
        <path id="prefix__Path_117" d="M569.9 11.473a9.172 9.172 0 0 0-17.346-1.7c-.261 0-.522-.065-.783-.065a9.184 9.184 0 0 0-9.195 9.195 13.721 13.721 0 0 0 .13 1.63 8.055 8.055 0 0 0-7.108 8.021v12.982a8.042 8.042 0 0 0 6 7.76 9.756 9.756 0 0 0-.522 3.065 9.184 9.184 0 0 0 9.195 9.195 8.249 8.249 0 0 0 1.826-.2 9.2 9.2 0 0 0 18-2.674z" class="prefix__cls-1" data-name="Path 117" transform="translate(-535.6 -4.3)"/>
        <path id="prefix__Path_118" d="M588.5 60.742a9.172 9.172 0 0 0 17.346 1.7c.261 0 .522.065.783.065a9.184 9.184 0 0 0 9.195-9.195 13.721 13.721 0 0 0-.13-1.63 8.055 8.055 0 0 0 7.108-8.021V30.745a8.042 8.042 0 0 0-6-7.76 9.755 9.755 0 0 0 .522-3.065 9.184 9.184 0 0 0-9.195-9.195 8.249 8.249 0 0 0-1.826.2 9.2 9.2 0 0 0-18 2.674z" class="prefix__cls-1" data-name="Path 118" transform="translate(-553.934 -4.335)"/>
        <path id="prefix__Path_119" d="M556.6 28.782h4.648V22.7" class="prefix__cls-1" data-name="Path 119" transform="translate(-542.254 -8.407)"/>
        <circle id="prefix__Ellipse_36" cx="2.467" cy="2.467" r="2.467" class="prefix__cls-1" data-name="Ellipse 36" transform="translate(16.526 9.359)"/>
        <path id="prefix__Path_120" d="M562.5 28.782h11.074V22.7" class="prefix__cls-1" data-name="Path 120" transform="translate(-544.769 -8.407)"/>
        <circle id="prefix__Ellipse_37" cx="2.467" cy="2.467" r="2.467" class="prefix__cls-1" data-name="Ellipse 37" transform="translate(26.338 9.359)"/>
        <path id="prefix__Line_26" d="M0 16.698L0 0" class="prefix__cls-1" data-name="Line 26" transform="translate(28.461 31.22)"/>
        <circle id="prefix__Ellipse_38" cx="2.467" cy="2.467" r="2.467" class="prefix__cls-1" data-name="Ellipse 38" transform="translate(25.994 47.918)"/>
        <circle id="prefix__Ellipse_39" cx="2.467" cy="2.467" r="2.467" class="prefix__cls-1" data-name="Ellipse 39" transform="translate(9.411 17.908)"/>
        <path id="prefix__Path_121" d="M555.6 71h4.476v5.91" class="prefix__cls-1" data-name="Path 121" transform="translate(-541.828 -28.992)"/>
        <circle id="prefix__Ellipse_40" cx="2.467" cy="2.467" r="2.467" class="prefix__cls-1" data-name="Ellipse 40" transform="translate(8.837 39.541)"/>
        <path id="prefix__Line_27" d="M0 0L20.599 0" class="prefix__cls-1" data-name="Line 27" transform="translate(13.772 31.22)"/>
        <circle id="prefix__Ellipse_41" cx="2.467" cy="2.467" r="2.467" class="prefix__cls-1" data-name="Ellipse 41" transform="translate(8.837 28.753)"/>
        <circle id="prefix__Ellipse_42" cx="2.467" cy="2.467" r="2.467" class="prefix__cls-1" data-name="Ellipse 42" transform="translate(15.78 47.918)"/>
        <path id="prefix__Path_122" d="M563.4 54.932h6.2V33.3" class="prefix__cls-1" data-name="Path 122" transform="translate(-545.152 -12.924)"/>
        <path id="prefix__Path_123" d="M609.19 20.3a9.131 9.131 0 0 1-9.39 8.934" class="prefix__cls-1" data-name="Path 123" transform="translate(-557.934 -9.866)"/>
        <path id="prefix__Path_124" d="M604.1 72.6a7.431 7.431 0 0 1 7.434 7.434" class="prefix__cls-1" data-name="Path 124" transform="translate(-559.43 -28.061)"/>
        <path id="prefix__Path_125" d="M617.8 57.1a7.431 7.431 0 0 1 7.434 7.434" class="prefix__cls-1" data-name="Path 125" transform="translate(-564.197 -22.669)"/>
        <path id="prefix__Path_126" d="M607.234 58.234A7.431 7.431 0 0 1 599.8 50.8" class="prefix__cls-1" data-name="Path 126" transform="translate(-557.934 -20.477)"/>
        <path id="prefix__Path_127" d="M623.134 44.634A7.431 7.431 0 0 1 615.7 37.2" class="prefix__cls-1" data-name="Path 127" transform="translate(-563.466 -15.746)"/>
    </g>
</svg>
