<svg xmlns="http://www.w3.org/2000/svg" width="43.605" height="67.211" viewBox="0 0 43.605 67.211">
    <defs>
        <style>
            .prefix__cls-1{fill:none;stroke:#9d9d9d;stroke-miterlimit:10;stroke-width:2px}.prefix__cls-2{fill:#9d9d9d}
        </style>
    </defs>
    <g id="prefix__Group_60" data-name="Group 60" transform="translate(1 1)">
        <ellipse id="prefix__Ellipse_34" cx="9.651" cy="9.716" class="prefix__cls-1" data-name="Ellipse 34" rx="9.651" ry="9.716" transform="translate(11.151)"/>
        <path id="prefix__Path_112" d="M328.7 49.3h-41.6v8.412l3.456.065V83.34h34.692V57.712h3.452z" class="prefix__cls-1" data-name="Path 112" transform="translate(-287.1 -18.129)"/>
        <path id="prefix__Line_24" d="M0 0L5.608 7.108" class="prefix__cls-1" data-name="Line 24" transform="translate(24.454 24.063)"/>
        <circle id="prefix__Ellipse_35" cx="2.282" cy="2.282" r="2.282" class="prefix__cls-2" data-name="Ellipse 35" transform="translate(22.172 21.781)"/>
        <path id="prefix__Path_113" d="M292.4 62.265L327.092 81.5V62.2z" class="prefix__cls-2" data-name="Path 113" transform="translate(-288.944 -22.617)"/>
        <path id="prefix__Line_25" d="M0 0L34.692 0" class="prefix__cls-1" data-name="Line 25" transform="translate(3.456 39.648)"/>
        <g id="prefix__Group_59" data-name="Group 59" transform="translate(2.413 16.107)">
            <path id="prefix__Path_114" d="M327.449 41.2a18.212 18.212 0 0 0-5.543-12.521 19.911 19.911 0 0 0-3.2-2.478c-.391.522-.783 1.043-1.239 1.565a17.4 17.4 0 0 1 3.065 2.348 16.5 16.5 0 0 1 4.891 10.173h-32.54a16.5 16.5 0 0 1 4.891-10.173 15.3 15.3 0 0 1 3.065-2.348A10.07 10.07 0 0 1 299.6 26.2a19.107 19.107 0 0 0-3.2 2.478 18.212 18.212 0 0 0-5.535 12.522l-.065 1.043h36.649z" class="prefix__cls-2" data-name="Path 114" transform="translate(-290.8 -26.2)"/>
        </g>
    </g>
</svg>
