<svg xmlns="http://www.w3.org/2000/svg" width="52.539" height="65.168" viewBox="0 0 52.539 65.168">
    <defs>
        <style>
            .prefix__cls-1,.prefix__cls-2,.prefix__cls-3{fill:none;stroke:#9d9d9d;stroke-miterlimit:10;stroke-width:2px}.prefix__cls-2,.prefix__cls-3{stroke-linecap:round;stroke-dasharray:0 4}.prefix__cls-3{stroke-linejoin:round}
        </style>
    </defs>
    <g id="prefix__Group_73" data-name="Group 73" transform="translate(1)">
        <g id="prefix__Group_72" data-name="Group 72">
            <g id="prefix__Group_69" data-name="Group 69" transform="translate(0 3.065)">
                <path id="prefix__Path_132" d="M1125.109 68.7h-44.279a3.131 3.131 0 0 1-3.13-3.13V10.73a3.131 3.131 0 0 1 3.13-3.13h44.279a3.131 3.131 0 0 1 3.13 3.13v54.843a3.131 3.131 0 0 1-3.13 3.127z" class="prefix__cls-1" data-name="Path 132" transform="translate(-1077.7 -7.6)"/>
            </g>
            <path id="prefix__Rectangle_84" d="M0 0H34.672V42.367H0z" class="prefix__cls-1" data-name="Rectangle 84" transform="translate(7.933 12.433)"/>
            <g id="prefix__Group_71" data-name="Group 71" transform="translate(8.844 18.781)">
                <g id="prefix__Group_70" data-name="Group 70">
                    <path id="prefix__Line_31" d="M0 13.504L5.698 0" class="prefix__cls-2" data-name="Line 31" transform="translate(0 20.802)"/>
                    <path id="prefix__Path_133" d="M1100.6 61.869l.717-1.369 1.043 1.109" class="prefix__cls-3" data-name="Path 133" transform="translate(-1094.511 -41.719)"/>
                    <path id="prefix__Line_32" d="M0 0L4.891 5.086" class="prefix__cls-2" data-name="Line 32" transform="translate(8.698 20.867)"/>
                    <path id="prefix__Path_134" d="M1112.8 72.026l1.043 1.109.391-1.435" class="prefix__cls-3" data-name="Path 134" transform="translate(-1098.755 -45.616)"/>
                    <path id="prefix__Line_33" d="M0 13.433L3.652 0" class="prefix__cls-2" data-name="Line 33" transform="translate(15.871 11.02)"/>
                    <path id="prefix__Path_135" d="M1121.6 46.635l.391-1.435 1.174.913" class="prefix__cls-3" data-name="Path 135" transform="translate(-1101.817 -36.397)"/>
                    <path id="prefix__Line_34" d="M0 0L3.652 2.804" class="prefix__cls-2" data-name="Line 34" transform="translate(22.849 10.89)"/>
                    <path id="prefix__Path_136" d="M1133 53.322l1.239.913.456-1.435" class="prefix__cls-3" data-name="Path 136" transform="translate(-1105.782 -39.041)"/>
                    <path id="prefix__Line_35" d="M0 12.455L4.009 0" class="prefix__cls-2" data-name="Line 35" transform="translate(29.37)"/>
                </g>
            </g>
            <path id="prefix__Rectangle_85" d="M0 0H31.627V6.065H0z" data-name="Rectangle 85" transform="translate(10.108)" style="fill:#9d9d9d"/>
        </g>
    </g>
</svg>
