<svg xmlns="http://www.w3.org/2000/svg" width="136.432" height="34.727" viewBox="0 0 136.432 34.727">
  <g id="Group_269" data-name="Group 269" transform="translate(-706.991 -3740.833)">
    <path id="Path_267" data-name="Path 267" d="M194.5,373.379v.043a1.871,1.871,0,0,0,3.742,0v-.043a1.871,1.871,0,0,0-3.742,0m-1.868,6.971v.043a1.871,1.871,0,0,0,3.742,0v-.043a1.871,1.871,0,0,0-3.742,0Zm-1.868,6.971v.043a1.871,1.871,0,0,0,3.742,0v-.043a1.871,1.871,0,0,0-3.742,0Zm-1.868,6.971v.021h-84a2.951,2.951,0,0,1-2.989-3.136V369.566a2.951,2.951,0,0,1,2.989-3.136h91.467v.021a1.872,1.872,0,0,0,3.742,0v-.021h10.04a2.951,2.951,0,0,1,2.989,3.136v21.611a2.951,2.951,0,0,1-2.989,3.136H192.634v-.021a1.871,1.871,0,0,0-3.742,0ZM114.38,386.3a1.656,1.656,0,0,0,3.311,0V375.838h3.183a1.525,1.525,0,1,0,0-3.05H111.2a1.525,1.525,0,1,0,0,3.05h3.183Zm10.03,0a1.656,1.656,0,0,0,3.311,0v-3.007l1.892-1.762,4.3,5.628a1.672,1.672,0,0,0,1.4.795,1.6,1.6,0,0,0,1.677-1.611,1.761,1.761,0,0,0-.451-1.16l-4.623-5.8,4.236-3.953a1.656,1.656,0,0,0,.6-1.246,1.491,1.491,0,0,0-1.527-1.525,1.867,1.867,0,0,0-1.4.644l-6.107,6.058v-5.048a1.656,1.656,0,0,0-3.311,0Zm19,0a1.656,1.656,0,0,0,3.311,0V375.838H149.9a1.525,1.525,0,1,0,0-3.05h-9.677a1.525,1.525,0,1,0,0,3.05h3.183Zm8.05-.215v.043a1.871,1.871,0,0,0,3.742,0v-.043a1.871,1.871,0,0,0-3.742,0Zm13.482,2a10.02,10.02,0,0,0,5.268-1.5,2.235,2.235,0,0,0,1.162-2.105v-3.652a1.642,1.642,0,0,0-1.656-1.654h-3.785a1.44,1.44,0,0,0-1.441,1.439,1.422,1.422,0,0,0,1.441,1.418h2.237v2.148a5.289,5.289,0,0,1-3.118.9,4.508,4.508,0,0,1-4.559-4.769v-.043a4.519,4.519,0,0,1,4.322-4.683,5.274,5.274,0,0,1,3.29,1.031,1.614,1.614,0,0,0,1.011.344,1.633,1.633,0,0,0,1.634-1.633,1.653,1.653,0,0,0-.688-1.332,8.347,8.347,0,0,0-5.139-1.461,7.722,7.722,0,0,0-7.892,7.776v.043A7.53,7.53,0,0,0,164.942,388.083Zm10.552-.258h8.451a1.468,1.468,0,0,0,1.484-1.461,1.486,1.486,0,0,0-1.484-1.482h-6.817v-3.158h5.742a1.468,1.468,0,0,0,1.484-1.461,1.486,1.486,0,0,0-1.484-1.482h-5.742v-3.05h6.709a1.468,1.468,0,0,0,1.484-1.461,1.486,1.486,0,0,0-1.484-1.482h-8.344a1.642,1.642,0,0,0-1.656,1.654v11.729A1.642,1.642,0,0,0,175.494,387.825Zm-71.679-24.707H211.022a6.035,6.035,0,0,1,5.424,4.8v24.906a6.036,6.036,0,0,1-5.424,4.8l-107.194.22a6.035,6.035,0,0,1-5.424-4.8l-.014-25.127A6.035,6.035,0,0,1,103.814,363.118Z" transform="translate(608.601 3377.715)" fill="#fff" fill-rule="evenodd"/>
    <g id="Group_231" data-name="Group 231" transform="translate(815.605 3744.269)">
      <path id="Path_269" data-name="Path 269" d="M.679,15.345l-.026.026A2.292,2.292,0,0,0,0,16.944,2.229,2.229,0,0,0,2.226,19.17,2.309,2.309,0,0,0,3.8,18.517l1.473-1.473,3.509-3.509,4.244-4.244L14.717,7.6v2.864a2.229,2.229,0,0,0,2.226,2.226,2.246,2.246,0,0,0,1.573-.653,2.3,2.3,0,0,0,.653-1.573V2.341c0-.038,0-.076,0-.114h0a2.142,2.142,0,0,0-.062-.5L19.1,1.691v0a2.46,2.46,0,0,0-.088-.276,1.944,1.944,0,0,0-.419-.684Q18.554.69,18.515.655a2.263,2.263,0,0,0-.539-.391A1.968,1.968,0,0,0,16.942,0H8.707A2.292,2.292,0,0,0,7.134.655a2.275,2.275,0,0,0-.653,1.573A2.246,2.246,0,0,0,7.134,3.8a2.3,2.3,0,0,0,1.573.653h2.864L10.387,5.637,6.143,9.881l-3.68,3.68C1.87,14.154,1.265,14.744.679,15.345Z" transform="translate(13.556 0) rotate(45)" fill="#fff" stroke="#d33c81" stroke-width="1"/>
    </g>
  </g>
</svg>
