<svg xmlns="http://www.w3.org/2000/svg" width="244.071" height="63.69" viewBox="0 0 244.071 63.69">
    <defs>
        <style>
            .prefix__cls-1{fill:#fff}
        </style>
    </defs>
    <g id="prefix__Group_263" data-name="Group 263" transform="translate(-117.5 -151.8)">
        <path id="prefix__Path_291" d="M245.1 191.4v29.082h11.924V191.4a5.233 5.233 0 0 1 5.38-5.38c1.818 0 4.653-.073 4.653-.073v-11.776s-3.49-.073-4.653-.073A17.116 17.116 0 0 0 245.1 191.4z" class="prefix__cls-1" data-name="Path 291" transform="translate(-34.828 -6.085)"/>
        <g id="prefix__Group_261" data-name="Group 261" transform="translate(285.885 167.795)">
            <path id="prefix__Path_293" d="M393.3 187.9a20.912 20.912 0 0 0-4.29-7.416 19.9 19.9 0 0 0-7.052-4.944 24.57 24.57 0 0 0-9.6-1.745 22.566 22.566 0 0 0-16.722 7.052 22.731 22.731 0 0 0-4.8 7.561 24.438 24.438 0 0 0-1.745 9.161 25.236 25.236 0 0 0 1.745 9.524 23.1 23.1 0 0 0 4.944 7.561 22.368 22.368 0 0 0 7.561 4.944 25.126 25.126 0 0 0 9.452 1.745A23.141 23.141 0 0 0 385.6 218a27.3 27.3 0 0 0 6.543-6.035l-8.8-6.616a14.088 14.088 0 0 1-3.563 3.635 11.763 11.763 0 0 1-6.762 1.89h-.509a14.385 14.385 0 0 1-2.545-.291c-.218-.073-.436-.073-.654-.145-.073 0-.218-.073-.291-.073a11.21 11.21 0 0 1-3.708-1.89 12.449 12.449 0 0 1-2.836-3.272 14.451 14.451 0 0 1-1.527-4.726h33.663a4.472 4.472 0 0 1 .073-1.018 5.151 5.151 0 0 1 .073-1.018v-1.091a29.966 29.966 0 0 0-1.457-9.45zm-31.772 3.926a11.646 11.646 0 0 1 5.239-6.826c.218-.145.436-.218.654-.364a11.518 11.518 0 0 1 5.017-1.091 13.108 13.108 0 0 1 4.726.8 10.579 10.579 0 0 1 3.272 2.108 10.428 10.428 0 0 1 2.036 2.763 11.088 11.088 0 0 1 .654 1.818 3.648 3.648 0 0 1 .145.872h-21.738z" class="prefix__cls-1" data-name="Path 293" transform="translate(-349.1 -173.8)"/>
        </g>
        <path id="prefix__Path_294" d="M134.658 151.8a17.19 17.19 0 0 0-17.158 17.158V214.4h12.869v-24.648h15.7v-11.778h-15.7V169.1a5.523 5.523 0 0 1 5.526-5.526h14.541V151.8z" class="prefix__cls-1" data-name="Path 294"/>
        <path id="prefix__Path_295" d="M306.284 177.529c-3.563-1.018-8.943-2.981-8.8-7.489.291-4.58 3.853-6.253 7.416-6.18 2.835 0 5.744 1.236 8.216 5.235l9.888-6.4c-4.653-6.98-10.978-10.4-18.031-10.4-9.379 0-19.412 5.671-19.63 17.885-.145 12.287 11.706 16.577 17.958 18.1 4.29 1.091 9.815 3.417 9.452 9.234-.145 4-3.49 6.543-8.288 6.471-3.49 0-8.07-1.454-10.978-7.707l-9.888 6.4c5.962 11.124 14.614 12.942 21.375 12.942 9.742 0 19.267-5.6 19.776-17.522.583-13.662-9.087-18.17-18.466-20.569z" class="prefix__cls-1" data-name="Path 295" transform="translate(-45.337 -.136)"/>
        <path id="prefix__Path_296" d="M435.786 199.524v-19.63h6.614v-9.742h-6.616V158.3h-11.922v11.851H419.5v9.815h4.362v19.849c-.436 12.142 9.088 16.5 20.139 14.614v-10.4c-5.234.73-8.215-1.529-8.215-4.505z" class="prefix__cls-1" data-name="Path 296" transform="translate(-82.43 -1.774)"/>
        <g id="prefix__Group_262" data-name="Group 262" transform="translate(154.652 167.868)">
            <path id="prefix__Path_297" d="M192.3 210.325a12.651 12.651 0 0 1 0-25.3 12.454 12.454 0 0 1 6.325 1.672l5.526-9.6a23.308 23.308 0 0 0-11.851-3.2 23.7 23.7 0 1 0 16.8 40.427l-7.779-7.707a12.873 12.873 0 0 1-9.021 3.708z" class="prefix__cls-1" data-name="Path 297" transform="translate(-168.6 -173.9)"/>
            <path id="prefix__Path_298" d="M217.308 200.222a13.007 13.007 0 0 1-1.672 6.325l9.524 5.6a23.508 23.508 0 0 0 3.2-11.851 23.745 23.745 0 0 0-6.98-16.795l-7.779 7.779a12.831 12.831 0 0 1 3.707 8.942z" class="prefix__cls-1" data-name="Path 298" transform="translate(-180.883 -176.52)"/>
        </g>
    </g>
</svg>
