<?xml version="1.0" encoding="utf-8"?>
<!-- Generator: Adobe Illustrator 20.1.0, SVG Export Plug-In . SVG Version: 6.00 Build 0)  -->
<svg version="1.1" id="Layer_1" xmlns="http://www.w3.org/2000/svg" xmlns:xlink="http://www.w3.org/1999/xlink" x="0px" y="0px"
	 width="30.1px" height="48.3px" viewBox="0 0 30.1 48.3" style="enable-background:new 0 0 30.1 48.3;" xml:space="preserve">
<style type="text/css">
	.st0{fill:#0E2E51;}
</style>
<title>42 all</title>
<g>
	<g>
		<path class="st0" d="M5.1,48.3c-2.8,0-5-2.2-5-5c0-1.4,0.6-2.7,1.5-3.6L16.9,25c0.5-0.5,0.5-1.3,0-1.8L1.6,8.7
			c-2-1.9-2.1-5.1-0.1-7.1c1.9-2,5.1-2.1,7.1-0.1l20,19.1c2,1.9,2.1,5.1,0.2,7.1c0,0.1-0.1,0.1-0.2,0.2l-20,19.2
			C7.6,47.9,6.4,48.4,5.1,48.3z"/>
	</g>
</g>
</svg>
