<svg xmlns="http://www.w3.org/2000/svg" viewBox="0 0 455 30.294">
  <defs>
    <style>
      .cls-1 {
        fill: #1d0326;
      }

      .cls-2 {
        fill: #1e0b2a;
      }
    </style>
  </defs>
  <g id="Group_39" data-name="Group 39" transform="translate(0 0.003)">
    <g id="Group_38" data-name="Group 38" transform="translate(0 -0.001)">
      <g id="Group_37" data-name="Group 37">
        <path id="Path_102" data-name="Path 102" class="cls-1" d="M7.411,0c5.2,0,8.978,1.351,11.472,4.053s3.705,6.541,3.705,11.518q0,14.718-15.178,14.718A52.973,52.973,0,0,1,0,29.649V.64A59.729,59.729,0,0,1,7.411,0ZM7.7,24.032c5.487,0,8.266-2.844,8.266-8.532,0-6.115-2.779-9.243-8.337-9.243H6.413V23.89h.641A1.458,1.458,0,0,0,7.7,24.032Z" transform="translate(0)"/>
        <path id="Path_103" data-name="Path 103" class="cls-1" d="M55.7,29.993l-1.71-6.186-7.981-.142-1.71,6.4H37.6L46.578.7h6.983l8.907,29.293ZM49.928,6.672c-.214,1.209-.5,2.631-.926,4.266l-1.853,7.252,5.772-.071-1.853-7.252c-.356-1.493-.713-2.915-.926-4.337Z" transform="translate(-10.807 -0.202)"/>
        <path id="Path_104" data-name="Path 104" class="cls-1" d="M96.177.7V7.028L88.7,6.957V29.993H82.282V6.886L74.8,6.815V.7Z" transform="translate(-21.499 -0.202)"/>
        <path id="Path_105" data-name="Path 105" class="cls-1" d="M125.271,30.022l-1.71-6.186-8.052-.142-1.71,6.4h-6.7L116.007.8h6.983l8.978,29.222ZM119.428,6.7c-.214,1.209-.5,2.631-.926,4.266l-1.781,7.323,5.772-.071-1.924-7.252c-.356-1.493-.713-2.915-.926-4.337Z" transform="translate(-30.783 -0.231)"/>
        <path id="Path_106" data-name="Path 106" class="cls-1" d="M168,6.6l-11.116-.356v7.466l9.477-.213v5.759l-9.477-.213V29.993H150.4V.7h17.529V6.6Z" transform="translate(-43.229 -0.202)"/>
        <path id="Path_107" data-name="Path 107" class="cls-1" d="M191.584,24.448l11.4-.356v5.9H185.1V.7h17.529V6.6l-11.116-.356v6.328l9.477-.213V18.12l-9.406-.142Z" transform="translate(-53.202 -0.202)"/>
        <path id="Path_108" data-name="Path 108" class="cls-1" d="M235.8,8.477h0a11.286,11.286,0,0,0-6.271-2.417,4.464,4.464,0,0,0-2.779.711,2.082,2.082,0,0,0-.926,1.849,2.757,2.757,0,0,0,1.354,2.062,28.308,28.308,0,0,0,2.993,1.635c1.14.5,2.352,1.067,3.492,1.564a6.978,6.978,0,0,1,2.993,2.773,9.093,9.093,0,0,1,1.211,4.764,8.3,8.3,0,0,1-2.708,6.541c-1.781,1.564-4.275,2.346-7.553,2.346a16.289,16.289,0,0,1-8.907-2.489l1.5-6.328.071.071A10.218,10.218,0,0,0,227.18,24.4a5.18,5.18,0,0,0,2.993-.711,2.129,2.129,0,0,0,1-2.062,2.531,2.531,0,0,0-1.283-2.2,19.471,19.471,0,0,0-2.993-1.635c-1.14-.5-2.28-1.067-3.492-1.564a6.4,6.4,0,0,1-2.993-2.7A8.231,8.231,0,0,1,219.2,8.832,7.886,7.886,0,0,1,221.764,2.5c1.71-1.493,4.2-2.2,7.411-2.2a15.488,15.488,0,0,1,7.91,2.2Z" transform="translate(-62.86 -0.087)"/>
        <path id="Path_109" data-name="Path 109" class="cls-1" d="M274.277.7V7.028L266.8,6.957V29.993h-6.413V6.886L252.9,6.744V.7Z" transform="translate(-72.69 -0.202)"/>
        <path id="Path_110" data-name="Path 110" class="cls-1" d="M323.852,1.1V5.793l-7.625-.071V30.109h-4.7V5.722L303.9,5.579V1.1Z" transform="translate(-87.348 -0.318)"/>
        <path id="Path_111" data-name="Path 111" class="cls-1" d="M357.164,14.891c2.993,1,4.489,3.342,4.489,6.9,0,5.759-4.133,8.674-12.328,8.674a56.339,56.339,0,0,1-7.126-.5V1.1a43.971,43.971,0,0,1,6.556-.5c7.91,0,11.9,2.631,11.9,7.892,0,2.986-1.14,5.048-3.492,6.328Zm-7.7-10.31c-.713,0-1.568.071-2.565.142V13.4h3.99a6.088,6.088,0,0,0,3.848-1,4.12,4.12,0,0,0,1.211-3.2,3.9,3.9,0,0,0-1.5-3.413C353.53,4.937,351.891,4.582,349.468,4.582Zm0,21.686c2.708,0,4.632-.356,5.7-1.138a3.951,3.951,0,0,0,1.639-3.484,4.134,4.134,0,0,0-1.283-3.342,6.085,6.085,0,0,0-3.99-1.067H346.9v8.888A13.886,13.886,0,0,0,349.468,26.267Z" transform="translate(-98.357 -0.173)"/>
        <path id="Path_112" data-name="Path 112" class="cls-1" d="M381,30.109V1.1h4.7V30.109H381Z" transform="translate(-109.509 -0.318)"/>
        <path id="Path_113" data-name="Path 113" class="cls-1" d="M405.9,25.63l11.045-.427v4.906H401.2V1.1h4.7Z" transform="translate(-115.315 -0.318)"/>
        <path id="Path_114" data-name="Path 114" class="cls-1" d="M433.7,30.109V1.1h4.7V30.109h-4.7Z" transform="translate(-124.656 -0.318)"/>
        <path id="Path_115" data-name="Path 115" class="cls-1" d="M467.39,7.368h0A10.185,10.185,0,0,0,461.4,5.093a5.686,5.686,0,0,0-3.349.853,2.839,2.839,0,0,0-1.14,2.417,3.307,3.307,0,0,0,1.354,2.56,12.821,12.821,0,0,0,3.064,1.778c1.14.5,2.352,1.067,3.563,1.564a6.965,6.965,0,0,1,3.064,2.7,8.231,8.231,0,0,1,1.211,4.693,8.023,8.023,0,0,1-2.494,6.257,10.114,10.114,0,0,1-6.912,2.275,13.9,13.9,0,0,1-8.266-2.56l1.211-4.835h.071a9.924,9.924,0,0,0,6.841,2.844c3.135,0,4.7-1.209,4.7-3.555A3.487,3.487,0,0,0,463.4,19.6a6.679,6.679,0,0,0-2.28-1.635c-.855-.356-1.853-.853-2.922-1.28a29.476,29.476,0,0,1-2.993-1.564,6.72,6.72,0,0,1-2.28-2.56A8.951,8.951,0,0,1,452,8.505a7.653,7.653,0,0,1,2.351-5.972Q456.7.4,461.191.4a14.013,14.013,0,0,1,7.2,2.062Z" transform="translate(-129.772 -0.116)"/>
        <path id="Path_116" data-name="Path 116" class="cls-1" d="M487.9,30.109V1.1h4.7V30.109h-4.7Z" transform="translate(-140.234 -0.318)"/>
      </g>
    </g>
    <g id="Layer_2_2_" transform="translate(367.133 -0.003)">
      <g id="OBJECTS_1_" transform="translate(0)">
        <path id="Path_117" data-name="Path 117" class="cls-2" d="M514.563,27.4l15.32-.356v2.844H511.071L511,27.758l8.195-9.385a58.907,58.907,0,0,0,5.273-6.755,8.612,8.612,0,0,0,1.354-3.839,4.489,4.489,0,0,0-1.568-3.555,7.106,7.106,0,0,0-4.418-1.351,13.3,13.3,0,0,0-7.268,2.275H512.5l-.926-2.773A16.067,16.067,0,0,1,519.836.1a10.455,10.455,0,0,1,6.7,2.062,6.813,6.813,0,0,1,2.494,5.688,8.209,8.209,0,0,1-1.5,4.764,60.174,60.174,0,0,1-5.7,6.968Z" transform="translate(-511 -0.026)"/>
        <path id="Path_118" data-name="Path 118" class="cls-2" d="M556.059,0a9.647,9.647,0,0,1,8.052,3.982c2,2.631,3.064,6.328,3.064,11.092s-1,8.461-3.064,11.163a9.785,9.785,0,0,1-8.195,4.053,9.646,9.646,0,0,1-8.052-3.982c-2-2.631-3.064-6.328-3.064-11.021,0-4.764,1-8.532,3.064-11.234A9.877,9.877,0,0,1,556.059,0Zm-5.986,24.245a7.11,7.11,0,0,0,11.829-.071c1.425-2.133,2.209-5.19,2.209-9.172s-.713-6.968-2.138-9.1a7.11,7.11,0,0,0-11.829.071c-1.425,2.133-2.138,5.19-2.209,9.1Q547.935,21.151,550.073,24.244Z" transform="translate(-520.715 0.003)"/>
        <path id="Path_119" data-name="Path 119" class="cls-2" d="M589.051.6h1.924V30.036h-2.993V3.728l-6.413,2.7L580.5,3.515Z" transform="translate(-530.976 -0.171)"/>
        <path id="Path_120" data-name="Path 120" class="cls-2" d="M620.691,15.1a13.415,13.415,0,0,1,3.99,2.915,6.135,6.135,0,0,1,1.425,4.195,7.105,7.105,0,0,1-2.779,5.83,11.448,11.448,0,0,1-7.34,2.275,11.657,11.657,0,0,1-7.411-2.275,7.2,7.2,0,0,1-2.779-5.83,7.4,7.4,0,0,1,1.568-4.622,9.8,9.8,0,0,1,4.2-3.2c-3.207-1.635-4.774-3.839-4.774-6.612a6.763,6.763,0,0,1,2.565-5.546A10.088,10.088,0,0,1,616.06.1,9.894,9.894,0,0,1,622.9,2.3a7.571,7.571,0,0,1,2.565,5.83,6.8,6.8,0,0,1-1.14,3.911A13.63,13.63,0,0,1,620.691,15.1Zm-4.774,12.3a8.6,8.6,0,0,0,5.131-1.422,4.357,4.357,0,0,0,1.924-3.626,4.575,4.575,0,0,0-.214-1.422,2.975,2.975,0,0,0-.784-1.28l-1-1a6.537,6.537,0,0,0-1.5-.924c-.713-.356-1.283-.569-1.568-.711l-1.853-.711-1.781-.711c-3.563,1.351-5.344,3.413-5.344,6.257a4.981,4.981,0,0,0,1.853,4.053,8.146,8.146,0,0,0,5.131,1.493ZM609.931,7.494a3.927,3.927,0,0,0,.57,2.2A4.71,4.71,0,0,0,612.14,11.4a13.328,13.328,0,0,0,2.209,1.209l2.708,1.209.214.142.214.071.214.071.214.071c2.85-1.564,4.276-3.555,4.276-6.044a4.94,4.94,0,0,0-1.568-3.839,6.729,6.729,0,0,0-4.561-1.422,7.163,7.163,0,0,0-4.489,1.28A3.782,3.782,0,0,0,609.931,7.494Z" transform="translate(-538.246 -0.026)"/>
      </g>
    </g>
  </g>
</svg>
