<svg id="Group_29" data-name="Group 29" xmlns="http://www.w3.org/2000/svg" viewBox="0 0 223.7 58.374">
  <defs>
    <style>
      .cls-1 {
        fill: #888;
      }
    </style>
  </defs>
  <path id="Path_86" data-name="Path 86" class="cls-1" d="M127.6,38.158V64.879h10.928V38.158a4.8,4.8,0,0,1,4.931-4.931c1.666,0,4.265-.067,4.265-.067v-10.8s-3.2-.067-4.265-.067A15.687,15.687,0,0,0,127.6,38.158Z" transform="translate(-42.571 -7.438)"/>
  <g id="Group_27" data-name="Group 27" transform="translate(154.331 14.727)">
    <path id="Path_87" data-name="Path 87" class="cls-1" d="M248.7,46.867V46.8h0Z" transform="translate(-237.305 -30.341)"/>
    <path id="Path_88" data-name="Path 88" class="cls-1" d="M272.115,35.028a19.168,19.168,0,0,0-3.932-6.8A18.236,18.236,0,0,0,261.72,23.7a22.519,22.519,0,0,0-8.8-1.6A20.683,20.683,0,0,0,237.6,28.564a20.834,20.834,0,0,0-4.4,6.93,22.4,22.4,0,0,0-1.6,8.4,23.13,23.13,0,0,0,1.6,8.729,21.176,21.176,0,0,0,4.531,6.93,20.5,20.5,0,0,0,6.93,4.531,23.029,23.029,0,0,0,8.663,1.6,21.21,21.21,0,0,0,11.728-3.065,25.022,25.022,0,0,0,6-5.531l-8.063-6.064a12.912,12.912,0,0,1-3.265,3.332,10.781,10.781,0,0,1-6.2,1.733h-.466a13.185,13.185,0,0,1-2.332-.267h0c-.2-.067-.4-.067-.6-.133-.067,0-.2-.067-.267-.067a10.274,10.274,0,0,1-3.4-1.733,11.409,11.409,0,0,1-2.6-3,13.246,13.246,0,0,1-1.4-4.331h30.853a4.1,4.1,0,0,1,.067-.933,4.72,4.72,0,0,1,.067-.933v-1A27.164,27.164,0,0,0,272.115,35.028Zm-29.12,3.532h0a10.673,10.673,0,0,1,4.8-6.264c.2-.133.4-.2.6-.333h0a10.556,10.556,0,0,1,4.6-1,12.013,12.013,0,0,1,4.331.733,9.7,9.7,0,0,1,3,1.932,9.556,9.556,0,0,1,1.866,2.532,10.159,10.159,0,0,1,.6,1.666,3.344,3.344,0,0,1,.133.8H242.995Z" transform="translate(-231.6 -22.1)"/>
  </g>
  <path id="Path_89" data-name="Path 89" class="cls-1" d="M15.726,0A15.755,15.755,0,0,0,0,15.726V57.374H11.795V34.784H26.188v-10.8H11.795V15.86A5.062,5.062,0,0,1,16.859,10.8H30.187V0Z"/>
  <path id="Path_90" data-name="Path 90" class="cls-1" d="M186.891,23.623c-3.265-.933-8.2-2.732-8.063-6.864.267-4.2,3.532-5.731,6.8-5.664,2.6,0,5.264,1.133,7.53,4.8l9.063-5.864C197.952,3.632,192.155.5,185.691.5,177.1.5,167.9,5.7,167.7,16.893c-.133,11.262,10.729,15.193,16.459,16.593,3.932,1,9,3.132,8.663,8.463-.133,3.665-3.2,6-7.6,5.931-3.2,0-7.4-1.333-10.062-7.064L166.1,46.679c5.464,10.2,13.394,11.861,19.591,11.861,8.929,0,17.659-5.131,18.125-16.059C204.35,29.954,195.487,25.822,186.891,23.623Z" transform="translate(-55.416 -0.167)"/>
  <path id="Path_91" data-name="Path 91" class="cls-1" d="M316.927,44.35V26.358h6.064v-9h-6.064V6.5H306V17.362h-4v9h4V44.55c-.4,11.128,8.33,15.127,18.458,13.394V48.415C319.659,49.081,316.927,47.015,316.927,44.35Z" transform="translate(-100.757 -2.169)"/>
  <g id="Group_28" data-name="Group 28" transform="translate(34.051 14.727)">
    <path id="Path_92" data-name="Path 92" class="cls-1" d="M72.824,55.485a11.595,11.595,0,1,1,0-23.19,11.415,11.415,0,0,1,5.8,1.533l5.064-8.8A21.363,21.363,0,0,0,72.824,22.1,21.724,21.724,0,1,0,88.217,59.15l-7.13-7.063A11.8,11.8,0,0,1,72.824,55.485Z" transform="translate(-51.1 -22.1)"/>
    <path id="Path_93" data-name="Path 93" class="cls-1" d="M99.5,46.993a11.922,11.922,0,0,1-1.533,5.8l8.729,5.064a21.546,21.546,0,0,0,2.932-10.862,21.763,21.763,0,0,0-6.4-15.393L96.1,38.8A11.76,11.76,0,0,1,99.5,46.993Z" transform="translate(-66.113 -25.269)"/>
  </g>
</svg>
