<svg xmlns="http://www.w3.org/2000/svg" viewBox="0 0 20.226 60">
  <defs>
    <style>
      .cls-1 {
        fill: #0e2e51;
      }
    </style>
  </defs>
  <path id="Union_2" data-name="Union 2" class="cls-1" d="M11870.635,36.8l-9.437-9.437a.675.675,0,1,1,.954-.954l8.96,8.963,8.964-8.963a.674.674,0,1,1,.951.954l-9.437,9.437a.669.669,0,0,1-.954,0Zm0-9.437-9.437-9.437a.675.675,0,1,1,.954-.954l8.96,8.963,8.964-8.963a.674.674,0,1,1,.951.954l-9.437,9.437a.677.677,0,0,1-.954,0ZM11861,3.966V-12.887A10.111,10.111,0,0,1,11871.111-23a10.113,10.113,0,0,1,10.114,10.111V3.966a10.113,10.113,0,1,1-20.226,0Zm1.348-16.853V3.966a8.766,8.766,0,0,0,17.527,0V-12.887a8.774,8.774,0,0,0-8.764-8.764A8.776,8.776,0,0,0,11862.348-12.887Zm6.742-1.685a2.024,2.024,0,0,1,2.021-2.025,2.024,2.024,0,0,1,2.024,2.025,2.024,2.024,0,0,1-2.024,2.022A2.023,2.023,0,0,1,11869.09-14.572Z" transform="translate(-11861 22.999)"/>
</svg>
