<svg xmlns="http://www.w3.org/2000/svg" xmlns:xlink="http://www.w3.org/1999/xlink" viewBox="0 0 250 132.815">
  <defs>
    <style>
      .cls-1 {
        fill: #c71390;
      }

      .cls-2 {
        fill: #ee2163;
      }

      .cls-3 {
        fill: #19dca5;
      }

      .cls-4 {
        fill: #1bdbd2;
      }

      .cls-5 {
        fill: #5b0d8c;
      }

      .cls-6 {
        fill: #af1dbd;
      }

      .cls-7 {
        fill: #f13f5b;
      }

      .cls-8 {
        fill: #ff451a;
      }

      .cls-9 {
        fill: #fcb310;
      }

      .cls-10 {
        fill: #1d0326;
      }

      .cls-11 {
        fill: #ef3333;
      }

      .cls-12 {
        fill: #b214bf;
      }

      .cls-13 {
        fill: #bf0a4d;
      }

      .cls-14 {
        fill: #ff841f;
      }

      .cls-15 {
        fill: #af1ea7;
      }

      .cls-16 {
        fill: #4f0c75;
      }

      .cls-17 {
        fill: #ff4608;
      }

      .cls-18 {
        fill: url(#linear-gradient);
      }

      .cls-19 {
        fill: #15ebe5;
      }

      .cls-20 {
        fill: #6a0fa5;
      }

      .cls-21 {
        fill: url(#linear-gradient-2);
      }

      .cls-22 {
        fill: url(#linear-gradient-3);
      }

      .cls-23 {
        fill: #7e0ac9;
      }

      .cls-24 {
        fill: url(#linear-gradient-4);
      }
    </style>
    <linearGradient id="linear-gradient" y1="0.5" x2="1" y2="0.5" gradientUnits="objectBoundingBox">
      <stop offset="0.005" stop-color="#1ee398"/>
      <stop offset="0.098" stop-color="#1ee09f"/>
      <stop offset="0.233" stop-color="#1dd7b3"/>
      <stop offset="0.394" stop-color="#1dc9d3"/>
      <stop offset="0.5" stop-color="#1cbeec"/>
      <stop offset="1" stop-color="#4ced4c"/>
    </linearGradient>
    <linearGradient id="linear-gradient-2" y1="0.5" x2="1" y2="0.5" gradientUnits="objectBoundingBox">
      <stop offset="0.005" stop-color="#ee2163"/>
      <stop offset="0.134" stop-color="#ef2861"/>
      <stop offset="0.323" stop-color="#f13c5d"/>
      <stop offset="0.549" stop-color="#f55c55"/>
      <stop offset="0.802" stop-color="#fa894a"/>
      <stop offset="1" stop-color="#ffb141"/>
    </linearGradient>
    <linearGradient id="linear-gradient-3" x1="0" y1="0.5" x2="1" y2="0.5" xlink:href="#linear-gradient-2"/>
    <linearGradient id="linear-gradient-4" x1="1" y1="0.5" x2="0" y2="0.5" gradientUnits="objectBoundingBox">
      <stop offset="0.016" stop-color="#fcbf1f"/>
      <stop offset="0.071" stop-color="#fcb61c"/>
      <stop offset="0.163" stop-color="#fd9c14"/>
      <stop offset="0.279" stop-color="#ff7308"/>
      <stop offset="0.296" stop-color="#ff6c06"/>
      <stop offset="0.422" stop-color="#f7493e"/>
      <stop offset="0.581" stop-color="#ee1f81"/>
      <stop offset="0.834" stop-color="#a6079c"/>
      <stop offset="1" stop-color="#430b75"/>
    </linearGradient>
  </defs>
  <g id="Group_4" data-name="Group 4" transform="translate(0 2.36)">
    <g id="Group_1" data-name="Group 1" transform="translate(0 -2.36)">
      <ellipse id="Ellipse_1" data-name="Ellipse 1" class="cls-1" cx="4.257" cy="4.257" rx="4.257" ry="4.257" transform="translate(107.397 44.817)"/>
      <ellipse id="Ellipse_2" data-name="Ellipse 2" class="cls-1" cx="2.665" cy="2.665" rx="2.665" ry="2.665" transform="translate(87.012 22.8) rotate(-13.286)"/>
      <ellipse id="Ellipse_3" data-name="Ellipse 3" class="cls-1" cx="2.665" cy="2.665" rx="2.665" ry="2.665" transform="translate(218.829 33.044)"/>
      <ellipse id="Ellipse_4" data-name="Ellipse 4" class="cls-1" cx="2.777" cy="2.777" rx="2.777" ry="2.777" transform="translate(37.9 37.12) rotate(-13.286)"/>
      <ellipse id="Ellipse_5" data-name="Ellipse 5" class="cls-1" cx="5.775" cy="5.775" rx="5.775" ry="5.775" transform="translate(51.204 2.243) rotate(-9.218)"/>
      <path id="Path_1" data-name="Path 1" class="cls-1" d="M365.77,86.04a1.37,1.37,0,1,0-1.37-1.37A1.391,1.391,0,0,0,365.77,86.04Z" transform="translate(-229.497 -51.588)"/>
      <circle id="Ellipse_6" data-name="Ellipse 6" class="cls-1" cx="2.11" cy="2.11" r="2.11" transform="translate(179.051 2.984) rotate(-45)"/>
      <ellipse id="Ellipse_7" data-name="Ellipse 7" class="cls-1" cx="8.811" cy="8.811" rx="8.811" ry="8.811" transform="translate(147.028 25.116) rotate(-13.286)"/>
      <path id="Path_2" data-name="Path 2" class="cls-1" d="M246.853,161l-.037-.037-1.407-1.814h0L219.9,125.829l-9.625,3.887-4.294-10.551-7.293-11-1.37,1h0l-3.406-5.368-9.662,6.59h0l-4.7-6.553-15.586,18.1-4.331,5.257-3.739,2.48-27.247,8.367L107.36,126.088l-5.738-.926-10.7-1.7-.407-.074,11.143,1.777L99.881,123.5l-14.66-15.253-2.777,6.442h0L79.483,111.5l-10-12.4-5.849,10.625L39.982,126.643h0l-2.369,1.7L.222,165h0l37.354-36.687,2.369-1.7L29.8,119.757.185,165.034,0,165.108H250ZM60.825,142.636h0l.222-.148Zm39.908,7.478L80.816,136.306l-4.405-3.628,4.442,3.665,19.88,13.772Zm38.02-3.406-3.554.185,8.441-.518Zm19.473-16.7-12.809,14.623h0l12.957-14.808Zm10.292,6.182L159,127.9l10.588,9.218Zm17.733-8.959-2.74,2.517,1.481-1.37,2.369-2.184,1.962-1.814Z" transform="translate(0 -61.539)"/>
    </g>
    <ellipse id="Ellipse_8" data-name="Ellipse 8" class="cls-2" cx="4.257" cy="4.257" rx="4.257" ry="4.257" transform="translate(107.397 42.457)"/>
    <ellipse id="Ellipse_9" data-name="Ellipse 9" class="cls-3" cx="2.665" cy="2.665" rx="2.665" ry="2.665" transform="translate(87.554 19.764)"/>
    <ellipse id="Ellipse_10" data-name="Ellipse 10" class="cls-4" cx="2.665" cy="2.665" rx="2.665" ry="2.665" transform="translate(218.829 30.685)"/>
    <ellipse id="Ellipse_11" data-name="Ellipse 11" class="cls-5" cx="2.777" cy="2.777" rx="2.777" ry="2.777" transform="translate(38.464 34.054)"/>
    <ellipse id="Ellipse_12" data-name="Ellipse 12" class="cls-6" cx="5.775" cy="5.775" rx="5.775" ry="5.775" transform="translate(52.051 -1.116)"/>
    <ellipse id="Ellipse_13" data-name="Ellipse 13" class="cls-7" cx="1.37" cy="1.37" rx="1.37" ry="1.37" transform="translate(134.903 29.315)"/>
    <ellipse id="Ellipse_14" data-name="Ellipse 14" class="cls-8" cx="2.11" cy="2.11" rx="2.11" ry="2.11" transform="translate(179.92 -1.486)"/>
    <ellipse id="Ellipse_15" data-name="Ellipse 15" class="cls-9" cx="8.811" cy="8.811" rx="8.811" ry="8.811" transform="translate(148.823 20.504)"/>
    <g id="Group_3" data-name="Group 3" transform="translate(23.027 113.315)">
      <g id="Group_2" data-name="Group 2">
        <path id="Path_3" data-name="Path 3" class="cls-10" d="M66.383,310.1c2.925,0,5.072.777,6.479,2.3a9.426,9.426,0,0,1,2.073,6.516q0,8.329-8.552,8.329a27.465,27.465,0,0,1-4.183-.37V310.433A36.651,36.651,0,0,1,66.383,310.1Zm.148,13.549c3.11,0,4.628-1.592,4.628-4.813,0-3.48-1.555-5.183-4.665-5.183h-.629v9.958h.37A1.192,1.192,0,0,0,66.531,323.649Z" transform="translate(-62.2 -310.1)"/>
        <path id="Path_4" data-name="Path 4" class="cls-10" d="M113.218,327.348l-.963-3.48-4.517-.111-.963,3.591H103l5.035-16.548h3.924l5.035,16.548h-3.776Zm-3.295-13.179c-.111.7-.3,1.481-.518,2.406l-1.037,4.146,3.221-.037-1.037-4.109c-.222-.851-.407-1.666-.555-2.48Z" transform="translate(-87.896 -310.541)"/>
        <path id="Path_5" data-name="Path 5" class="cls-10" d="M155.432,310.9v3.591l-4.22-.037v12.994h-3.628V314.417l-4.183-.074v-3.406h12.032Z" transform="translate(-113.339 -310.604)"/>
        <path id="Path_6" data-name="Path 6" class="cls-10" d="M188.518,327.348l-.963-3.48-4.516-.111-.963,3.591H178.3l5.035-16.548h3.924l5.035,16.548h-3.776Zm-3.258-13.179c-.111.7-.3,1.481-.518,2.406l-1.037,4.146,3.221-.037-1.037-4.109c-.222-.851-.407-1.666-.555-2.48Z" transform="translate(-135.319 -310.541)"/>
        <path id="Path_7" data-name="Path 7" class="cls-10" d="M235.285,314.169l-6.257-.222v4.183l5.368-.111v3.258l-5.368-.111v6.182H225.4V310.8h9.885Z" transform="translate(-164.982 -310.541)"/>
        <path id="Path_8" data-name="Path 8" class="cls-10" d="M266.628,324.2l6.442-.185v3.332H263V310.8h9.884v3.332l-6.256-.185v3.591l5.368-.111v3.221l-5.368-.111Z" transform="translate(-188.663 -310.541)"/>
        <path id="Path_9" data-name="Path 9" class="cls-10" d="M309.151,314.965l-.037-.037a6.244,6.244,0,0,0-3.48-1.333,2.739,2.739,0,0,0-1.592.37,1.159,1.159,0,0,0-.518,1.037,1.5,1.5,0,0,0,.777,1.148,12.111,12.111,0,0,0,1.7.925c.666.3,1.3.592,2,.889a3.988,3.988,0,0,1,1.7,1.555,5.132,5.132,0,0,1,.666,2.7,4.691,4.691,0,0,1-1.518,3.7,6.232,6.232,0,0,1-4.257,1.3,9.07,9.07,0,0,1-5-1.407l.851-3.554.037.037a5.837,5.837,0,0,0,3.887,1.629,3.125,3.125,0,0,0,1.7-.407,1.286,1.286,0,0,0,.592-1.148,1.538,1.538,0,0,0-.7-1.259,8.875,8.875,0,0,0-1.666-.925c-.629-.3-1.3-.592-1.962-.888a4.133,4.133,0,0,1-1.7-1.518,4.871,4.871,0,0,1-.7-2.628,4.526,4.526,0,0,1,1.444-3.591,6.143,6.143,0,0,1,4.183-1.259A8.618,8.618,0,0,1,310,311.559Z" transform="translate(-211.713 -310.226)"/>
        <path id="Path_10" data-name="Path 10" class="cls-10" d="M348.432,310.9v3.591l-4.22-.037v12.994h-3.628V314.417l-4.183-.074v-3.406h12.032Z" transform="translate(-234.89 -310.604)"/>
        <path id="Path_11" data-name="Path 11" class="cls-10" d="M402.954,311.3v2.666l-4.294-.037V327.7h-2.665V313.891l-4.294-.074V311.3Z" transform="translate(-269.717 -310.856)"/>
        <path id="Path_12" data-name="Path 12" class="cls-10" d="M441.7,318.707a3.706,3.706,0,0,1,2.517,3.887c0,3.258-2.3,4.887-6.923,4.887a35.072,35.072,0,0,1-4-.3V310.9a27.065,27.065,0,0,1,3.7-.3c4.442,0,6.7,1.481,6.7,4.48a3.73,3.73,0,0,1-1.962,3.554v.074Zm-4.331-5.812c-.407,0-.889.037-1.444.074v4.887h2.258a3.277,3.277,0,0,0,2.184-.592,2.238,2.238,0,0,0,.666-1.777,2.269,2.269,0,0,0-.851-1.925A4.246,4.246,0,0,0,437.372,312.9Zm0,12.254a6.021,6.021,0,0,0,3.221-.629,2.225,2.225,0,0,0,.888-1.962,2.329,2.329,0,0,0-.7-1.888,3.389,3.389,0,0,0-2.221-.592h-2.591v5.035C436.3,325.112,436.78,325.149,437.372,325.149Z" transform="translate(-295.917 -310.415)"/>
        <path id="Path_13" data-name="Path 13" class="cls-10" d="M475.3,327.663V311.3h2.665v16.363Z" transform="translate(-322.368 -310.856)"/>
        <path id="Path_14" data-name="Path 14" class="cls-10" d="M499.865,325.209l6.219-.222v2.777H497.2V311.4h2.665Z" transform="translate(-336.161 -310.919)"/>
        <path id="Path_15" data-name="Path 15" class="cls-10" d="M532.4,327.663V311.3h2.665v16.363Z" transform="translate(-358.329 -310.856)"/>
        <path id="Path_16" data-name="Path 16" class="cls-10" d="M560.785,314.424h-.037a5.5,5.5,0,0,0-3.332-1.3,3.1,3.1,0,0,0-1.888.481,1.575,1.575,0,0,0-.629,1.37,1.756,1.756,0,0,0,.74,1.444,8.658,8.658,0,0,0,1.74,1.037c.666.3,1.333.592,2.036.888a4,4,0,0,1,1.74,1.518,4.612,4.612,0,0,1,.7,2.665,4.517,4.517,0,0,1-1.407,3.517,5.663,5.663,0,0,1-3.887,1.3A7.916,7.916,0,0,1,551.9,325.9l.7-2.74h.037a5.653,5.653,0,0,0,3.887,1.592c1.777,0,2.628-.666,2.628-2a2.127,2.127,0,0,0-.518-1.407,3.967,3.967,0,0,0-1.259-.926c-.518-.222-1.037-.481-1.666-.74a11.872,11.872,0,0,1-1.666-.888,3.471,3.471,0,0,1-1.259-1.444,4.732,4.732,0,0,1-.518-2.258,4.324,4.324,0,0,1,1.333-3.369,5.525,5.525,0,0,1,3.85-1.222,7.81,7.81,0,0,1,4.072,1.148Z" transform="translate(-370.61 -310.352)"/>
        <path id="Path_17" data-name="Path 17" class="cls-10" d="M591.2,327.663V311.3h2.665v16.363Z" transform="translate(-395.361 -310.856)"/>
      </g>
    </g>
    <path id="Path_18" data-name="Path 18" class="cls-3" d="M451.054,111.9,435.468,130,431.1,135.3l24.656-16.844Z" transform="translate(-271.504 -71.96)"/>
    <path id="Path_19" data-name="Path 19" class="cls-11" d="M556.175,149.985,581.09,174.64l-25.507-33.319-9.625,3.887-4.294-10.551L534.37,123.7l-1.37,1,13.809,21.842Z" transform="translate(-335.68 -79.392)"/>
    <path id="Path_20" data-name="Path 20" class="cls-12" d="M123.856,115.659l15.623,12.883,10.7-13.587.148-.333-2.962-3.184L137.368,99l-5.849,10.662L107.9,126.58l4.887,3.295Z" transform="translate(-67.955 -63.836)"/>
    <path id="Path_21" data-name="Path 21" class="cls-13" d="M296.268,187.344l10.847,4.072,1-.185,8.552-.518.037-.074h.185l1.407-1.666,13.624-15.549V172.24h0l.629-.74-3.776,2.517-27.21,8.33-21.324-11.921L274.5,169.5l18.473,16.622Z" transform="translate(-172.879 -108.236)"/>
    <path id="Path_22" data-name="Path 22" class="cls-14" d="M510.768,117.268l-3.406-5.368-9.662,6.553,3.961,5.516Z" transform="translate(-313.449 -71.96)"/>
    <path id="Path_23" data-name="Path 23" class="cls-15" d="M404.727,182.6,391.4,197.815l5.664-1.074Z" transform="translate(-246.501 -116.487)"/>
    <path id="Path_24" data-name="Path 24" class="cls-16" d="M165.449,158.29l1.111-1.407L150.9,144Z" transform="translate(-95.036 -92.176)"/>
    <path id="Path_25" data-name="Path 25" class="cls-9" d="M440.188,154.351l8.219-4.405,7.145-12.7,4.331,4.368.444-.407,1.925-1.74,7.071,6.182,14.882,13.772,7.182-4.368,26.026,23.175-1.444-1.888-24.915-24.656-9.366-3.443L467.879,126.4l-9.107,6.7-3.961-5.516-24.656,16.844-.555.666Z" transform="translate(-270.56 -81.092)"/>
    <path id="Path_26" data-name="Path 26" class="cls-13" d="M230.645,138.941l11.106,1.777-1.777-1.666L225.314,123.8l-2.814,6.442,3.369,3.591Z" transform="translate(-140.129 -79.455)"/>
    <path id="Path_27" data-name="Path 27" class="cls-2" d="M253.226,172.6l15.919,8.552,8.922,3.295-3.295-1.222L256.3,166.6l-10.7-1.7Z" transform="translate(-154.677 -105.339)"/>
    <path id="Path_28" data-name="Path 28" class="cls-8" d="M542.9,177.186l-7.182,4.368L520.84,167.782l-7.071-6.182-2.369,2.184L524.024,181.7l8.626-2.962,11.81,11,27.617,14.734-3.147-4.109Z" transform="translate(-322.077 -103.261)"/>
    <path id="Path_29" data-name="Path 29" class="cls-17" d="M405.416,176.9v1.148l-.815.963-7.663,14.142-5.405,1.666-.333.444,14.919-1.074L416,186.155l-1.111-.963Z" transform="translate(-246.376 -112.897)"/>
    <path id="Path_30" data-name="Path 30" class="cls-18" d="M527.423,182.456l-8.626,2.962L506.173,167.5l-3.073,2.814,2.221,2.332,8.922,17.844,25.063,3,27.543,14.7-27.617-14.734Z" transform="translate(-316.849 -106.977)"/>
    <path id="Path_31" data-name="Path 31" class="cls-19" d="M389.574,210.285l-1.074,1.259,15.919-1.111L414.3,202.4l-9.181,4.887Z" transform="translate(-244.675 -128.956)"/>
    <path id="Path_32" data-name="Path 32" class="cls-16" d="M40.134,161.786,29.99,154.9.3,200.25l37.465-36.761Z" transform="translate(-0.189 -99.041)"/>
    <path id="Path_33" data-name="Path 33" class="cls-13" d="M193.2,155.65l3.554,2.925L203.9,142.1Z" transform="translate(-121.676 -90.98)"/>
    <path id="Path_34" data-name="Path 34" class="cls-20" d="M56.09,144,45.021,158.179l-4.887-3.258L37.8,156.587.3,193.385l34.688-18.7Z" transform="translate(-0.189 -92.176)"/>
    <path id="Path_35" data-name="Path 35" class="cls-14" d="M491.876,160.068l-4.331-4.368L480.4,168.4l5.664-3,1.481-1.37,2.369-2.147Z" transform="translate(-302.553 -99.545)"/>
    <path id="Path_36" data-name="Path 36" class="cls-5" d="M60.825,170.851l13.031-8.293,1.222-2.814-3.554-2.925-1.111,1.37L55.864,143.9,34.8,174.627,0,193.322l58.493-23.175Z" transform="translate(0 -92.114)"/>
    <path id="Path_37" data-name="Path 37" class="cls-21" d="M262.9,173.408l-1,.185-10.736-4.035-8.922-3.295-15.919-8.552-7.737-7.737-.407-.074-4.813-5.146L210.03,141.2l-.148.333L202.7,158.044l5.812,4.776,19.917,13.809,22.916,1.222,15.067-4.628Z" transform="translate(-127.659 -90.413)"/>
    <path id="Path_38" data-name="Path 38" class="cls-22" d="M184.291,191.413l-5.738-4.813-1.259,2.814-12.994,8.33,45.313,14.142,17.548-5.442-22.953-1.222Z" transform="translate(-103.475 -119.006)"/>
    <path id="Path_39" data-name="Path 39" class="cls-23" d="M58.493,214.8,0,237.975H25.84L60.825,215.5Z" transform="translate(0 -136.766)"/>
    <path id="Path_40" data-name="Path 40" class="cls-19" d="M334.1,231.7l7.515.444,12.328-5.035.3-.407-5.072.37Z" transform="translate(-210.414 -144.26)"/>
    <path id="Path_41" data-name="Path 41" class="cls-24" d="M241.353,195.276l-8.922-17.844L230.21,175.1l-2.74,2.517-13.883,7.4-9.885,8.033-15.919,1.111-.3.407-12.328,5.035-7.515-.407L150.1,204.642,104.784,190.5,69.8,212.972H293.96l-27.543-14.7Z" transform="translate(-43.96 -111.763)"/>
  </g>
</svg>
