<svg xmlns="http://www.w3.org/2000/svg" width="244.707" height="126.988" viewBox="0 0 244.707 126.988">
    <defs>
        <style>
            .prefix__cls-1{fill:#ff9ba3}
        </style>
    </defs>
    <g id="prefix__Group_224" data-name="Group 224" transform="translate(4140.295 2119.24)">
        <g id="prefix__Group_220" data-name="Group 220" transform="translate(-4140.295 -2119.24)">
            <g id="prefix__Group_191" data-name="Group 191" transform="translate(55.416)">
                <path id="prefix__Path_240" d="M-3992.54-2105.326a6.965 6.965 0 0 0 6.958-6.957 6.965 6.965 0 0 0-6.958-6.957 6.964 6.964 0 0 0-6.956 6.957 6.965 6.965 0 0 0 6.956 6.957m0-10.78a3.827 3.827 0 0 1 3.823 3.823 3.828 3.828 0 0 1-3.823 3.823 3.827 3.827 0 0 1-3.822-3.823 3.827 3.827 0 0 1 3.822-3.823" class="prefix__cls-1" data-name="Path 240" transform="translate(3999.496 2119.24)"/>
            </g>
            <g id="prefix__Group_192" data-name="Group 192" transform="translate(180.301 1.446)">
                <path id="prefix__Path_241" d="M-3679.808-2110.8a2.385 2.385 0 0 0 2.383-2.383 2.385 2.385 0 0 0-2.383-2.382 2.385 2.385 0 0 0-2.383 2.382 2.385 2.385 0 0 0 2.383 2.383" class="prefix__cls-1" data-name="Path 241" transform="translate(3682.191 2115.566)"/>
            </g>
            <g id="prefix__Group_193" data-name="Group 193" transform="translate(49.829 33.155)">
                <path id="prefix__Path_242" d="M-4011.38-2030.379a2.313 2.313 0 0 0 2.31-2.311 2.313 2.313 0 0 0-2.31-2.31 2.313 2.313 0 0 0-2.311 2.31 2.313 2.313 0 0 0 2.311 2.311" class="prefix__cls-1" data-name="Path 242" transform="translate(4013.691 2035)"/>
            </g>
            <g id="prefix__Group_194" data-name="Group 194" transform="translate(217.612 30.889)">
                <path id="prefix__Path_243" d="M-3582.9-2031.772a4.5 4.5 0 0 0 4.494-4.494 4.5 4.5 0 0 0-4.494-4.493 4.5 4.5 0 0 0-4.493 4.493 4.5 4.5 0 0 0 4.493 4.494m0-5.951a1.459 1.459 0 0 1 1.457 1.457 1.459 1.459 0 0 1-1.457 1.458 1.459 1.459 0 0 1-1.457-1.458 1.459 1.459 0 0 1 1.457-1.457" class="prefix__cls-1" data-name="Path 243" transform="translate(3587.391 2040.759)"/>
            </g>
            <g id="prefix__Group_195" data-name="Group 195" transform="translate(109.821 42.88)">
                <path id="prefix__Path_244" d="M-3855.289-1998.34a5.982 5.982 0 0 0 5.976-5.975 5.983 5.983 0 0 0-5.976-5.976 5.982 5.982 0 0 0-5.975 5.976 5.982 5.982 0 0 0 5.975 5.975m0-8.914a2.942 2.942 0 0 1 2.938 2.939 2.942 2.942 0 0 1-2.938 2.938 2.942 2.942 0 0 1-2.939-2.938 2.942 2.942 0 0 1 2.939-2.939" class="prefix__cls-1" data-name="Path 244" transform="translate(3861.264 2010.291)"/>
            </g>
            <g id="prefix__Group_196" data-name="Group 196" transform="translate(23.208 32.614)">
                <path id="prefix__Path_245" d="M-4077.524-2028.762a3.81 3.81 0 0 0 3.806-3.806 3.81 3.81 0 0 0-3.806-3.806 3.811 3.811 0 0 0-3.807 3.806 3.811 3.811 0 0 0 3.807 3.806m0-4.865a1.059 1.059 0 0 1 1.058 1.059 1.059 1.059 0 0 1-1.058 1.059 1.06 1.06 0 0 1-1.059-1.059 1.06 1.06 0 0 1 1.059-1.059" class="prefix__cls-1" data-name="Path 245" transform="translate(4081.33 2036.375)"/>
            </g>
            <g id="prefix__Group_197" data-name="Group 197" transform="translate(146.016 17.711)">
                <path id="prefix__Path_246" d="M-3759.523-2054.681a9.791 9.791 0 0 0 9.78-9.78 9.79 9.79 0 0 0-9.78-9.779 9.79 9.79 0 0 0-9.779 9.779 9.791 9.791 0 0 0 9.779 9.78m6.743-9.78a6.751 6.751 0 0 1-6.743 6.743 6.75 6.75 0 0 1-6.742-6.743 6.75 6.75 0 0 1 6.742-6.743 6.751 6.751 0 0 1 6.743 6.743" class="prefix__cls-1" data-name="Path 246" transform="translate(3769.302 2074.24)"/>
            </g>
            <g id="prefix__Group_198" data-name="Group 198" transform="translate(0 62.097)">
                <path id="prefix__Path_247" d="M-3929.012-1933.329l-29.637-27.445a1.518 1.518 0 0 0-1.121-.683 1.522 1.522 0 0 0-1.234.447l-22.207 18.254-19.648.826a1.524 1.524 0 0 0-.414.076l-32.362 10.717-47.278-14.563a1.518 1.518 0 0 0-1.025.047l-55.416 22.8a1.519 1.519 0 0 0-.826 1.982 1.52 1.52 0 0 0 1.4.941 1.506 1.506 0 0 0 .577-.115l54.912-22.6 47.221 14.545a1.519 1.519 0 0 0 .924-.009l32.622-10.8 20.035-.844a1.514 1.514 0 0 0 1.019-.453l21.421-17.642 28.971 26.247c.456-.915.9-1.657 2.066-1.728z" class="prefix__cls-1" data-name="Path 247" transform="translate(4140.296 1961.464)"/>
            </g>
            <g id="prefix__Group_199" data-name="Group 199" transform="translate(.013 49.873)">
                <path id="prefix__Path_248" d="M-4139.574-1939.014a1.511 1.511 0 0 0 .829.247 1.517 1.517 0 0 0 1.272-.687l27.714-42.625 13.008 8.542a1.481 1.481 0 0 0 .363.168l-10.252 18.469a1.519 1.519 0 0 0 .464 2.1 1.517 1.517 0 0 0 2.1-.464l21.1-35.49 42.8 34.528a1.513 1.513 0 0 0 .953.337l24.921-.038a1.518 1.518 0 0 0 1.519-1.518 1.518 1.518 0 0 0-1.519-1.518l-24.384.038-43.7-35.256a1.515 1.515 0 0 0-1.2-.317 1.517 1.517 0 0 0-1.035.682l-10.189 15.98a1.545 1.545 0 0 0-.272-.235l-14.28-9.378a1.518 1.518 0 0 0-1.143-.217 1.518 1.518 0 0 0-.962.656l-28.547 43.9a1.519 1.519 0 0 0 .441 2.1" class="prefix__cls-1" data-name="Path 248" transform="translate(4140.262 1992.523)"/>
            </g>
            <g id="prefix__Group_200" data-name="Group 200" transform="translate(74.462 46.464)">
                <path id="prefix__Path_249" d="M-3939.322-2000.841a1.518 1.518 0 0 0-1.288-.309 1.519 1.519 0 0 0-1.041.819l-9.3 18.413a1.518 1.518 0 0 0 .7 2.029 1.517 1.517 0 0 0 2.029-.7l8.46-16.682 43.7 35.884a1.51 1.51 0 0 0 .963.344 1.515 1.515 0 0 0 1.175-.555 1.518 1.518 0 0 0-.211-2.137z" class="prefix__cls-1" data-name="Path 249" transform="translate(3951.104 2001.186)"/>
            </g>
            <g id="prefix__Group_201" data-name="Group 201" transform="translate(143.085 39.15)">
                <path id="prefix__Path_250" d="M-3675.451-1958.974l-25.976-38.876a1.519 1.519 0 0 0-2.125-.261l-7.151 5.551-11.064-19.136a1.519 1.519 0 0 0-1.993-.6l-7.518 8.983-10.876-15.929a1.509 1.509 0 0 0-1.212-.527 1.517 1.517 0 0 0-1.166.622l-31.922 42.049a1.518 1.518 0 0 0 .332 2.121 1.516 1.516 0 0 0 2.121-.332l30.793-40.5 10.793 16.055a1.518 1.518 0 0 0 1.831.367l7.3-8.873 10.826 18.725a1.52 1.52 0 0 0 1.023.73 1.52 1.52 0 0 0 1.223-.291l7.333-5.692 25.044 37.689a1.517 1.517 0 0 0 1.195.58 1.51 1.51 0 0 0 .937-.324 1.519 1.519 0 0 0 .252-2.131z" class="prefix__cls-1" data-name="Path 250" transform="translate(3776.748 2019.768)"/>
            </g>
            <g id="prefix__Group_202" data-name="Group 202" transform="translate(107.637 63.357)">
                <path id="prefix__Path_251" d="M-3840.844-1944.837a1.477 1.477 0 0 1-.814-.2l-17.174-10.081-6.143 1.564a1.477 1.477 0 0 1-1.793-1.066 1.475 1.475 0 0 1 1.066-1.793l6.731-1.713a1.476 1.476 0 0 1 1.11.158l17.049 10.007 23.31-10.177a1.476 1.476 0 0 1 1.942.762 1.476 1.476 0 0 1-.762 1.942l-24 10.478a1.478 1.478 0 0 1-.522.119z" class="prefix__cls-1" data-name="Path 251" transform="translate(3866.813 1958.263)"/>
            </g>
            <g id="prefix__Group_203" data-name="Group 203" transform="translate(59.535 38.57)">
                <path id="prefix__Path_252" d="M-3988.833-2006.525a1.444 1.444 0 0 0 .569 2 1.544 1.544 0 0 0 .852.185 1.529 1.529 0 0 0 1.219-.747l7.2-12.2 11.653 12.426c.565.6 1.1.354 1.715-.2s1.091-1.2.525-1.8l-13.061-13.912a1.537 1.537 0 0 0-1.29-.464 1.531 1.531 0 0 0-1.15.74z" class="prefix__cls-1" data-name="Path 252" transform="translate(3989.031 2021.243)"/>
            </g>
            <g id="prefix__Group_204" data-name="Group 204" transform="translate(33.588 111.296)">
                <path id="prefix__Path_253" d="M-4051.142-1836.462q4.025 0 5.931 2.11a8.575 8.575 0 0 1 1.906 5.956q0 7.627-7.82 7.626a27.135 27.135 0 0 1-3.831-.334v-15.024a30.6 30.6 0 0 1 3.813-.334m.159 12.433q4.253 0 4.254-4.409 0-4.764-4.29-4.764c-.059 0-.153 0-.282.01s-.236.01-.318.01v9.132q.123 0 .335.01c.141.007.241.011.3.011" class="prefix__cls-1" data-name="Path 253" transform="translate(4054.955 1836.462)"/>
            </g>
            <g id="prefix__Group_205" data-name="Group 205" transform="translate(47.427 111.567)">
                <path id="prefix__Path_254" d="M-4010.455-1820.624l-.865-3.2-4.148-.1-.865 3.3h-3.46l4.608-15.149h3.6l4.607 15.149zm-3-12.078q-.159.961-.477 2.194l-.936 3.782 2.966-.021-.954-3.761q-.3-1.148-.494-2.257z" class="prefix__cls-1" data-name="Path 254" transform="translate(4019.793 1835.773)"/>
            </g>
            <g id="prefix__Group_206" data-name="Group 206" transform="translate(61.091 111.567)">
                <path id="prefix__Path_255" d="M-3974.044-1835.772v3.28l-3.866-.042v11.911h-3.319v-11.952l-3.848-.063v-3.134z" class="prefix__cls-1" data-name="Path 255" transform="translate(3985.077 1835.772)"/>
            </g>
            <g id="prefix__Group_207" data-name="Group 207" transform="translate(72.988 111.567)">
                <path id="prefix__Path_256" d="M-3945.51-1820.624l-.865-3.2-4.148-.1-.865 3.3h-3.46l4.607-15.149h3.6l4.607 15.149zm-3-12.078q-.16.961-.477 2.194l-.936 3.782 2.966-.021-.954-3.761q-.3-1.148-.494-2.257z" class="prefix__cls-1" data-name="Path 256" transform="translate(3954.848 1835.773)"/>
            </g>
            <g id="prefix__Group_208" data-name="Group 208" transform="translate(88.911 111.567)">
                <path id="prefix__Path_257" d="M-3905.337-1832.722l-5.719-.189v3.845l4.908-.1v2.988l-4.908-.1v5.663h-3.336v-15.149h9.056z" class="prefix__cls-1" data-name="Path 257" transform="translate(3914.393 1835.773)"/>
            </g>
            <g id="prefix__Group_209" data-name="Group 209" transform="translate(101.656 111.567)">
                <path id="prefix__Path_258" d="M-3878.674-1823.507l5.9-.167v3.051h-9.232v-15.149h9.055v3.051l-5.719-.167v3.281l4.907-.1v2.968l-4.907-.1z" class="prefix__cls-1" data-name="Path 258" transform="translate(3882.01 1835.773)"/>
            </g>
            <g id="prefix__Group_210" data-name="Group 210" transform="translate(114.065 111.358)">
                <path id="prefix__Path_259" d="M-3841.708-1832.02l-.035-.02a5.7 5.7 0 0 0-3.2-1.233 2.486 2.486 0 0 0-1.447.352 1.071 1.071 0 0 0-.477.956 1.348 1.348 0 0 0 .706 1.056 12.142 12.142 0 0 0 1.562.838l1.818.827a3.531 3.531 0 0 1 1.544 1.433 4.667 4.667 0 0 1 .619 2.478 4.213 4.213 0 0 1-1.394 3.375 5.758 5.758 0 0 1-3.884 1.2 8.238 8.238 0 0 1-4.59-1.3l.777-3.26.035.021a5.309 5.309 0 0 0 3.566 1.483 2.783 2.783 0 0 0 1.554-.366 1.16 1.16 0 0 0 .529-1.06 1.425 1.425 0 0 0-.659-1.153 8.8 8.8 0 0 0-1.528-.859l-1.8-.809a3.616 3.616 0 0 1-1.552-1.394 4.365 4.365 0 0 1-.636-2.424 4.094 4.094 0 0 1 1.333-3.28 5.716 5.716 0 0 1 3.84-1.149 8.085 8.085 0 0 1 4.078 1.149z" class="prefix__cls-1" data-name="Path 259" transform="translate(3850.481 1836.304)"/>
            </g>
            <g id="prefix__Group_211" data-name="Group 211" transform="translate(126.563 111.567)">
                <path id="prefix__Path_260" d="M-3807.693-1835.772v3.28l-3.866-.042v11.911h-3.318v-11.952l-3.848-.063v-3.134z" class="prefix__cls-1" data-name="Path 260" transform="translate(3818.726 1835.772)"/>
            </g>
            <g id="prefix__Group_212" data-name="Group 212" transform="translate(145.327 111.714)">
                <path id="prefix__Path_261" d="M-3760.741-1835.4v2.444l-3.937-.042v12.6h-2.436v-12.641l-3.937-.063v-2.3z" class="prefix__cls-1" data-name="Path 261" transform="translate(3771.051 1835.401)"/>
            </g>
            <g id="prefix__Group_213" data-name="Group 213" transform="translate(159.432 111.483)">
                <path id="prefix__Path_262" d="M-3727.5-1828.547a3.357 3.357 0 0 1 2.313 3.552q0 4.473-6.355 4.472a29.723 29.723 0 0 1-3.671-.272v-14.919a23.276 23.276 0 0 1 3.389-.272q6.126 0 6.125 4.1a3.392 3.392 0 0 1-1.8 3.26zm-3.971-5.349q-.547 0-1.306.062v4.472h2.065a3.034 3.034 0 0 0 1.985-.533 2.033 2.033 0 0 0 .627-1.64 2.092 2.092 0 0 0-.768-1.777 4.4 4.4 0 0 0-2.6-.585m0 11.221a5.463 5.463 0 0 0 2.947-.575 2.044 2.044 0 0 0 .83-1.808 2.1 2.1 0 0 0-.653-1.713 3.173 3.173 0 0 0-2.048-.543h-2.383v4.6q.494.042 1.306.042" class="prefix__cls-1" data-name="Path 262" transform="translate(3735.214 1835.986)"/>
            </g>
            <g id="prefix__Group_214" data-name="Group 214" transform="translate(173.677 111.713)">
                <path id="prefix__Rectangle_285" d="M0 0H2.436V15.002H0z" class="prefix__cls-1" data-name="Rectangle 285"/>
            </g>
            <g id="prefix__Group_215" data-name="Group 215" transform="translate(181.109 111.713)">
                <path id="prefix__Path_263" d="M-3677.7-1822.717l5.7-.209v2.529h-8.138v-15h2.437z" class="prefix__cls-1" data-name="Path 263" transform="translate(3680.138 1835.401)"/>
            </g>
            <g id="prefix__Group_216" data-name="Group 216" transform="translate(193.059 111.713)">
                <path id="prefix__Rectangle_286" d="M0 0H2.436V15.002H0z" class="prefix__cls-1" data-name="Rectangle 286"/>
            </g>
            <g id="prefix__Group_217" data-name="Group 217" transform="translate(199.644 111.525)">
                <path id="prefix__Path_264" d="M-3624.889-1832.369h-.035a5.016 5.016 0 0 0-3.036-1.171 2.808 2.808 0 0 0-1.721.45 1.454 1.454 0 0 0-.573 1.267 1.678 1.678 0 0 0 .693 1.329 7.4 7.4 0 0 0 1.583.933l1.855.822a3.663 3.663 0 0 1 1.585 1.4 4.354 4.354 0 0 1 .638 2.434 4.138 4.138 0 0 1-1.3 3.238 5.139 5.139 0 0 1-3.574 1.171 7.245 7.245 0 0 1-4.272-1.317l.636-2.508h.034a5.2 5.2 0 0 0 3.548 1.463q2.419 0 2.418-1.84a1.858 1.858 0 0 0-.476-1.285 3.348 3.348 0 0 0-1.165-.836l-1.518-.668a11.76 11.76 0 0 1-1.527-.8 3.4 3.4 0 0 1-1.165-1.306 4.314 4.314 0 0 1-.468-2.079 3.953 3.953 0 0 1 1.227-3.092 5.081 5.081 0 0 1 3.522-1.108 7.157 7.157 0 0 1 3.724 1.066z" class="prefix__cls-1" data-name="Path 264" transform="translate(3633.045 1835.88)"/>
            </g>
            <g id="prefix__Group_218" data-name="Group 218" transform="translate(212.971 111.713)">
                <path id="prefix__Rectangle_287" d="M0 0H2.436V15.002H0z" class="prefix__cls-1" data-name="Rectangle 287"/>
            </g>
            <g id="prefix__Group_219" data-name="Group 219" transform="translate(152.866 80.223)">
                <path id="prefix__Path_265" d="M-3662.038-1893.294l-64.768-19.067-25 .738-.089-3.035 25.486-.752.232.068 65 19.135z" class="prefix__cls-1" data-name="Path 265" transform="translate(3751.898 1915.41)"/>
            </g>
        </g>
    </g>
</svg>
