<svg xmlns="http://www.w3.org/2000/svg" xmlns:xlink="http://www.w3.org/1999/xlink" viewBox="0 0 952.64 501.29"><defs><style>.cls-1{fill:#152477;}.cls-2{fill:#6978ff;}.cls-3{fill:#c931ff;}.cls-4{fill:#5263ff;}.cls-5{fill:#4053ff;}.cls-6{fill:#3e51ff;}.cls-7{fill:#4d5fff;}.cls-8{fill:#ff658d;}.cls-9{fill:#56f;}.cls-10{fill:#ff93af;}.cls-11{fill:#1a31ff;}.cls-12{fill:#7486ff;}.cls-13{fill:url(#linear-gradient);}.cls-14{fill:url(#linear-gradient-2);}.cls-15{fill:#ff205b;}.cls-16{fill:#243aff;}.cls-17{fill:url(#linear-gradient-3);}.cls-18{fill:url(#linear-gradient-4);}.cls-19{fill:url(#linear-gradient-5);}.cls-20{fill:#8937a5;}</style><linearGradient id="linear-gradient" x1="721.43" y1="308.33" x2="952.64" y2="308.33" gradientUnits="userSpaceOnUse"><stop offset="0.01" stop-color="#ff658d"/><stop offset="0.19" stop-color="#fe6294"/><stop offset="0.46" stop-color="#fd59a8"/><stop offset="0.79" stop-color="#fa4ac8"/><stop offset="1" stop-color="#f83fe1"/></linearGradient><linearGradient id="linear-gradient-2" x1="709.67" y1="312.46" x2="952.64" y2="312.46" gradientUnits="userSpaceOnUse"><stop offset="0.01" stop-color="#c931ff"/><stop offset="0.17" stop-color="#cc36f8"/><stop offset="0.4" stop-color="#d446e4"/><stop offset="0.69" stop-color="#e15ec4"/><stop offset="1" stop-color="#f38098"/></linearGradient><linearGradient id="linear-gradient-3" x1="286.01" y1="267.65" x2="528.79" y2="267.65" gradientUnits="userSpaceOnUse"><stop offset="0.01" stop-color="#6978ff"/><stop offset="0.13" stop-color="#707afc"/><stop offset="0.31" stop-color="#847ff2"/><stop offset="0.53" stop-color="#a487e3"/><stop offset="0.78" stop-color="#d192cd"/><stop offset="1" stop-color="#ff9db7"/></linearGradient><linearGradient id="linear-gradient-4" x1="231.82" y1="310.06" x2="471.24" y2="310.06" xlink:href="#linear-gradient-3"/><linearGradient id="linear-gradient-5" x1="952.64" y1="317.86" x2="98.4" y2="317.86" gradientUnits="userSpaceOnUse"><stop offset="0.01" stop-color="#ff8375"/><stop offset="0.22" stop-color="#c931ff"/><stop offset="0.32" stop-color="#ac46ff"/><stop offset="0.58" stop-color="#6978ff"/><stop offset="0.78" stop-color="#3b4fff"/><stop offset="1" stop-color="#1a31ff"/></linearGradient></defs><title>Asset 1</title><g id="Layer_2" data-name="Layer 2"><g id="Layer_1-2" data-name="Layer 1"><path class="cls-1" d="M114,436q16.74,0,24.67,8.78t7.93,24.77q0,31.73-32.53,31.72a113,113,0,0,1-15.93-1.39V437.41A127.4,127.4,0,0,1,114,436Zm.66,51.71q17.69,0,17.7-18.34,0-19.82-17.84-19.82l-1.17,0c-.54,0-1,0-1.32,0v38q.51,0,1.39,0Z"/><path class="cls-1" d="M194.59,500.16l-3.6-13.3-17.25-.43-3.6,13.73H155.75l19.16-63h15l19.16,63ZM182.1,449.93q-.66,4-2,9.13l-3.89,15.73,12.34-.09-4-15.64q-1.25-4.78-2.06-9.39Z"/><path class="cls-1" d="M258.47,437.15v13.65l-16.08-.17v49.54h-13.8V450.45l-16-.26v-13Z"/><path class="cls-1" d="M300.91,500.16l-3.6-13.3-17.25-.43-3.6,13.73H262.06l19.16-63h15l19.16,63Zm-12.48-50.24q-.66,4-2,9.13l-3.89,15.73,12.34-.09-4-15.64q-1.25-4.78-2.06-9.39Z"/><path class="cls-1" d="M366,449.84l-23.79-.78v16l20.41-.43V477l-20.41-.43v23.55H328.29v-63H366Z"/><path class="cls-1" d="M395.18,488.17l24.52-.69v12.69h-38.4v-63H419v12.69l-23.79-.69v13.65l20.41-.43V474.7l-20.41-.43Z"/><path class="cls-1" d="M469.42,454.1l-.15-.09Q462,448.88,456,448.88a10.34,10.34,0,0,0-6,1.46,4.46,4.46,0,0,0-2,4,5.6,5.6,0,0,0,2.93,4.39,50.7,50.7,0,0,0,6.5,3.49l7.56,3.44a14.7,14.7,0,0,1,6.42,6A19.41,19.41,0,0,1,474,481.91q0,9-5.8,14t-16.15,5a34.26,34.26,0,0,1-19.09-5.39L436.15,482l.15.09q7,6.17,14.83,6.17a11.55,11.55,0,0,0,6.46-1.53,4.82,4.82,0,0,0,2.2-4.41,5.93,5.93,0,0,0-2.75-4.8A36.65,36.65,0,0,0,450.7,474l-7.5-3.37a15.07,15.07,0,0,1-6.46-5.8,18.18,18.18,0,0,1-2.64-10.08q0-8.87,5.54-13.65t16-4.78a33.61,33.61,0,0,1,17,4.78Z"/><path class="cls-1" d="M530.8,437.15v13.65l-16.08-.17v49.54h-13.8V450.45l-16-.26v-13Z"/><path class="cls-1" d="M605.84,437.76v10.17l-16.37-.17v52.41H579.33V447.58L563,447.32v-9.56Z"/><path class="cls-1" d="M653.71,467.74q9.62,3.3,9.62,14.78,0,18.6-26.43,18.6A123.81,123.81,0,0,1,621.63,500V437.93a96.93,96.93,0,0,1,14.1-1.13q25.48,0,25.48,17,0,9.56-7.49,13.56Zm-16.52-22.25q-2.28,0-5.43.26v18.6h8.59q5.65,0,8.26-2.22t2.61-6.82q0-5-3.19-7.39T637.19,445.49Zm0,46.67q8.81,0,12.26-2.39t3.45-7.52q0-4.87-2.72-7.13t-8.52-2.26h-9.91V492Q633.81,492.17,637.19,492.17Z"/><path class="cls-1" d="M680.88,500.16V437.76H691v62.41Z"/><path class="cls-1" d="M721.92,490.51l23.72-.87v10.52H711.79V437.76h10.13Z"/><path class="cls-1" d="M761.5,500.16V437.76h10.13v62.41Z"/><path class="cls-1" d="M822.81,451.58h-.15q-6.39-4.87-12.63-4.87-4.7,0-7.16,1.87a6.05,6.05,0,0,0-2.39,5.27,7,7,0,0,0,2.89,5.53,30.72,30.72,0,0,0,6.58,3.88l7.71,3.42a15.24,15.24,0,0,1,6.6,5.81,18.13,18.13,0,0,1,2.65,10.12q0,8.6-5.4,13.47t-14.87,4.87a30.12,30.12,0,0,1-17.77-5.48L791.53,485h.15q6.75,6.08,14.76,6.08,10.06,0,10.06-7.65a7.75,7.75,0,0,0-2-5.35,14,14,0,0,0-4.85-3.48l-6.32-2.78a48.62,48.62,0,0,1-6.35-3.34,14.14,14.14,0,0,1-4.85-5.43,18,18,0,0,1-1.95-8.65q0-8.26,5.1-12.86T810,437a29.77,29.77,0,0,1,15.49,4.43Z"/><path class="cls-1" d="M844.32,500.16V437.76h10.13v62.41Z"/><circle class="cls-2" cx="425.43" cy="182.35" r="16.18"/><circle class="cls-3" cx="343.75" cy="89.7" r="10.13"/><circle class="cls-4" cx="844.07" cy="131.4" r="10.13"/><circle class="cls-5" cx="157.11" cy="144.63" r="10.57"/><circle class="cls-6" cx="220.37" cy="21.98" r="21.98"/><circle class="cls-7" cx="519.34" cy="121.27" r="5.28"/><circle class="cls-8" cx="600.68" cy="115.98" r="33.6"/><polygon class="cls-5" points="684.2 156.45 624.78 225.43 608.11 245.65 702.12 181.52 684.2 156.45"/><polygon class="cls-5" points="840.23 273.27 935.14 367.24 837.98 240.27 801.26 255.08 784.94 214.92 757.09 173.06 751.84 176.94 804.45 260.16 840.23 273.27"/><polygon class="cls-9" points="212.95 201.78 272.56 250.91 313.36 199.13 313.95 197.78 302.64 185.64 264.53 138.31 242.25 178.87 152.27 243.41 170.78 255.91 212.95 201.78"/><polygon class="cls-5" points="470.2 305.77 511.52 321.28 515.29 320.56 547.97 318.5 548.09 318.36 548.69 318.31 554.09 311.91 605.97 252.68 605.97 248.24 605.97 248.24 608.4 245.35 594.08 254.9 490.32 286.75 409.05 241.24 387.25 237.73 457.68 301.06 470.2 305.77"/><polygon class="cls-10" points="751.84 176.94 738.88 156.45 702.12 181.52 717.15 202.53 751.84 176.94"/><polygon class="cls-9" points="602.88 256.26 552.08 314.2 573.76 310.14 602.88 256.26"/><polygon class="cls-11" points="268.28 256.17 272.49 250.83 212.88 201.7 268.28 256.17"/><polygon class="cls-8" points="646.37 283.42 677.75 266.7 704.98 218.25 721.43 234.91 723.09 233.39 730.44 226.73 757.44 250.25 814.07 302.72 841.53 286.13 940.65 374.44 935.14 367.24 840.24 273.27 804.45 260.16 751.84 176.94 717.15 202.53 702.12 181.52 608.11 245.65 605.97 248.24 646.37 283.42"/><polygon class="cls-5" points="344.85 230.94 387.25 237.73 380.5 231.44 324.57 173.29 313.95 197.79 326.67 211.46 344.85 230.94"/><polygon class="cls-12" points="375.48 260.61 436.14 293.24 470.2 305.77 457.68 301.06 387.25 237.73 346.42 231.19 375.48 260.61"/><polygon class="cls-13" points="841.53 286.05 814.07 302.63 757.44 250.16 730.44 226.65 721.43 234.91 769.48 303.22 802.37 291.87 847.46 333.74 952.64 390.01 940.65 374.35 841.53 286.05"/><polygon class="cls-3" points="605.97 248.24 605.97 252.5 602.88 256.26 573.76 310.14 553.2 316.5 551.89 318.09 608.65 314.1 646.37 283.42 642.21 279.82 605.97 248.24"/><polygon class="cls-14" points="802.37 291.87 769.48 303.22 721.43 234.91 709.67 245.7 718.24 254.54 752.19 322.5 847.7 333.91 952.64 390.01 847.46 333.74 802.37 291.87"/><polygon class="cls-8" points="552.08 314.2 548.09 319.04 608.65 314.79 646.37 284.11 611.36 302.77 552.08 314.2"/><polygon class="cls-11" points="152.27 243.33 113.58 217.19 0.48 389.92 143.25 249.8 152.27 243.33"/><polygon class="cls-5" points="272.5 250.78 286.02 261.92 313.36 199.13 272.5 250.78"/><polygon class="cls-12" points="212.96 201.69 170.79 255.82 152.28 243.32 143.26 249.79 0.49 389.92 132.66 318.75 212.96 201.69"/><polygon class="cls-15" points="721.43 234.91 704.98 218.25 677.75 266.7 699.28 255.23 704.94 250.03 713.94 241.78 721.43 234.91"/><polygon class="cls-16" points="231.82 304.34 281.39 272.65 286.04 261.93 272.52 250.79 268.31 256.13 212.91 201.66 132.6 318.7 0 390.01 222.93 301.58 231.82 304.34"/><polygon class="cls-17" points="515.29 320.56 511.52 321.28 470.61 305.88 436.55 293.34 375.89 260.71 346.42 231.19 344.85 230.94 326.61 211.34 313.95 197.78 313.36 199.13 286.01 261.94 308.14 280.18 384.04 332.85 471.24 337.52 528.79 319.85 515.29 320.56"/><polygon class="cls-18" points="308.01 280.13 286.02 261.92 281.24 272.61 231.82 304.34 404.4 358.2 471.24 337.52 383.9 332.8 308.01 280.13"/><polygon class="cls-12" points="222.93 301.58 0 390.01 98.4 390.01 231.82 304.34 222.93 301.58"/><polygon class="cls-8" points="471.24 337.52 499.96 339.14 546.89 319.94 548.09 318.49 528.79 319.85 471.24 337.52"/><polygon class="cls-19" points="752.19 322.5 718.24 254.54 709.67 245.7 699.28 255.23 646.37 283.42 608.65 314.1 548.09 318.36 546.89 319.81 499.96 339.01 471.24 337.52 404.4 358.2 231.82 304.34 98.4 390.01 952.64 390.01 847.7 333.91 752.19 322.5"/><circle class="cls-20" cx="709.93" cy="21.98" r="8.01"/></g></g></svg>