<svg xmlns="http://www.w3.org/2000/svg" viewBox="0 0 52.539 65.168" width="50.5">
  <defs>
    <style>
      .cls-1, .cls-2, .cls-3 {
        fill: none;
        stroke: #370355;
        stroke-miterlimit: 10;
        stroke-width: 2px;
      }

      .cls-2, .cls-3 {
        stroke-linecap: round;
        stroke-dasharray: 0 4;
      }

      .cls-3 {
        stroke-linejoin: round;
      }

      .cls-4 {
        fill: #370355;
      }
    </style>
  </defs>
  <g id="Group_73" data-name="Group 73" transform="translate(1)">
    <g id="Group_72" data-name="Group 72" transform="translate(0 0)">
      <g id="Group_69" data-name="Group 69" transform="translate(0 3.065)">
        <path id="Path_132" data-name="Path 132" class="cls-1" d="M1125.109,68.7H1080.83a3.131,3.131,0,0,1-3.13-3.13V10.73a3.131,3.131,0,0,1,3.13-3.13h44.279a3.131,3.131,0,0,1,3.13,3.13V65.573A3.131,3.131,0,0,1,1125.109,68.7Z" transform="translate(-1077.7 -7.6)"/>
      </g>
      <rect id="Rectangle_84" data-name="Rectangle 84" class="cls-1" width="34.672" height="42.367" transform="translate(7.933 12.433)"/>
      <g id="Group_71" data-name="Group 71" transform="translate(8.844 18.781)">
        <g id="Group_70" data-name="Group 70" transform="translate(0)">
          <line id="Line_31" data-name="Line 31" class="cls-2" y1="13.504" x2="5.698" transform="translate(0 20.802)"/>
          <path id="Path_133" data-name="Path 133" class="cls-3" d="M1100.6,61.869l.717-1.369,1.043,1.109" transform="translate(-1094.511 -41.719)"/>
          <line id="Line_32" data-name="Line 32" class="cls-2" x2="4.891" y2="5.086" transform="translate(8.698 20.867)"/>
          <path id="Path_134" data-name="Path 134" class="cls-3" d="M1112.8,72.026l1.043,1.109.391-1.435" transform="translate(-1098.755 -45.616)"/>
          <line id="Line_33" data-name="Line 33" class="cls-2" y1="13.433" x2="3.652" transform="translate(15.871 11.02)"/>
          <path id="Path_135" data-name="Path 135" class="cls-3" d="M1121.6,46.635l.391-1.435,1.174.913" transform="translate(-1101.817 -36.397)"/>
          <line id="Line_34" data-name="Line 34" class="cls-2" x2="3.652" y2="2.804" transform="translate(22.849 10.89)"/>
          <path id="Path_136" data-name="Path 136" class="cls-3" d="M1133,53.322l1.239.913.456-1.435" transform="translate(-1105.782 -39.041)"/>
          <line id="Line_35" data-name="Line 35" class="cls-2" y1="12.455" x2="4.009" transform="translate(29.37)"/>
        </g>
      </g>
      <rect id="Rectangle_85" data-name="Rectangle 85" class="cls-4" width="31.627" height="6.065" transform="translate(10.108)"/>
    </g>
  </g>
</svg>
