<svg xmlns="http://www.w3.org/2000/svg" xmlns:xlink="http://www.w3.org/1999/xlink" width="88" height="88" viewBox="0 0 88 88"><defs><path id="azwga" d="M187.74 388.47A43.76 43.76 0 0 1 144 344.74 43.76 43.76 0 0 1 187.74 301a43.76 43.76 0 0 1 43.73 43.74 43.69 43.69 0 0 1-43.73 43.73z"/><path id="azwgb" d="M156 344.58c0-15.8 15.79-31.58 31.58-31.58 15.78 0 31.57 15.79 31.57 31.58 0 15.78-15.79 31.57-31.57 31.57-15.8 0-31.58-15.79-31.58-31.57z"/><path id="azwgc" d="M195.81 344.37L183.03 337v14.73z"/></defs><g><g transform="translate(-144 -301)"><use fill="#eb2873" fill-opacity=".3" xlink:href="#azwga"/></g><g transform="translate(-144 -301)"><use fill="#f54d8e" xlink:href="#azwgb"/></g><g transform="translate(-144 -301)"><use fill="#a71d5f" xlink:href="#azwgc"/></g></g></svg>