<?xml version="1.0" encoding="utf-8"?>
<!-- Generator: Adobe Illustrator 21.1.0, SVG Export Plug-In . SVG Version: 6.00 Build 0)  -->
<svg version="1.1" id="Layer_1" xmlns="http://www.w3.org/2000/svg" xmlns:xlink="http://www.w3.org/1999/xlink" x="0px" y="0px"
	 width="67px" height="50px" viewBox="0 0 67 50" style="enable-background:new 0 0 67 50;" xml:space="preserve">
<style type="text/css">
	.st0{fill:#E1F9FF;}
	.st1{fill:#0FB6ED;}
	.st2{fill:#0FB6ED;stroke:#0FB6ED;stroke-width:0.2;stroke-miterlimit:10;}
	.st3{fill:#F95068;}
	.st4{fill:#F95068;stroke:#F95068;stroke-width:0.2;stroke-miterlimit:10;}
	.st5{fill:#4F4F8E;}
	.st6{fill:#4F4F8E;stroke:#4F4F8E;stroke-width:0.2;stroke-miterlimit:10;}
</style>
<rect y="65.3" class="st0" width="16" height="16"/>
<rect x="17" y="65.3" class="st0" width="16" height="16"/>
<rect x="34" y="65.3" class="st0" width="16" height="16"/>
<rect x="51" y="65.3" class="st0" width="16" height="16"/>
<rect x="16" y="72.3" class="st0" width="1" height="1"/>
<rect x="33" y="72.3" class="st0" width="1" height="1"/>
<rect x="50" y="72.3" class="st0" width="1" height="1"/>
<g>
	<path id="f_11_" class="st1" d="M9.1,15.2V8.6h2.2l0.3-2.6H9.1V4.4c0-0.7,0.2-1.2,1.3-1.2l1.4,0V0.9c-0.2,0-1-0.1-2-0.1
		c-2,0-3.3,1.2-3.3,3.4v1.9H4.3v2.6h2.2v6.6H9.1z"/>
</g>
<title>Asset 5</title>
<g>
	<g>
		<path class="st1" d="M31.9,5.3c-0.5,0.2-1.1,0.4-1.6,0.4c0.6-0.4,1-0.9,1.3-1.6c-0.6,0.3-1.2,0.6-1.8,0.7
			c-0.5-0.6-1.3-0.9-2.1-0.9c-1.6,0-2.8,1.3-2.8,2.8c0,0.2,0,0.4,0.1,0.6c-2.4-0.1-4.5-1.3-5.9-3c-0.2,0.4-0.4,0.9-0.4,1.4
			c0,1,0.5,1.9,1.3,2.4c-0.5,0-0.9-0.1-1.3-0.4v0c0,1.4,1,2.5,2.3,2.8c-0.2,0.1-0.5,0.1-0.8,0.1c-0.2,0-0.4,0-0.5-0.1
			c0.4,1.1,1.4,2,2.7,2c-1,0.8-2.2,1.2-3.5,1.2c-0.2,0-0.5,0-0.7,0c1.3,0.8,2.8,1.3,4.4,1.3c5.2,0,8.1-4.3,8.1-8.1l0-0.4
			C31.1,6.3,31.6,5.8,31.9,5.3z"/>
	</g>
</g>
<g>
	<g>
		<path class="st2" d="M61.9,2.3h-5.8c-2,0-3.6,1.6-3.6,3.6v5.8c0,2,1.6,3.6,3.6,3.6h5.8c2,0,3.6-1.6,3.6-3.6V5.8
			C65.5,3.9,63.9,2.3,61.9,2.3z M64.3,11.6c0,1.3-1.1,2.4-2.4,2.4h-5.8c-1.3,0-2.4-1.1-2.4-2.4V5.8c0-1.3,1.1-2.4,2.4-2.4h5.8
			c1.3,0,2.4,1.1,2.4,2.4L64.3,11.6L64.3,11.6z"/>
		<path class="st2" d="M59,5.4c-1.8,0-3.3,1.5-3.3,3.3c0,1.8,1.5,3.3,3.3,3.3s3.3-1.5,3.3-3.3C62.3,6.9,60.8,5.4,59,5.4z M59,10.9
			c-1.2,0-2.2-1-2.2-2.2c0-1.2,1-2.2,2.2-2.2s2.2,1,2.2,2.2C61.2,9.9,60.2,10.9,59,10.9z"/>
		<path class="st2" d="M62.5,4.4c-0.2,0-0.4,0.1-0.6,0.2c-0.2,0.2-0.2,0.4-0.2,0.6c0,0.2,0.1,0.4,0.2,0.6C62,6,62.3,6.1,62.5,6.1
			c0.2,0,0.4-0.1,0.6-0.2c0.2-0.2,0.2-0.4,0.2-0.6c0-0.2-0.1-0.4-0.2-0.6C62.9,4.5,62.7,4.4,62.5,4.4z"/>
	</g>
</g>
<g>
	<path id="LinkedIn_11_" class="st1" d="M49.3,9.8v5.4h-3.1v-5c0-1.3-0.5-2.1-1.6-2.1c-0.9,0-1.4,0.6-1.6,1.1
		c-0.1,0.2-0.1,0.5-0.1,0.8v5.3h-3.1c0,0,0-8.5,0-9.4h3.1v1.3c0,0,0,0,0,0h0v0c0.4-0.6,1.2-1.6,2.8-1.6C47.8,5.6,49.3,6.9,49.3,9.8z
		 M36.5,1.2c-1.1,0-1.8,0.7-1.8,1.6c0,0.9,0.7,1.6,1.7,1.6h0c1.1,0,1.8-0.7,1.8-1.6C38.2,1.9,37.5,1.2,36.5,1.2z M34.9,15.2H38V5.8
		h-3.1V15.2z"/>
</g>
<g>
	<path id="f_1_" class="st3" d="M9.1,32.2v-6.6h2.2l0.3-2.6H9.1v-1.6c0-0.7,0.2-1.2,1.3-1.2l1.4,0v-2.3c-0.2,0-1-0.1-2-0.1
		c-2,0-3.3,1.2-3.3,3.4v1.9H4.3v2.6h2.2v6.6H9.1z"/>
</g>
<g>
	<g>
		<path class="st3" d="M31.9,22.3c-0.5,0.2-1.1,0.4-1.6,0.4c0.6-0.4,1-0.9,1.3-1.6c-0.6,0.3-1.2,0.6-1.8,0.7
			c-0.5-0.6-1.3-0.9-2.1-0.9c-1.6,0-2.8,1.3-2.8,2.8c0,0.2,0,0.4,0.1,0.6c-2.4-0.1-4.5-1.3-5.9-3c-0.2,0.4-0.4,0.9-0.4,1.4
			c0,1,0.5,1.9,1.3,2.4c-0.5,0-0.9-0.1-1.3-0.4v0c0,1.4,1,2.5,2.3,2.8c-0.2,0.1-0.5,0.1-0.8,0.1c-0.2,0-0.4,0-0.5-0.1
			c0.4,1.1,1.4,2,2.7,2c-1,0.8-2.2,1.2-3.5,1.2c-0.2,0-0.5,0-0.7,0c1.3,0.8,2.8,1.3,4.4,1.3c5.2,0,8.1-4.3,8.1-8.1l0-0.4
			C31.1,23.3,31.6,22.8,31.9,22.3z"/>
	</g>
</g>
<g>
	<g>
		<path class="st4" d="M61.9,19.3h-5.8c-2,0-3.6,1.6-3.6,3.6v5.8c0,2,1.6,3.6,3.6,3.6h5.8c2,0,3.6-1.6,3.6-3.6v-5.8
			C65.5,20.9,63.9,19.3,61.9,19.3z M64.3,28.6c0,1.3-1.1,2.4-2.4,2.4h-5.8c-1.3,0-2.4-1.1-2.4-2.4v-5.8c0-1.3,1.1-2.4,2.4-2.4h5.8
			c1.3,0,2.4,1.1,2.4,2.4L64.3,28.6L64.3,28.6z"/>
		<path class="st4" d="M59,22.4c-1.8,0-3.3,1.5-3.3,3.3c0,1.8,1.5,3.3,3.3,3.3s3.3-1.5,3.3-3.3C62.3,23.9,60.8,22.4,59,22.4z
			 M59,27.9c-1.2,0-2.2-1-2.2-2.2c0-1.2,1-2.2,2.2-2.2s2.2,1,2.2,2.2C61.2,26.9,60.2,27.9,59,27.9z"/>
		<path class="st4" d="M62.5,21.4c-0.2,0-0.4,0.1-0.6,0.2c-0.2,0.2-0.2,0.4-0.2,0.6c0,0.2,0.1,0.4,0.2,0.6c0.2,0.2,0.4,0.2,0.6,0.2
			c0.2,0,0.4-0.1,0.6-0.2c0.2-0.2,0.2-0.4,0.2-0.6c0-0.2-0.1-0.4-0.2-0.6C62.9,21.5,62.7,21.4,62.5,21.4z"/>
	</g>
</g>
<g>
	<path id="LinkedIn_1_" class="st3" d="M49.3,26.8v5.4h-3.1v-5c0-1.3-0.5-2.1-1.6-2.1c-0.9,0-1.4,0.6-1.6,1.1
		c-0.1,0.2-0.1,0.5-0.1,0.8v5.3h-3.1c0,0,0-8.5,0-9.4h3.1v1.3c0,0,0,0,0,0h0v0c0.4-0.6,1.2-1.6,2.8-1.6
		C47.8,22.6,49.3,23.9,49.3,26.8z M36.5,18.2c-1.1,0-1.8,0.7-1.8,1.6c0,0.9,0.7,1.6,1.7,1.6h0c1.1,0,1.8-0.7,1.8-1.6
		C38.2,18.9,37.5,18.2,36.5,18.2z M34.9,32.2H38v-9.4h-3.1V32.2z"/>
</g>
<g>
	<path id="f_2_" class="st5" d="M9.1,49.2v-6.6h2.2l0.3-2.6H9.1v-1.6c0-0.7,0.2-1.2,1.3-1.2l1.4,0v-2.3c-0.2,0-1-0.1-2-0.1
		c-2,0-3.3,1.2-3.3,3.4v1.9H4.3v2.6h2.2v6.6H9.1z"/>
</g>
<g>
	<g>
		<path class="st5" d="M31.9,39.3c-0.5,0.2-1.1,0.4-1.6,0.4c0.6-0.4,1-0.9,1.3-1.6c-0.6,0.3-1.2,0.6-1.8,0.7
			c-0.5-0.6-1.3-0.9-2.1-0.9c-1.6,0-2.8,1.3-2.8,2.8c0,0.2,0,0.4,0.1,0.6c-2.4-0.1-4.5-1.3-5.9-3c-0.2,0.4-0.4,0.9-0.4,1.4
			c0,1,0.5,1.9,1.3,2.4c-0.5,0-0.9-0.1-1.3-0.4v0c0,1.4,1,2.5,2.3,2.8c-0.2,0.1-0.5,0.1-0.8,0.1c-0.2,0-0.4,0-0.5-0.1
			c0.4,1.1,1.4,2,2.7,2c-1,0.8-2.2,1.2-3.5,1.2c-0.2,0-0.5,0-0.7,0c1.3,0.8,2.8,1.3,4.4,1.3c5.2,0,8.1-4.3,8.1-8.1l0-0.4
			C31.1,40.3,31.6,39.8,31.9,39.3z"/>
	</g>
</g>
<g>
	<g>
		<path class="st6" d="M44.9,36.3h-5.8c-2,0-3.6,1.6-3.6,3.6v5.8c0,2,1.6,3.6,3.6,3.6h5.8c2,0,3.6-1.6,3.6-3.6v-5.8
			C48.5,37.9,46.9,36.3,44.9,36.3z M47.3,45.6c0,1.3-1.1,2.4-2.4,2.4h-5.8c-1.3,0-2.4-1.1-2.4-2.4v-5.8c0-1.3,1.1-2.4,2.4-2.4h5.8
			c1.3,0,2.4,1.1,2.4,2.4L47.3,45.6L47.3,45.6z"/>
		<path class="st6" d="M42,39.4c-1.8,0-3.3,1.5-3.3,3.3c0,1.8,1.5,3.3,3.3,3.3s3.3-1.5,3.3-3.3C45.3,40.9,43.8,39.4,42,39.4z
			 M42,44.9c-1.2,0-2.2-1-2.2-2.2c0-1.2,1-2.2,2.2-2.2s2.2,1,2.2,2.2C44.2,43.9,43.2,44.9,42,44.9z"/>
		<path class="st6" d="M45.5,38.4c-0.2,0-0.4,0.1-0.6,0.2c-0.2,0.2-0.2,0.4-0.2,0.6c0,0.2,0.1,0.4,0.2,0.6c0.2,0.2,0.4,0.2,0.6,0.2
			c0.2,0,0.4-0.1,0.6-0.2c0.2-0.2,0.2-0.4,0.2-0.6c0-0.2-0.1-0.4-0.2-0.6C45.9,38.5,45.7,38.4,45.5,38.4z"/>
	</g>
</g>
</svg>
