<?xml version="1.0" encoding="utf-8"?>
<!-- Generator: Adobe Illustrator 21.0.0, SVG Export Plug-In . SVG Version: 6.00 Build 0)  -->
<svg version="1.1" id="Layer_1" xmlns="http://www.w3.org/2000/svg" xmlns:xlink="http://www.w3.org/1999/xlink" x="0px" y="0px"
	 viewBox="0 0 9.4 15.6" style="enable-background:new 0 0 9.4 15.6;" xml:space="preserve">
<style type="text/css">
	.st0{fill:#B4B4B4;}
</style>
<g>
	<g>
		<g>
			<g>
				<path class="st0" d="M4.7,11.1C2.1,11.1,0,9,0,6.4c0-0.3,0.2-0.5,0.5-0.5S1,6.1,1,6.4c0,2,1.7,3.7,3.7,3.7s3.7-1.7,3.7-3.7
					c0-0.3,0.2-0.5,0.5-0.5c0.3,0,0.5,0.2,0.5,0.5C9.4,9,7.3,11.1,4.7,11.1z"/>
			</g>
		</g>
		<g>
			<g>
				<path class="st0" d="M4.7,9.1L4.7,9.1C3.2,9.1,2,7.9,2,6.4V2.7C2,1.2,3.2,0,4.7,0h0c1.5,0,2.7,1.2,2.7,2.7v3.7
					C7.4,7.9,6.2,9.1,4.7,9.1z"/>
			</g>
		</g>
		<g>
			<g>
				<rect x="4.2" y="10.6" class="st0" width="1" height="4.5"/>
			</g>
		</g>
		<g>
			<g>
				<path class="st0" d="M6.2,15.6h-3c-0.3,0-0.5-0.2-0.5-0.5c0-0.3,0.2-0.5,0.5-0.5h3c0.3,0,0.5,0.2,0.5,0.5
					C6.7,15.4,6.5,15.6,6.2,15.6z"/>
			</g>
		</g>
	</g>
</g>
</svg>
