<?xml version="1.0" encoding="utf-8"?>
<!-- Generator: Adobe Illustrator 21.0.0, SVG Export Plug-In . SVG Version: 6.00 Build 0)  -->
<svg version="1.1" id="Layer_1" xmlns="http://www.w3.org/2000/svg" xmlns:xlink="http://www.w3.org/1999/xlink" x="0px" y="0px"
	 viewBox="0 0 15 15.7" style="enable-background:new 0 0 15 15.7;" xml:space="preserve">
<style type="text/css">
	.st0{fill:#B4B4B4;}
</style>
<g>
	<g>
		<g>
			<g>
				<path class="st0" d="M-12.3,11.2c-2.6,0-4.7-2.1-4.7-4.7c0-0.3,0.2-0.5,0.5-0.5S-16,6.2-16,6.5c0,2,1.7,3.7,3.7,3.7
					s3.7-1.7,3.7-3.7C-8.5,6.2-8.3,6-8,6c0.3,0,0.5,0.2,0.5,0.5C-7.5,9.1-9.7,11.2-12.3,11.2z"/>
			</g>
		</g>
		<g>
			<g>
				<path class="st0" d="M-12.3,9.2L-12.3,9.2C-13.8,9.2-15,8-15,6.5V2.8c0-1.5,1.2-2.7,2.7-2.7h0c1.5,0,2.7,1.2,2.7,2.7v3.7
					C-9.5,8-10.8,9.2-12.3,9.2z"/>
			</g>
		</g>
		<g>
			<g>
				<rect x="-12.8" y="10.7" class="st0" width="1" height="4.5"/>
			</g>
		</g>
		<g>
			<g>
				<path class="st0" d="M-10.8,15.7h-3c-0.3,0-0.5-0.2-0.5-0.5c0-0.3,0.2-0.5,0.5-0.5h3c0.3,0,0.5,0.2,0.5,0.5
					C-10.3,15.5-10.5,15.7-10.8,15.7z"/>
			</g>
		</g>
	</g>
</g>
<g>
	<g>
		<g>
			<path class="st0" d="M8.8,1.5H6.3c-0.4,0-0.8-0.3-0.8-0.8S5.9,0,6.3,0h2.5c0.4,0,0.8,0.3,0.8,0.8S9.2,1.5,8.8,1.5z"/>
		</g>
		<g>
			<path class="st0" d="M13.9,2.1H1.1C0.5,2.1,0,2.6,0,3.2v6.3c0,0.6,0.5,1.1,1.1,1.1h12.8c0.6,0,1.1-0.5,1.1-1.1V3.2
				C15,2.6,14.5,2.1,13.9,2.1z M7.4,8H2V7h5.4V8z M2,5.8v-1h10.8v1H2z"/>
		</g>
		<g>
			<path class="st0" d="M2.1,11.6v3.4c0,0.3,0.3,0.6,0.6,0.6s0.6-0.3,0.6-0.6v-3.4H2.1z"/>
		</g>
		<g>
			<path class="st0" d="M12.2,11.6v3.4c0,0.3,0.3,0.6,0.6,0.6c0.3,0,0.6-0.3,0.6-0.6v-3.4H12.2z"/>
		</g>
	</g>
</g>
</svg>
