<svg xmlns="http://www.w3.org/2000/svg" viewBox="0 0 369.79 63.33">
    <defs>
        <style>.logo-text{fill:#fff;}.logo-dots{fill:#9aca3c;}</style>
    </defs>
    <g id="Layer_2" data-name="Layer 2">
        <g id="Layer_1-2" data-name="Layer 1">
            <path class="logo-text"
                  d="M38.1,27A21,21,0,0,0,31,22.76a25.29,25.29,0,0,0-8.71-1.48,25.34,25.34,0,0,0-8.71,1.48A21.06,21.06,0,0,0,6.48,27a19.91,19.91,0,0,0-4.75,6.64A21.06,21.06,0,0,0,0,42.31,21,21,0,0,0,1.73,51,19.91,19.91,0,0,0,6.48,57.6a20.9,20.9,0,0,0,7.1,4.25,25.34,25.34,0,0,0,8.71,1.48A25.29,25.29,0,0,0,31,61.85a20.81,20.81,0,0,0,7.1-4.25A19.91,19.91,0,0,0,42.85,51a20.88,20.88,0,0,0,1.73-8.65,20.9,20.9,0,0,0-1.73-8.66A19.91,19.91,0,0,0,38.1,27ZM29.6,49.64a9.47,9.47,0,0,1-7.31,2.81A9.45,9.45,0,0,1,15,49.64a10.31,10.31,0,0,1-2.61-7.33A10.33,10.33,0,0,1,15,35a9.45,9.45,0,0,1,7.3-2.81A9.47,9.47,0,0,1,29.6,35a10.37,10.37,0,0,1,2.6,7.34A10.35,10.35,0,0,1,29.6,49.64Zm47.68-7.42A27.36,27.36,0,0,1,77,46a9.32,9.32,0,0,1-1,3.25,5.86,5.86,0,0,1-2.27,2.31,7.64,7.64,0,0,1-3.88.87,5.33,5.33,0,0,1-5.58-3.55,11.25,11.25,0,0,1-.74-3.42c-.08-1.24-.12-2.43-.12-3.59V22.27H51v22.1a48.79,48.79,0,0,0,.54,7.5,15.56,15.56,0,0,0,2.15,6,10.81,10.81,0,0,0,4.54,4,17.36,17.36,0,0,0,7.63,1.44A14.27,14.27,0,0,0,70,62.76a14.6,14.6,0,0,0,3.39-1.49,11,11,0,0,0,2.52-2.06,14.11,14.11,0,0,0,1.69-2.31h.16v5.44H89.66V22.27H77.28ZM114,10.39H101.63V22.27H93.71v9.89h7.92V51.21a12.72,12.72,0,0,0,1.12,5.61,9.79,9.79,0,0,0,3.09,3.75,13.26,13.26,0,0,0,4.63,2.1,23.77,23.77,0,0,0,5.78.66,40.69,40.69,0,0,0,4.37-.24,19.35,19.35,0,0,0,4.3-1V51.79a4.49,4.49,0,0,1-2.44,1,20.68,20.68,0,0,1-2.6.2,7.86,7.86,0,0,1-3.18-.53,3.73,3.73,0,0,1-1.77-1.53,6,6,0,0,1-.75-2.35,25.22,25.22,0,0,1-.16-3V32.16h10.9V22.27H114Zm40.45,10.89a11.89,11.89,0,0,0-6.85,1.85,15.26,15.26,0,0,0-4.71,5.57h-.16V22.27H130.36V62.34h12.39V45.6a41.29,41.29,0,0,1,.33-5.44,10.59,10.59,0,0,1,1.44-4.25,7.54,7.54,0,0,1,3.18-2.76,13.2,13.2,0,0,1,5.62-1,16.54,16.54,0,0,1,2.68.21,18.45,18.45,0,0,1,2.6.62V21.69a9.86,9.86,0,0,0-2-.33C155.9,21.3,155.19,21.28,154.47,21.28Zm8.84,41.06h12.38V22.27H163.31Zm50.2-35.79h-.17a11.59,11.59,0,0,0-5.49-4.08,21.49,21.49,0,0,0-7.22-1.19A16.29,16.29,0,0,0,193,23.05a17.69,17.69,0,0,0-5.74,4.74,22.08,22.08,0,0,0-3.63,6.8,25.09,25.09,0,0,0-1.28,8A23.66,23.66,0,0,0,183.7,51a19.22,19.22,0,0,0,4,6.56,18.21,18.21,0,0,0,6.24,4.29A20.64,20.64,0,0,0,202,63.33a14.12,14.12,0,0,0,4-.57,17,17,0,0,0,3.55-1.49,14.44,14.44,0,0,0,2.81-2,13.41,13.41,0,0,0,1.94-2.18h.17v5.27h11.39V0H213.51ZM211.9,49.64a10.91,10.91,0,0,1-14.62,0,10.35,10.35,0,0,1-2.6-7.33,10.37,10.37,0,0,1,2.6-7.34,10.91,10.91,0,0,1,14.62,0,10.37,10.37,0,0,1,2.6,7.34A10.35,10.35,0,0,1,211.9,49.64ZM269.77,27a16.22,16.22,0,0,0-5.94-4.25A19.84,19.84,0,0,0,256,21.28a25.34,25.34,0,0,0-8.71,1.48,21.06,21.06,0,0,0-7.1,4.25,19.75,19.75,0,0,0-4.74,6.64,20.9,20.9,0,0,0-1.74,8.66A20.88,20.88,0,0,0,235.47,51a19.75,19.75,0,0,0,4.74,6.64,20.9,20.9,0,0,0,7.1,4.25A25.34,25.34,0,0,0,256,63.33a22.48,22.48,0,0,0,9.42-2.06A19.73,19.73,0,0,0,273,55.42l-8.67-6.35a13.83,13.83,0,0,1-3.67,3.5,9.32,9.32,0,0,1-5.16,1.36,9.11,9.11,0,0,1-6.11-2.1,9.74,9.74,0,0,1-3.22-5.65h28.73V42.31a26.73,26.73,0,0,0-1.32-8.66A19.33,19.33,0,0,0,269.77,27ZM246.12,37.77a7.86,7.86,0,0,1,.7-2.85,7.5,7.5,0,0,1,1.73-2.39,9.06,9.06,0,0,1,6.32-2.35,7.33,7.33,0,0,1,5.53,2.23,7.13,7.13,0,0,1,2.06,5.36Zm83.14-16.49a11.9,11.9,0,0,0-6.86,1.85,15.24,15.24,0,0,0-4.7,5.57h-.17V22.27H305.15V62.34h12.38V45.6a41.29,41.29,0,0,1,.33-5.44,10.44,10.44,0,0,1,1.45-4.25,7.42,7.42,0,0,1,3.18-2.76,13.12,13.12,0,0,1,5.61-1,16.45,16.45,0,0,1,2.68.21,18.12,18.12,0,0,1,2.6.62V21.69a9.74,9.74,0,0,0-2-.33C330.69,21.3,330,21.28,329.26,21.28Zm39,22.8a11.3,11.3,0,0,0-3.88-3.59,19.22,19.22,0,0,0-5-1.94l-5-1.15a20.44,20.44,0,0,1-3.88-1.24A2.28,2.28,0,0,1,348.91,34a2.62,2.62,0,0,1,1.48-2.56,6.7,6.7,0,0,1,3.06-.74,8.76,8.76,0,0,1,7.18,3.38l7.6-7.51a14.9,14.9,0,0,0-6.86-4.12,29,29,0,0,0-8-1.15,25,25,0,0,0-6.19.78,16.47,16.47,0,0,0-5.41,2.43A12.68,12.68,0,0,0,338,28.7a12.13,12.13,0,0,0-1.45,6.1,9.91,9.91,0,0,0,5.41,9.57,20.94,20.94,0,0,0,5,1.85l5,1.16a16.5,16.5,0,0,1,3.88,1.32,2.5,2.5,0,0,1,1.53,2.35,2.27,2.27,0,0,1-1.73,2.26,11.32,11.32,0,0,1-3.88.62,10.41,10.41,0,0,1-4.92-1.11A12.52,12.52,0,0,1,343,49.56l-7.51,8.33a15.84,15.84,0,0,0,7.27,4.25,31.81,31.81,0,0,0,8.5,1.19,35.49,35.49,0,0,0,6.52-.61,18.81,18.81,0,0,0,5.95-2.15,13,13,0,0,0,4.33-4,11.21,11.21,0,0,0,1.69-6.39A10.75,10.75,0,0,0,368.27,44.08Z"/>
            <path class="logo-dots"
                  d="M282.36,58.22a7.3,7.3,0,0,0,4.05,4,7.89,7.89,0,0,0,5.94,0,7.26,7.26,0,0,0,2.44-1.61,7.42,7.42,0,0,0,1.61-2.43,8,8,0,0,0,0-5.94,7.64,7.64,0,0,0-1.61-2.43,7.41,7.41,0,0,0-2.44-1.61,8,8,0,0,0-5.94,0,7.3,7.3,0,0,0-4.05,4,7.89,7.89,0,0,0,0,5.94Z"/>
            <path class="logo-dots"
                  d="M164.42,14.72a7.19,7.19,0,0,0,10.16,0,6.91,6.91,0,0,0,2.1-5.07,6.91,6.91,0,0,0-2.1-5.07,7.17,7.17,0,0,0-10.16,0,6.91,6.91,0,0,0-2.1,5.07A6.91,6.91,0,0,0,164.42,14.72Z"/>
        </g>
    </g>
</svg>