<?xml version="1.0" encoding="utf-8"?>
<!-- Generator: Adobe Illustrator 21.0.0, SVG Export Plug-In . SVG Version: 6.00 Build 0)  -->
<svg version="1.1" id="Layer_1" xmlns="http://www.w3.org/2000/svg" xmlns:xlink="http://www.w3.org/1999/xlink" x="0px" y="0px"
	 viewBox="0 0 512 512" style="enable-background:new 0 0 512 512;" xml:space="preserve">
<style type="text/css">
	.st0{fill:#370355;}
</style>
<path class="st0" d="M196,256c0,5.5-4.5,10-10,10s-10-4.5-10-10s4.5-10,10-10S196,250.5,196,256z"/>
<path class="st0" d="M96,236v246c0,16.5,13.5,30,30,30h260c16.5,0,30-13.5,30-30V236c0-16.5-13.5-30-30-30v-76
	C386,58.2,327.9,0,256,0c-71.7,0-130,58.3-130,130v76C109.5,206,96,219.5,96,236z M255.3,356c-5.5,0-10-4.5-10-10s4.5-10,10-10
	c5.5,0,10,4.5,10,10S260.8,356,255.3,356z M146,130c0-60.7,49.3-110,110-110c60.8,0,110,49.2,110,110v76h-30v-76
	c0-44.1-35.9-80-80-80s-80,35.9-80,80v76h-30V130z M196,206v-76c0-33.1,26.9-60,60-60s60,26.9,60,60v76H196z M116,236
	c0-5.5,4.5-10,10-10h260c5.5,0,10,4.5,10,10v246c0,5.5-4.5,10-10,10h-71v-41.9l37.1-37.1c1.9-1.9,2.9-4.4,2.9-7.1v-31.7
	c11.6-4.1,20-15.2,20-28.3c0-16.5-13.5-30-30-30s-30,13.5-30,30c0,13,8.4,24.2,20,28.3v27.6l-37.1,37.1c-1.9,1.9-2.9,4.4-2.9,7.1v46
	h-29V374c11.3-4.3,19.3-15.2,19.3-28c0-16.5-13.5-30-30-30s-30,13.5-30,30c0,13.3,8.7,24.6,20.7,28.5V492h-30v-46
	c0-2.7-1.1-5.2-2.9-7.1L176,401.9v-27.6c11.6-4.1,20-15.2,20-28.3c0-16.5-13.5-30-30-30s-30,13.5-30,30c0,13,8.4,24.2,20,28.3V406
	c0,2.7,1.1,5.2,2.9,7.1l37.1,37.1V492h-70c-5.5,0-10-4.5-10-10V236z M345,356c-5.5,0-10-4.5-10-10s4.5-10,10-10s10,4.5,10,10
	S350.5,356,345,356z M166,356c-5.5,0-10-4.5-10-10s4.5-10,10-10s10,4.5,10,10S171.5,356,166,356z"/>
<path class="st0" d="M226,266h100c5.5,0,10-4.5,10-10s-4.5-10-10-10H226c-5.5,0-10,4.5-10,10S220.5,266,226,266z"/>
</svg>
