<svg xmlns="http://www.w3.org/2000/svg" viewBox="0 0 481.91 213.03">
    <defs>
        <style>
            .cls-1{isolation:isolate;}.cls-2{fill:none;stroke:#ee9fa4;stroke-linecap:round;stroke-linejoin:round;}.cls-3{fill:#fff;}
        </style>
    </defs>
    <title>452Asset 1</title>
    <g id="Layer_2" data-name="Layer 2">
        <g id="Layer_1-2" data-name="Layer 1">
            <g id="Group_269" data-name="Group 269">
                <g id="DataFest_Online-3" data-name="DataFest Online-3" class="cls-1">
                    <g class="cls-1">
                        <path class="cls-2"
                              d="M11.89.5H38.75c25.25,0,43,15.19,43,36.7S64,74,38.75,74H11.89ZM41.53,57.42C54.05,57.42,63,49,63,37.2s-9-20.12-21.51-20.12H30.19V57.42Z"/>
                        <path class="cls-2"
                              d="M142.86,41.16V74H125.42V69.3a22,22,0,0,1-15.3,6C98.35,75.29,89,68.12,89,57.63c0-10.8,10.38-18.4,23.43-18.4a35.78,35.78,0,0,1,13,2.68v-.75c0-5.89-4.49-10.17-12.09-10.17-5.24,0-9.2,1.61-13.91,4.07L93.75,23.72c7.7-3.85,15.62-6.32,24.18-6.32C132.16,17.4,142.86,26.39,142.86,41.16ZM125.42,57.42V51.54A30.45,30.45,0,0,0,115,49.72c-4.92,0-8.77,3.1-8.77,7.38s3.42,7.06,8.24,7.06C119.86,64.16,124.67,61.59,125.42,57.42Z"/>
                        <path class="cls-2"
                              d="M189.3,70.05a21.21,21.21,0,0,1-13.48,5.24c-10.38,0-17.66-7.38-17.66-17.76V33.13h-7.27V18.69h7.27V3.5H175.5V18.69h11.44V33.13H175.5V54.21c0,3.53,2.14,6,5,6a7.65,7.65,0,0,0,5.14-1.82Z"/>
                        <path class="cls-2"
                              d="M248.9,41.16V74H231.46V69.3a22,22,0,0,1-15.3,6c-11.77,0-21.08-7.17-21.08-17.66,0-10.8,10.38-18.4,23.43-18.4a35.78,35.78,0,0,1,13,2.68v-.75c0-5.89-4.5-10.17-12.09-10.17-5.25,0-9.21,1.61-13.91,4.07l-5.67-11.34c7.7-3.85,15.62-6.32,24.18-6.32C238.2,17.4,248.9,26.39,248.9,41.16ZM231.46,57.42V51.54a30.54,30.54,0,0,0-10.38-1.82c-4.92,0-8.78,3.1-8.78,7.38s3.43,7.06,8.24,7.06C225.89,64.16,230.71,61.59,231.46,57.42Z"/>
                        <path class="cls-2" d="M279.71,16.87V30h36V46.4h-36V74H261.42V.5H319.3V16.87Z"/>
                        <path class="cls-2"
                              d="M368.41,55.92l10.7,10.81c-4.92,5-14.44,8.56-22.68,8.56-17.12,0-29.74-12.09-29.74-29.1,0-16.8,12.19-28.79,28.89-28.79,17.54,0,27.81,12.84,27.81,33.92H343.91c1.71,5.57,6.1,9.31,12,9.31A20.12,20.12,0,0,0,368.41,55.92ZM344.13,40.3H366.6c-1.5-5-5.25-8.34-10.7-8.34A12.3,12.3,0,0,0,344.13,40.3Z"/>
                        <path class="cls-2"
                              d="M388.64,66.94l7.27-11.66a34.23,34.23,0,0,0,18.84,6.31c3.95,0,6.2-1.28,6.2-3.42,0-2.67-3.64-3.75-9.09-5-10.7-2.46-20.65-5.24-20.76-17.22,0-10.6,8.67-18.52,22.36-18.52a41.08,41.08,0,0,1,22.47,7.07L429.3,36.34c-4.82-3.1-10.81-5.45-15.84-5.45-3.32,0-5.67,1.49-5.67,3.21,0,2.46,2.35,3,8.88,4.7,9.84,2.36,20.87,5.57,20.87,18.19,0,11.13-9,18.3-23.22,18.3C405,75.29,395.38,72.19,388.64,66.94Z"/>
                        <path class="cls-2"
                              d="M481.41,70.05a21.21,21.21,0,0,1-13.49,5.24c-10.37,0-17.65-7.38-17.65-17.76V33.13H443V18.69h7.27V3.5H467.6V18.69h11.45V33.13H467.6V54.21c0,3.53,2.14,6,5,6a7.65,7.65,0,0,0,5.14-1.82Z"/>
                    </g>
                    <g class="cls-1">
                        <path class="cls-2"
                              d="M9.54,166.2c0-20.65,17.65-38,38.63-38s38.51,17.33,38.51,38S69,204.29,48.17,204.29,9.54,186.85,9.54,166.2Zm63.45,0c0-14-11.34-25.79-24.82-25.79s-25,11.77-25,25.79,11.45,25.89,25,25.89S73,180.32,73,166.2Z"/>
                        <path class="cls-2"
                              d="M149.28,167.8V203H136.65V170.37c0-7.49-4.81-12.84-11.66-12.84s-12.52,4.6-13.37,10.49v35H98.56V147.69h13.06v7.38a20.57,20.57,0,0,1,17.12-8.67C140.83,146.4,149.28,155.29,149.28,167.8Z"/>
                        <path class="cls-2" d="M163.4,128.22h13.06V203H163.4Z"/>
                        <path class="cls-2"
                              d="M190.05,131.85a7.44,7.44,0,0,1,14.87,0,7.44,7.44,0,1,1-14.87,0Zm.85,15.84H204V203H190.9Z"/>
                        <path class="cls-2"
                              d="M269.12,167.8V203H256.49V170.37c0-7.49-4.81-12.84-11.66-12.84s-12.52,4.6-13.38,10.49v35h-13V147.69h13v7.38a20.6,20.6,0,0,1,17.12-8.67C260.66,146.4,269.12,155.29,269.12,167.8Z"/>
                        <path class="cls-2"
                              d="M323.36,187.17l8.24,8.56c-4.81,5.14-14.44,8.56-22.47,8.56-15.83,0-28.88-12.09-28.88-29.1,0-16.59,12.41-28.79,28.13-28.79,17.12,0,27.07,12.95,27.07,33.39H293.73c1.6,7.59,7.38,12.94,15.3,12.94C314.16,192.73,320.26,190.38,323.36,187.17Zm-29.53-17.33h29.11c-1.5-7-6.21-11.88-14-11.88C301.64,158,295.76,162.56,293.83,169.84Z"/>
                    </g>
                </g>
                <g id="DataFest_Online-4" data-name="DataFest Online-4" class="cls-1">
                    <g class="cls-1">
                        <path class="cls-3"
                              d="M2.35,9.24H29.21c25.25,0,43,15.19,43,36.7s-17.76,36.81-43,36.81H2.35ZM32,66.16c12.52,0,21.51-8.45,21.51-20.22S44.51,25.82,32,25.82H20.65V66.16Z"/>
                        <path class="cls-3"
                              d="M133.32,49.9V82.75H115.88V78a22,22,0,0,1-15.3,6C88.81,84,79.5,76.86,79.5,66.38,79.5,55.57,89.88,48,102.93,48a35.78,35.78,0,0,1,12.95,2.68V49.9c0-5.89-4.5-10.17-12.09-10.17-5.24,0-9.2,1.61-13.91,4.07L84.21,32.46c7.7-3.85,15.62-6.32,24.18-6.32C122.62,26.14,133.32,35.13,133.32,49.9ZM115.88,66.16V60.28a30.45,30.45,0,0,0-10.38-1.82c-4.92,0-8.77,3.1-8.77,7.38s3.42,7.06,8.23,7.06C110.32,72.9,115.13,70.33,115.88,66.16Z"/>
                        <path class="cls-3"
                              d="M179.76,78.79A21.21,21.21,0,0,1,166.28,84c-10.38,0-17.66-7.38-17.66-17.76V41.87h-7.27V27.43h7.27V12.24H166V27.43H177.4V41.87H166V63c0,3.53,2.14,6,5,6a7.65,7.65,0,0,0,5.14-1.82Z"/>
                        <path class="cls-3"
                              d="M239.36,49.9V82.75H221.92V78a22,22,0,0,1-15.3,6c-11.77,0-21.08-7.17-21.08-17.65C185.54,55.57,195.92,48,209,48a35.78,35.78,0,0,1,12.95,2.68V49.9c0-5.89-4.5-10.17-12.09-10.17-5.25,0-9.21,1.61-13.91,4.07l-5.67-11.34c7.7-3.85,15.62-6.32,24.18-6.32C228.66,26.14,239.36,35.13,239.36,49.9ZM221.92,66.16V60.28a30.54,30.54,0,0,0-10.38-1.82c-4.92,0-8.78,3.1-8.78,7.38s3.43,7.06,8.24,7.06C216.35,72.9,221.17,70.33,221.92,66.16Z"/>
                        <path class="cls-3" d="M270.17,25.61V38.77h35.95V55.14H270.17V82.75H251.88V9.24h57.88V25.61Z"/>
                        <path class="cls-3"
                              d="M358.88,64.66l10.69,10.81c-4.92,5-14.44,8.56-22.68,8.56-17.12,0-29.74-12.09-29.74-29.1,0-16.8,12.19-28.79,28.89-28.79,17.54,0,27.81,12.84,27.81,33.92H334.37c1.71,5.57,6.1,9.31,12,9.31A20.17,20.17,0,0,0,358.88,64.66ZM334.59,49h22.47c-1.5-5-5.25-8.34-10.7-8.34A12.3,12.3,0,0,0,334.59,49Z"/>
                        <path class="cls-3"
                              d="M379.1,75.68,386.38,64a34.17,34.17,0,0,0,18.83,6.31c4,0,6.2-1.28,6.2-3.42,0-2.67-3.64-3.74-9.09-5-10.7-2.46-20.65-5.24-20.76-17.22,0-10.6,8.67-18.52,22.36-18.52a41.08,41.08,0,0,1,22.47,7.07l-6.63,11.87c-4.82-3.1-10.81-5.45-15.84-5.45-3.32,0-5.67,1.49-5.67,3.21,0,2.46,2.35,3,8.88,4.7C417,49.9,428,53.11,428,65.73c0,11.13-9,18.3-23.22,18.3C395.47,84,385.84,80.93,379.1,75.68Z"/>
                        <path class="cls-3"
                              d="M471.87,78.79A21.21,21.21,0,0,1,458.38,84c-10.37,0-17.65-7.38-17.65-17.76V41.87h-7.27V27.43h7.27V12.24h17.33V27.43h11.45V41.87H458.06V63c0,3.53,2.14,6,5,6a7.67,7.67,0,0,0,5.14-1.82Z"/>
                    </g>
                    <g class="cls-1">
                        <path class="cls-3"
                              d="M0,174.94c0-20.65,17.65-38,38.62-38s38.52,17.33,38.52,38S59.49,213,38.62,213,0,195.59,0,174.94Zm63.45,0c0-14-11.34-25.79-24.83-25.79s-25,11.77-25,25.79,11.45,25.89,25,25.89S63.45,189.06,63.45,174.94Z"/>
                        <path class="cls-3"
                              d="M139.74,176.54v35.21H127.11V179.11c0-7.49-4.81-12.84-11.66-12.84s-12.52,4.6-13.37,10.49v35H89V156.43h13.06v7.38a20.57,20.57,0,0,1,17.12-8.67C131.29,155.14,139.74,164,139.74,176.54Z"/>
                        <path class="cls-3" d="M153.86,137h13.06v74.79H153.86Z"/>
                        <path class="cls-3"
                              d="M180.51,140.59a7.44,7.44,0,0,1,14.87,0,7.44,7.44,0,1,1-14.87,0Zm.85,15.84h13.06v55.32H181.36Z"/>
                        <path class="cls-3"
                              d="M259.58,176.54v35.21H247V179.11c0-7.49-4.82-12.84-11.66-12.84s-12.52,4.6-13.38,10.49v35h-13V156.43h13v7.38A20.6,20.6,0,0,1,239,155.14C251.12,155.14,259.58,164,259.58,176.54Z"/>
                        <path class="cls-3"
                              d="M313.82,195.91l8.24,8.56c-4.81,5.14-14.44,8.56-22.47,8.56-15.83,0-28.88-12.09-28.88-29.1,0-16.59,12.41-28.79,28.13-28.79,17.12,0,27.07,13,27.07,33.39H284.19c1.6,7.59,7.38,12.94,15.3,12.94C304.62,201.47,310.72,199.12,313.82,195.91Zm-29.53-17.33H313.4c-1.5-7-6.21-11.88-14-11.88C292.1,166.7,286.22,171.3,284.29,178.58Z"/>
                    </g>
                </g>
            </g>
        </g>
    </g>
</svg>