<svg xmlns="http://www.w3.org/2000/svg" width="52.539" height="63.103" viewBox="0 0 52.539 63.103">
    <defs>
        <style>
            .prefix__cls-1{fill:none;stroke:#9d9d9d;stroke-miterlimit:10;stroke-width:2px}
        </style>
    </defs>
    <g id="prefix__Group_67" data-name="Group 67" transform="translate(1 1)">
        <g id="prefix__Group_64" data-name="Group 64">
            <path id="prefix__Path_129" d="M855.908 71.3H811.63a3.131 3.131 0 0 1-3.13-3.13V13.33a3.131 3.131 0 0 1 3.13-3.13h44.278a3.131 3.131 0 0 1 3.13 3.13v54.843a3.218 3.218 0 0 1-3.13 3.127z" class="prefix__cls-1" data-name="Path 129" transform="translate(-808.5 -10.2)"/>
        </g>
        <g id="prefix__Group_66" data-name="Group 66" transform="translate(6.947 13.276)">
            <g id="prefix__Group_65" data-name="Group 65" transform="translate(11.135 4.42)">
                <path id="prefix__Line_28" d="M0 0L2.406 13.541" class="prefix__cls-1" data-name="Line 28" transform="translate(5.707 .392)"/>
                <circle id="prefix__Ellipse_43" cx="2.63" cy="2.63" r="2.63" class="prefix__cls-1" data-name="Ellipse 43" transform="translate(5.875 13.708)"/>
                <path id="prefix__Path_130" d="M843.069 33.8l-4.868.839L834.9 52.6l5.26 6.882 9.512-1.679 2.63-8.225z" class="prefix__cls-1" data-name="Path 130" transform="translate(-834.9 -33.8)"/>
                <path id="prefix__Rectangle_83" d="M0 0H10.799V4.588H0z" data-name="Rectangle 83" transform="rotate(-9.974 161.7 -14.793)" style="fill:#9d9d9d"/>
            </g>
            <path id="prefix__Line_29" d="M0 4.196L23.78 0" data-name="Line 29" transform="translate(4.956 2.798)" style="stroke-linecap:round;stroke-dasharray:0 3;fill:none;stroke:#9d9d9d;stroke-miterlimit:10;stroke-width:2px"/>
            <circle id="prefix__Ellipse_44" cx="2.406" cy="2.406" r="2.406" class="prefix__cls-1" data-name="Ellipse 44" transform="translate(27.92)"/>
            <circle id="prefix__Ellipse_45" cx="2.406" cy="2.406" r="2.406" class="prefix__cls-1" data-name="Ellipse 45" transform="translate(0 4.7)"/>
        </g>
    </g>
</svg>
