<svg xmlns="http://www.w3.org/2000/svg" viewBox="0 0 38.04 34.58"><defs><style>.cls-1{fill:#fff;}</style></defs><title>Asset 1</title><g id="Layer_2" data-name="Layer 2"><g id="Layer_1-2" data-name="Layer 1"><g id="_Group_" data-name="&lt;Group&gt;"><rect id="_Path_" data-name="&lt;Path&gt;" class="cls-1" x="0.96" y="11.09" width="7.41" height="23.49"/><path id="_Path_2" data-name="&lt;Path&gt;" class="cls-1" d="M28.63,10.86c-4.25,0-6.91,2.3-7.4,3.91V11.09H12.9c.11,2,0,23.49,0,23.49h8.33V21.87a5.35,5.35,0,0,1,.18-1.92,4.24,4.24,0,0,1,4-2.88c2.89,0,4.21,2.17,4.21,5.35V34.58H38V21.52C38,14.24,33.9,10.86,28.63,10.86Z"/><path id="_Path_3" data-name="&lt;Path&gt;" class="cls-1" d="M4.53,0C1.79,0,0,1.76,0,4.08A4.1,4.1,0,0,0,4.42,8.15h.05C7.26,8.15,9,6.35,9,4.07A4.12,4.12,0,0,0,4.53,0Z"/></g></g></g></svg>