<svg xmlns="http://www.w3.org/2000/svg" viewBox="0 0 52.539 63.103" width="50.5">
  <defs>
    <style>
      .cls-1, .cls-3 {
        fill: none;
        stroke: #370355;
        stroke-miterlimit: 10;
        stroke-width: 2px;
      }

      .cls-2 {
        fill: #370355;
      }

      .cls-3 {
        stroke-linecap: round;
        stroke-dasharray: 0 3;
      }
    </style>
  </defs>
  <g id="Group_67" data-name="Group 67" transform="translate(1 1)">
    <g id="Group_64" data-name="Group 64" transform="translate(0 0)">
      <path id="Path_129" data-name="Path 129" class="cls-1" d="M855.908,71.3H811.63a3.131,3.131,0,0,1-3.13-3.13V13.33a3.131,3.131,0,0,1,3.13-3.13h44.278a3.131,3.131,0,0,1,3.13,3.13V68.173A3.218,3.218,0,0,1,855.908,71.3Z" transform="translate(-808.5 -10.2)"/>
    </g>
    <g id="Group_66" data-name="Group 66" transform="translate(6.947 13.276)">
      <g id="Group_65" data-name="Group 65" transform="translate(11.135 4.42)">
        <line id="Line_28" data-name="Line 28" class="cls-1" x2="2.406" y2="13.541" transform="translate(5.707 0.392)"/>
        <ellipse id="Ellipse_43" data-name="Ellipse 43" class="cls-1" cx="2.63" cy="2.63" rx="2.63" ry="2.63" transform="translate(5.875 13.708)"/>
        <path id="Path_130" data-name="Path 130" class="cls-1" d="M843.069,33.8l-4.868.839L834.9,52.6l5.26,6.882,9.512-1.679,2.63-8.225Z" transform="translate(-834.9 -33.8)"/>
        <rect id="Rectangle_83" data-name="Rectangle 83" class="cls-2" width="10.799" height="4.588" transform="translate(5.006 27.783) rotate(-9.974)"/>
      </g>
      <line id="Line_29" data-name="Line 29" class="cls-3" y1="4.196" x2="23.78" transform="translate(4.956 2.798)"/>
      <ellipse id="Ellipse_44" data-name="Ellipse 44" class="cls-1" cx="2.406" cy="2.406" rx="2.406" ry="2.406" transform="translate(27.92)"/>
      <ellipse id="Ellipse_45" data-name="Ellipse 45" class="cls-1" cx="2.406" cy="2.406" rx="2.406" ry="2.406" transform="translate(0 4.7)"/>
    </g>
  </g>
</svg>
