<svg xmlns="http://www.w3.org/2000/svg" viewBox="0 0 48.495 63.652" width="46.5">
  <defs>
    <style>
      .cls-1 {
        fill: none;
        stroke: #370355;
        stroke-miterlimit: 10;
        stroke-width: 2px;
      }

      .cls-2 {
        fill: #370355;
      }
    </style>
  </defs>
  <g id="Group_75" data-name="Group 75" transform="translate(1 1.184)">
    <path id="Path_138" data-name="Path 138" class="cls-1" d="M1380.144,66.095l-12.064,8.738-12.064-8.738A27.036,27.036,0,0,1,1344.8,44.184V13.6h0a139.108,139.108,0,0,0,46.5,0h0V44.184A27.152,27.152,0,0,1,1380.144,66.095Z" transform="translate(-1344.8 -13.6)"/>
    <path id="Path_139" data-name="Path 139" class="cls-1" d="M1369.6,41.185V39.791A5.767,5.767,0,0,1,1375.391,34h0a5.767,5.767,0,0,1,5.791,5.791v1.18" transform="translate(-1352.17 -18.373)"/>
    <path id="Path_140" data-name="Path 140" class="cls-1" d="M1380.2,47.4h-14.209a1.42,1.42,0,0,0-1.394,1.394V60.322a1.42,1.42,0,0,0,1.394,1.394H1380.2a1.419,1.419,0,0,0,1.394-1.394V48.794A1.384,1.384,0,0,0,1380.2,47.4Z" transform="translate(-1349.851 -24.588)"/>
    <line id="Line_37" data-name="Line 37" class="cls-1" x1="8.086" transform="translate(0 10.564)"/>
    <ellipse id="Ellipse_46" data-name="Ellipse 46" class="cls-1" cx="2.087" cy="2.087" rx="2.087" ry="2.087" transform="translate(8.086 8.477)"/>
    <line id="Line_38" data-name="Line 38" class="cls-1" x1="5.217" transform="translate(0 19.107)"/>
    <ellipse id="Ellipse_47" data-name="Ellipse 47" class="cls-1" cx="2.087" cy="2.087" rx="2.087" ry="2.087" transform="translate(5.282 17.02)"/>
    <g id="Group_74" data-name="Group 74" transform="translate(33.258 34.105)">
      <line id="Line_39" data-name="Line 39" class="cls-1" x2="4.956" transform="translate(4.239 10.629)"/>
      <ellipse id="Ellipse_48" data-name="Ellipse 48" class="cls-1" cx="2.087" cy="2.087" rx="2.087" ry="2.087" transform="translate(0 8.543)"/>
      <line id="Line_40" data-name="Line 40" class="cls-1" x2="5.282" transform="translate(6.978 2.087)"/>
      <ellipse id="Ellipse_49" data-name="Ellipse 49" class="cls-1" cx="2.087" cy="2.087" rx="2.087" ry="2.087" transform="translate(2.869)"/>
    </g>
    <path id="Path_141" data-name="Path 141" class="cls-2" d="M1376.4,59.392l1.233-4.021a1.77,1.77,0,1,1,1.93,0l1.233,4.021Z" transform="translate(-1355.324 -26.768)"/>
  </g>
</svg>
