<svg xmlns="http://www.w3.org/2000/svg" xmlns:xlink="http://www.w3.org/1999/xlink" width="88" height="88" viewBox="0 0 88 88"><defs><path id="5fosa" d="M187.74 231.47A43.76 43.76 0 0 1 144 187.74 43.76 43.76 0 0 1 187.74 144a43.76 43.76 0 0 1 43.73 43.74 43.69 43.69 0 0 1-43.73 43.73z"/><path id="5fosb" d="M156 187.58c0-15.8 15.79-31.58 31.58-31.58 15.78 0 31.57 15.79 31.57 31.58 0 15.78-15.79 31.57-31.57 31.57-15.8 0-31.58-15.79-31.58-31.57z"/><path id="5fosc" d="M177.72 180.13h6v14.66h-6z"/><path id="5fosd" d="M190.72 180.13h6v14.66h-6z"/></defs><g><g transform="translate(-144 -144)"><use fill="#eb2873" fill-opacity=".3" xlink:href="#5fosa"/></g><g transform="translate(-144 -144)"><use fill="#f54d8e" xlink:href="#5fosb"/></g><g transform="translate(-144 -144)"><use fill="#a71d5f" xlink:href="#5fosc"/></g><g transform="translate(-144 -144)"><use fill="#a71d5f" xlink:href="#5fosd"/></g></g></svg>